<svg width="96" height="32" viewBox="0 0 96 32" fill="none" xmlns="http://www.w3.org/2000/svg">
<g clip-path="url(#clip0)">
<path d="M79.7146 26.9473C79.7132 26.9473 79.4214 27.2074 79.4214 27.2074C79.0043 27.5802 78.5752 27.9794 78.0572 27.7797C77.9141 27.7277 77.8135 27.5371 77.7893 27.3892C77.7657 26.3221 78.2463 25.3333 78.7123 24.3706L78.8317 24.1188C80.1722 21.8807 81.7303 19.2436 84.0185 17.4133C84.4041 17.1351 84.8226 16.9013 85.2642 17.0837C85.3658 17.1788 85.4841 17.3438 85.4841 17.5085C85.4841 17.5608 85.4378 17.6995 85.411 17.7426C84.7719 18.7754 84.1632 19.8597 83.5714 20.9006C82.4147 22.9568 81.2147 25.0819 79.7146 26.9475L79.7146 26.9473ZM67.3159 21.6727C67.2283 21.7338 65.6825 21.2131 65.3838 19.7817C65.1303 18.5494 65.9789 17.5865 66.8 17.1011C67.1524 16.8233 67.6832 16.7282 68.0726 16.8664C68.434 17.1096 68.5319 17.5437 68.5319 18.0115C68.5319 18.2983 68.4939 18.593 68.4603 18.8619C68.4603 18.8619 68.4539 18.9141 68.4529 18.9228C68.1953 19.8854 67.8012 20.8312 67.316 21.6728L67.3159 21.6727ZM61.4108 27.494C61.2531 27.2597 61.2009 27.0036 61.1957 26.7267C61.1654 25.0256 62.9956 21.9794 64.2874 20.3199H64.2902C64.8316 21.5053 66.0575 22.2672 66.7976 22.5883C65.8784 24.6358 62.7261 29.0207 61.4112 27.494H61.4108ZM83.7217 27.796C83.4158 28.0041 82.9859 27.8441 83.1467 27.3671C83.547 26.1526 85.1385 23.6775 85.1385 23.6775L89.5714 15.815H86.5349C86.3906 16.0521 86.0819 16.5965 86.0819 16.5965C85.9415 16.3625 85.5214 15.8421 85.3484 15.7298C84.6066 15.261 83.5182 15.4826 82.7673 15.9076C79.5029 17.8164 77.1211 21.588 75.2425 24.5287C75.2425 24.5287 73.2652 27.798 72.1675 28.0411C71.3106 28.1106 71.399 26.9563 71.4361 26.6873C71.7674 24.7438 72.5369 22.8961 73.3121 21.2217C74.8888 20.1287 76.6882 18.6973 78.3235 17.1272C81.8723 13.7348 84.864 9.89155 85.3011 9.03285C85.3011 9.03285 84.8278 9.1284 84.2689 9.14558C81.5387 12.954 75.9518 18.4893 74.2581 19.3129C75.0084 17.5082 79.8564 8.89381 83.982 4.7734L84.6313 4.14855C85.635 3.16824 86.6752 2.16194 87.4858 1.99707C87.5714 1.98844 87.6816 1.99707 87.7768 2.19693C87.813 2.96023 87.5288 3.52419 87.2028 4.1661L86.746 5.10317C86.746 5.10317 87.3931 4.98167 87.818 4.8425C88.3112 3.91468 88.8573 2.87334 88.656 1.63304C88.5888 1.23393 88.2999 0.930343 87.9223 0.860879C86.6917 0.626647 85.3504 1.53726 84.2713 2.27491L84.2276 2.30075C78.68 6.64709 73.9954 12.9109 69.8996 21.4647C69.6028 21.6899 68.4559 21.9591 68.2609 21.8288C68.6654 20.9962 69.1746 19.8768 69.4295 18.6623C69.4736 18.3153 69.5146 17.9597 69.5146 17.6128C69.5146 16.8661 69.3354 16.1637 68.6664 15.678C67.8822 15.2875 66.9129 15.4698 66.2594 15.7646C63.3317 16.9792 61.1437 19.9811 59.5648 22.4531C58.7156 24.0237 57.8688 25.7059 57.6344 27.6323C57.4693 29.1415 57.8054 30.1132 58.6635 30.5992C59.546 31.05 60.6568 30.5814 61.0931 30.356C64.0591 28.7946 66.1315 25.663 67.765 22.7999C67.8299 22.7914 68.7218 22.7655 69.3964 22.5918C69.4054 22.5918 69.4092 22.5918 69.4242 22.6009C69.3855 22.7304 69.0369 23.7718 69.0369 23.7718C68.0016 26.8079 67.5228 28.8727 68.5007 30.0961C69.8982 31.8226 72.2117 30.0356 74.0939 27.6755C73.6899 30.5036 75.1556 30.9462 76.2729 30.7295C77.5563 30.3827 78.9864 29.0117 79.6502 28.3092C79.437 29.1332 79.495 30.6082 80.6625 30.7555C81.4628 30.9034 82.0616 30.4681 82.7546 30.095C85.2402 28.7415 88.2159 24.2316 88.9883 22.9276H87.9754C86.8772 24.5873 85.4798 26.7633 83.722 27.7963L83.7217 27.796ZM45.4285 10.9549H48.2733L49.8789 8.34708H47.0335L45.4285 10.9549ZM90.872 4.02705C88.7028 5.25914 86.4543 6.05705 83.7321 5.77953C82.9778 6.62993 82.2433 7.50602 81.5663 8.40815C85.3867 9.37979 89.4368 7.21968 91.6957 5.16389C94.0852 3.09041 95.3105 0.479374 95.3105 0.479374C95.3105 0.479374 93.5194 2.52654 90.8719 4.0271L90.872 4.02705ZM66.9508 3.36798C66.4985 8.55571 62.4659 11.6012 61.4682 11.8435C60.8635 11.9648 59.8318 11.696 60.7528 9.51881C62.1092 6.58626 64.425 4.09685 66.9097 2.82137C66.9701 3.0383 66.9686 3.17675 66.9508 3.36783L66.9508 3.36798ZM59.0931 16.4414C58.8043 15.8169 58.1184 15.4178 57.3875 15.4611C55.014 15.6781 52.6924 17.63 51.4734 20.4321C50.8337 21.8724 50.4847 23.0607 50.2557 24.9519C50.9938 24.1019 52.4992 22.7053 54.2076 21.9418C54.2076 21.9418 54.44 20.1288 55.6254 18.5151C56.0739 17.8469 56.9716 16.7713 57.9796 17.0575C58.8602 17.3526 58.5507 19.7904 57.3802 22.1494C56.5142 23.8847 55.1889 25.6202 53.848 26.8171C52.6625 27.8235 50.9085 29.0379 49.3739 28.1011C48.4073 27.5288 47.9144 26.3313 48.0185 24.7871C48.4804 20.4063 50.4746 16.6758 53.3281 12.425C56.2707 8.47771 59.5144 4.42643 63.8842 2.26571C64.7756 1.81467 65.6009 1.71057 66.3144 1.98821C66.3144 1.98821 62.2125 4.24377 60.257 8.41681C59.7597 9.47536 59.0679 10.9064 59.7645 12.1731C60.1285 12.8322 60.7749 12.8844 61.2953 12.8497C63.6921 12.2944 65.2405 10.0562 66.5058 8.00903C67.2393 6.45617 67.8913 4.91194 67.8913 3.19398C67.8913 2.98583 67.8805 2.70835 67.8628 2.49992C69.0079 1.8929 71.3559 2.96838 71.3559 2.96838C73.1908 3.57587 77.098 6.56902 78.4156 7.14133C79.0585 6.39539 80.1149 5.2677 80.7097 4.7037L79.8486 4.17444C78.47 3.33291 77.0128 2.53472 75.5785 1.74535C72.3211 -0.0328324 69.6695 0.59163 68.3201 1.0775C67.7898 1.26823 67.305 1.43311 67.305 1.43311C66.3036 0.340091 64.6612 0.443931 63.4511 0.739093C59.0991 1.98826 55.0585 5.03314 50.7267 10.3166C47.5418 14.4547 45.566 18.0292 44.5133 21.5597C43.7017 23.9366 43.455 27.4326 45.436 29.5061C47.1203 31.2666 49.3537 30.8853 50.931 30.2522C54.3482 28.5692 57.4194 24.9426 58.9499 20.77C59.3192 19.5296 59.7291 17.7773 59.0933 16.4411L59.0931 16.4414ZM21.2152 12.4164C21.2095 12.4337 20.6349 13.7522 20.6349 13.7522C20.5518 13.8215 20.4204 13.7869 20.2699 13.7522L20.0119 13.7085C19.202 13.4571 18.591 12.9192 18.4027 12.2773C18.1428 11.028 19.2101 10.0477 19.6803 9.69221C20.1314 9.37963 20.8329 9.21483 21.2402 9.53598C21.4913 9.83102 21.5865 10.2126 21.5865 10.6293C21.5866 11.1931 21.4126 11.8263 21.2153 12.4164H21.2152ZM19.9808 14.9232C19.9808 14.9232 19.9547 15.0016 19.9418 15.0272C19.9385 15.0272 18.6355 17.1524 18.6355 17.1524C17.8491 18.2022 16.8673 19.5212 15.6399 20.1542C15.2761 20.2757 14.7732 20.354 14.517 20.0332C13.9737 19.3824 14.2537 18.4803 14.4812 17.7516L14.5617 17.4913C15.2139 15.7217 16.2487 14.1598 17.2559 12.7108C17.2685 12.7023 17.2967 12.6937 17.3069 12.6937C17.3093 12.7023 17.3133 12.7023 17.315 12.7197C17.9471 13.9341 19.1322 14.4977 20.0186 14.7584C20.0239 14.7584 20.0296 14.767 20.0296 14.7845C20.0298 14.8103 20.0153 14.8453 19.9808 14.923L19.9808 14.9232ZM36.2803 13.5266C36.8632 12.72 38.5596 10.5597 38.9732 10.1954C40.3641 8.97173 40.92 9.51019 40.9682 9.89162C39.67 12.2165 38.1379 14.8797 36.6974 17.2742C36.7003 17.2657 36.2466 17.9595 36.2466 17.9595C35.6104 18.9309 34.9698 19.7637 33.9249 20.3449C33.7759 20.3886 33.5303 20.406 33.3669 20.2841C33.1701 20.154 33.0924 19.9371 33.1146 19.7114C33.1772 18.9655 33.9367 16.6843 36.2803 13.5265L36.2803 13.5266ZM21.8352 8.25211C20.037 7.07231 16.4227 9.32787 13.528 13.1966C10.8808 16.667 9.73769 20.7006 10.9817 22.5659C12.8322 24.7607 16.2676 21.5683 17.7284 19.8595L17.9169 19.6598C18.9104 18.5927 19.6779 17.3087 20.4208 16.0767C20.4208 16.0767 21.1036 14.9489 21.1362 14.8968C21.5582 14.819 22.0665 14.6975 22.6393 14.5326C22.6312 14.5584 20.4479 18.2282 20.6706 20.0499C20.74 20.6056 20.687 22.6355 22.6689 23.2514C25.3105 23.6941 27.42 21.6465 29.2806 19.8247C29.2806 19.8247 29.5977 19.5213 29.777 19.3481C29.7316 19.5298 29.6725 19.7723 29.6725 19.7723C28.8991 22.4617 29.9415 23.0259 30.5936 23.2342C32.5643 23.807 34.9187 20.944 34.9262 20.944C34.8652 21.8458 34.6867 22.5919 35.6374 23.1905C36.5347 23.5118 37.4429 23.0221 38.1331 22.5623C40.6195 20.8099 42.6225 18.0673 44.2402 15.6965H43.2082C43.196 15.6965 40.6616 19.3698 39.016 20.1682C39.0136 20.1682 38.7139 20.3219 38.5413 20.2003C38.3277 20.018 38.412 19.6391 38.5437 19.3707C38.552 19.3532 44.8979 8.34711 44.8979 8.34711H41.9017C41.9017 8.34711 41.5744 8.87664 41.5477 8.91135C41.5276 8.89404 41.4796 8.80301 41.4463 8.75938C39.5899 6.1916 35.3861 10.1413 32.2211 14.7214C31.0026 16.4827 29.4513 18.4657 27.8427 19.8973C27.8427 19.8973 25.4597 22.0817 24.4415 20.5123C24.0693 19.8528 24.1838 18.8888 24.3938 18.2557C25.5792 14.881 27.622 11.8185 29.9466 9.97028C30.6028 9.45876 31.316 9.31083 31.6701 9.52778C32.0073 9.72763 32.0617 10.2217 31.8483 10.5601C31.3069 10.5428 30.8732 10.7073 30.5206 11.0717C29.826 11.8005 29.5846 12.5033 29.8055 13.1627C30.8784 14.6895 33.0181 11.6705 32.9146 9.83133C32.8776 9.17188 32.5258 8.54741 32.0008 8.24348C31.2184 7.77525 30.0246 7.89652 29.2521 8.26979C28.218 8.66002 26.581 10.0219 25.6254 11.0805C24.4225 12.408 22.3594 13.8827 21.7142 13.7175C21.9256 13.1534 23.6682 9.58799 21.835 8.25239L21.8352 8.25211ZM36.8953 27.5545C33.3666 25.2814 28.5777 24.8825 20.8546 27.0252C12.6214 28.96 9.87605 30.2003 6.27104 27.7105C4.88604 26.4874 4.38945 24.5181 4.76029 21.6816C5.62031 17.0574 7.94434 12.6072 12.0727 7.67127C14.377 5.10348 16.5144 2.89984 19.3368 2.01507C21.4999 1.45993 21.2976 3.15992 21.0359 3.40302C20.7597 3.40302 20.2958 3.44654 19.9372 3.68052C19.6462 3.90621 18.8473 4.63499 18.8044 5.61531C18.7426 7.11601 20.2957 6.80363 20.9655 5.97969C21.6876 5.0512 22.7546 3.27307 21.9153 1.6159C21.5635 1.02605 20.9556 0.61842 20.2008 0.479587C17.6164 0.331888 15.2094 1.56384 12.988 2.92585C8.1312 6.30041 4.24503 10.9765 2.04637 16.095C0.778571 19.1833 -0.367936 23.6071 1.35069 27.2078C2.68012 29.7061 5.44018 31.0332 8.73329 30.7557C11.0428 30.513 13.8352 29.7666 15.7138 29.3159C17.592 28.8645 27.2064 25.5596 30.3657 31.3116C30.3657 31.3116 31.4162 29.2724 34.0414 29.2289C36.1998 29.0298 39.3136 29.8538 41.581 31.5191C40.8255 30.383 38.6838 28.7087 36.897 27.5547L36.8953 27.5545Z" fill="#EBF0F8"/>
</g>
<defs>
<clipPath id="clip0">
<rect width="95.78" height="32" fill="white"/>
</clipPath>
</defs>
</svg>
