<svg width="48" height="64" viewBox="0 0 48 64" fill="none" xmlns="http://www.w3.org/2000/svg">
<path d="M38.1764 64H9.82357C7.2182 64 4.71953 62.9741 2.87726 61.1479C1.03498 59.3217 0 56.8449 0 54.2623L0 9.73767C0 7.15508 1.03498 4.67826 2.87726 2.8521C4.71953 1.02593 7.2182 0 9.82357 0L34.4502 0L48 13.4917V54.2623C48 56.8449 46.965 59.3217 45.1227 61.1479C43.2805 62.9741 40.7818 64 38.1764 64Z" fill="#5380C0"/>
<path opacity="0.5" d="M47.9982 13.4984H37.26C36.8938 13.5011 36.5308 13.4318 36.1918 13.2945C35.8528 13.1573 35.5447 12.9548 35.2851 12.6987C35.0256 12.4427 34.8198 12.1382 34.6797 11.8029C34.5395 11.4675 34.4679 11.108 34.4688 10.745V0" fill="white"/>
<path d="M18.2656 35.0528C18.2656 36.6461 17.807 37.8665 16.8898 38.7139C15.977 39.5614 14.6568 39.9851 12.9291 39.9851H10.1641V30.3058H13.2297C14.8237 30.3058 16.0616 30.7229 16.9432 31.5571C17.8248 32.3913 18.2656 33.5565 18.2656 35.0528ZM16.115 35.1057C16.115 33.0269 15.1889 31.9875 13.3366 31.9875H12.2345V38.2902H13.1228C15.1176 38.2902 16.115 37.2287 16.115 35.1057Z" fill="white"/>
<path d="M29.1523 35.1322C29.1523 36.7344 28.7516 37.9658 27.9501 38.8265C27.1486 39.6871 25.9998 40.1175 24.5038 40.1175C23.0077 40.1175 21.8589 39.6871 21.0574 38.8265C20.2559 37.9658 19.8552 36.73 19.8552 35.119C19.8552 33.508 20.2559 32.2788 21.0574 31.4313C21.8633 30.5795 23.0166 30.1536 24.5171 30.1536C26.0176 30.1536 27.1642 30.5817 27.9568 31.4379C28.7538 32.2942 29.1523 33.5256 29.1523 35.1322ZM22.0259 35.1322C22.0259 36.2136 22.2329 37.0279 22.647 37.5752C23.0611 38.1225 23.68 38.3961 24.5038 38.3961C26.1557 38.3961 26.9816 37.3082 26.9816 35.1322C26.9816 32.9518 26.1601 31.8617 24.5171 31.8617C23.6934 31.8617 23.0722 32.1375 22.6537 32.6892C22.2351 33.2365 22.0259 34.0509 22.0259 35.1322Z" fill="white"/>
<path d="M35.3236 31.8749C34.5444 31.8749 33.9411 32.1662 33.5137 32.7488C33.0862 33.327 32.8725 34.1347 32.8725 35.1719C32.8725 37.3302 33.6895 38.4094 35.3236 38.4094C36.0094 38.4094 36.8398 38.2395 37.8149 37.8996V39.6209C37.0134 39.952 36.1184 40.1175 35.13 40.1175C33.7096 40.1175 32.6231 39.6916 31.8706 38.8397C31.1181 37.9835 30.7419 36.7564 30.7419 35.1587C30.7419 34.1524 30.9267 33.2718 31.2962 32.5171C31.6658 31.7579 32.1957 31.1775 32.8858 30.7759C33.5804 30.3698 34.393 30.1668 35.3236 30.1668C36.2721 30.1668 37.2249 30.3941 38.1822 30.8487L37.5143 32.5171C37.1492 32.345 36.7819 32.1949 36.4123 32.0669C36.0427 31.9389 35.6799 31.8749 35.3236 31.8749Z" fill="white"/>
</svg>
