<svg width="20" height="20" viewBox="0 0 20 20" fill="none" xmlns="http://www.w3.org/2000/svg">
<path d="M11.6663 1.66675H4.99967C4.55765 1.66675 4.13372 1.84234 3.82116 2.1549C3.5086 2.46746 3.33301 2.89139 3.33301 3.33341V16.6667C3.33301 17.1088 3.5086 17.5327 3.82116 17.8453C4.13372 18.1578 4.55765 18.3334 4.99967 18.3334H14.9997C15.4417 18.3334 15.8656 18.1578 16.1782 17.8453C16.4907 17.5327 16.6663 17.1088 16.6663 16.6667V6.66675L11.6663 1.66675Z" stroke="#EBF0F8" stroke-linecap="round" stroke-linejoin="round"/>
<path d="M11.667 1.66675V6.66675H16.667" stroke="#EBF0F8" stroke-linecap="round" stroke-linejoin="round"/>
<path d="M13.3337 10.8333H6.66699" stroke="#EBF0F8" stroke-linecap="round" stroke-linejoin="round"/>
<path d="M13.3337 14.1667H6.66699" stroke="#EBF0F8" stroke-linecap="round" stroke-linejoin="round"/>
<path d="M8.33366 7.5H7.50033H6.66699" stroke="#EBF0F8" stroke-linecap="round" stroke-linejoin="round"/>
</svg>
