<svg width="46" height="46" viewBox="0 0 46 46" fill="none" xmlns="http://www.w3.org/2000/svg">
<path d="M25.2589 45.3999C23.8971 45.4246 22.5452 45.1629 21.2909 44.6319C21.1629 44.6319 18.3043 43.2453 15.1043 41.3039C11.9043 39.3626 9.36559 37.4426 9.25893 37.3573C8.32065 36.5829 7.53248 35.6429 6.93359 34.5839L8.76826 33.4959C9.24673 34.3115 9.86822 35.0341 10.6029 35.6293C10.6029 35.6293 13.1416 37.5706 16.2563 39.4479C19.3709 41.3253 22.2083 42.6479 22.2509 42.6693C24.2216 43.4267 26.403 43.4267 28.3736 42.6693C28.3736 42.6693 31.2536 41.3253 34.3683 39.4479C37.4829 37.5706 40.0003 35.6506 40.0216 35.6293C41.6803 34.172 42.775 32.1789 43.1149 29.9973C43.1149 29.9973 43.4563 26.7119 43.4563 22.9573C43.4563 19.2026 43.1363 15.9386 43.1149 15.9173C42.7733 13.7363 41.6789 11.7437 40.0216 10.2853C40.0216 10.2853 37.4829 8.34394 34.3683 6.46661C31.2536 4.58927 28.2669 3.30927 28.2669 3.30927C26.2963 2.5519 24.1149 2.5519 22.1443 3.30927C22.1443 3.30927 19.2643 4.65327 16.1709 6.53061C13.0776 8.40794 10.5816 10.3066 10.5603 10.3279C9.8262 10.9238 9.20482 11.6463 8.72559 12.4613L6.93359 11.4159C7.54436 10.3528 8.34732 9.41242 9.30159 8.64261C9.30159 8.64261 11.9256 6.63727 15.1469 4.69594C18.3683 2.75461 21.2269 1.43194 21.3336 1.36794C23.8742 0.35294 26.7077 0.35294 29.2483 1.36794C29.3763 1.36794 32.2136 2.75461 35.4349 4.69594C38.6563 6.63727 41.0669 8.55727 41.2589 8.64261C43.3843 10.4573 44.7791 12.9815 45.1843 15.7466C45.1843 15.8746 45.5256 19.1386 45.5256 22.9999C45.5256 26.8613 45.2056 30.1253 45.1843 30.2533C44.7791 33.0184 43.3843 35.5426 41.2589 37.3573C41.2589 37.3573 38.6349 39.3626 35.4136 41.3039C32.1923 43.2453 29.3336 44.5679 29.2269 44.6319C27.9726 45.1629 26.6208 45.4246 25.2589 45.3999Z" fill="#1E2A3A"/>
<path d="M0.533203 16.6001H9.06654V18.7334H2.66654V29.4001H0.533203V16.6001Z" fill="#1E2A3A"/>
<path d="M17.6002 18.7334C18.4441 18.7334 19.269 18.9837 19.9706 19.4525C20.6723 19.9213 21.2191 20.5877 21.5421 21.3673C21.865 22.1469 21.9495 23.0048 21.7849 23.8325C21.6203 24.6601 21.2139 25.4204 20.6172 26.0171C20.0205 26.6138 19.2602 27.0202 18.4326 27.1848C17.6049 27.3494 16.747 27.2649 15.9674 26.942C15.1878 26.619 14.5214 26.0722 14.0526 25.3705C13.5838 24.6689 13.3335 23.844 13.3335 23.0001C13.3335 21.8685 13.7831 20.7833 14.5832 19.9831C15.3834 19.183 16.4686 18.7334 17.6002 18.7334ZM17.6002 16.6001C16.3344 16.6001 15.097 16.9755 14.0445 17.6787C12.9921 18.3819 12.1718 19.3815 11.6874 20.5509C11.203 21.7204 11.0762 23.0072 11.3232 24.2487C11.5701 25.4902 12.1797 26.6305 13.0747 27.5256C13.9698 28.4206 15.1101 29.0302 16.3516 29.2771C17.5931 29.5241 18.8799 29.3973 20.0494 28.9129C21.2188 28.4285 22.2184 27.6082 22.9216 26.5557C23.6248 25.5033 24.0002 24.2659 24.0002 23.0001C24.0002 21.3027 23.3259 19.6748 22.1257 18.4746C20.9254 17.2744 19.2976 16.6001 17.6002 16.6001Z" fill="#1E2A3A"/>
<path d="M32.5335 29.4001C31.5186 29.3978 30.5187 29.1541 29.6164 28.6892C28.7142 28.2243 27.9355 27.5515 27.3445 26.7263C26.7536 25.9011 26.3674 24.9471 26.2178 23.9432C26.0683 22.9393 26.1596 21.9143 26.4843 20.9526C26.809 19.991 27.3578 19.1204 28.0853 18.4126C28.8128 17.7049 29.6983 17.1804 30.6685 16.8823C31.6387 16.5842 32.6659 16.5212 33.6653 16.6984C34.6647 16.8756 35.6076 17.2879 36.4162 17.9014L35.1149 19.5867C34.3705 19.0284 33.464 18.7288 32.5335 18.7334C31.8475 18.7341 31.1718 18.9002 30.5636 19.2176C29.9554 19.535 29.4327 19.9944 29.0399 20.5568C28.647 21.1192 28.3956 21.768 28.3068 22.4483C28.2181 23.1286 28.2948 23.8202 28.5302 24.4646C28.7657 25.1089 29.1531 25.687 29.6595 26.1498C30.1659 26.6125 30.7765 26.9464 31.4394 27.123C32.1023 27.2996 32.798 27.3137 33.4676 27.1642C34.1371 27.0147 34.7607 26.7059 35.2855 26.2641L36.6509 27.9067C35.4968 28.8733 34.0389 29.402 32.5335 29.4001Z" fill="#1E2A3A"/>
</svg>
