<svg width="48" height="64" viewBox="0 0 48 64" fill="none" xmlns="http://www.w3.org/2000/svg">
<path d="M38.1764 64H9.82357C7.2182 64 4.71953 62.9741 2.87726 61.1479C1.03498 59.3217 0 56.8449 0 54.2623L0 9.73767C0 7.15508 1.03498 4.67826 2.87726 2.8521C4.71953 1.02593 7.2182 0 9.82357 0L34.4502 0L48 13.4917V54.2623C48 56.8449 46.965 59.3217 45.1227 61.1479C43.2805 62.9741 40.7818 64 38.1764 64Z" fill="#FFC75A"/>
<path d="M22.168 34.9167C22.5616 35.443 23.0639 35.8785 23.6406 36.1936C24.2174 36.5087 24.8552 36.6961 25.5107 36.743C26.1663 36.79 26.8243 36.6954 27.44 36.4657C28.0558 36.236 28.615 35.8765 29.0796 35.4117L31.8296 32.6617C32.6645 31.7973 33.1265 30.6395 33.1161 29.4378C33.1056 28.2361 32.6236 27.0865 31.7738 26.2367C30.924 25.3869 29.7745 24.9049 28.5727 24.8945C27.371 24.884 26.2132 25.346 25.3488 26.1809L23.7721 27.7484" stroke="#1E2A3A" stroke-width="1.5" stroke-linecap="round" stroke-linejoin="round"/>
<path d="M25.835 33.0834C25.4413 32.5571 24.9391 32.1216 24.3623 31.8065C23.7855 31.4914 23.1478 31.304 22.4922 31.2571C21.8367 31.2101 21.1787 31.3047 20.5629 31.5344C19.9471 31.7641 19.388 32.1236 18.9233 32.5884L16.1733 35.3384C15.3384 36.2028 14.8764 37.3606 14.8869 38.5623C14.8973 39.764 15.3794 40.9136 16.2291 41.7634C17.0789 42.6132 18.2285 43.0952 19.4302 43.1056C20.632 43.1161 21.7897 42.6541 22.6541 41.8192L24.2216 40.2517" stroke="#1E2A3A" stroke-width="1.5" stroke-linecap="round" stroke-linejoin="round"/>
<path opacity="0.5" d="M47.9982 13.4984H37.26C36.8938 13.5011 36.5308 13.4318 36.1918 13.2945C35.8528 13.1573 35.5447 12.9548 35.2851 12.6987C35.0256 12.4427 34.8198 12.1382 34.6797 11.8029C34.5395 11.4675 34.4679 11.108 34.4688 10.745V0" fill="white"/>
</svg>
