<svg width="18" height="27" viewBox="0 0 18 27" fill="none" xmlns="http://www.w3.org/2000/svg">
<path fill-rule="evenodd" clip-rule="evenodd" d="M9.65496 17.9451C13.9998 17.4478 17.3793 13.6326 17.3793 9C17.3793 4.02944 13.4888 0 8.68966 0C3.89049 0 0 4.02944 0 9C0 13.6326 3.37947 17.4478 7.72435 17.9451C7.72421 17.9519 7.72414 17.9587 7.72414 17.9655V26.0345C7.72414 26.5677 8.15641 27 8.68966 27C9.2229 27 9.65517 26.5677 9.65517 26.0345V17.9655C9.65517 17.9587 9.6551 17.9519 9.65496 17.9451Z" fill="#FFC75A"/>
<ellipse rx="1.93103" ry="2" transform="matrix(1 0 0 -1 8.68885 9)" fill="#1E2A3A"/>
</svg>
