<svg width="48" height="64" viewBox="0 0 48 64" fill="none" xmlns="http://www.w3.org/2000/svg">
<path d="M38.1764 64H9.82357C7.2182 64 4.71953 62.9741 2.87726 61.1479C1.03498 59.3217 0 56.8449 0 54.2623L0 9.73767C0 7.15508 1.03498 4.67826 2.87726 2.8521C4.71953 1.02593 7.2182 0 9.82357 0L34.4502 0L48 13.4917V54.2623C48 56.8449 46.965 59.3217 45.1227 61.1479C43.2805 62.9741 40.7818 64 38.1764 64Z" fill="#EE3E2C"/>
<path opacity="0.5" d="M47.9982 13.4984H37.26C36.8938 13.5011 36.5308 13.4318 36.1918 13.2945C35.8528 13.1573 35.5447 12.9548 35.2851 12.6987C35.0256 12.4427 34.8198 12.1382 34.6797 11.8029C34.5395 11.4675 34.4679 11.108 34.4688 10.745V0" fill="white"/>
<path d="M13.59 34.8606H14.2713C14.908 34.8606 15.3844 34.737 15.7006 34.4898C16.0167 34.2383 16.1748 33.8741 16.1748 33.3975C16.1748 32.9164 16.0412 32.5611 15.774 32.3315C15.5113 32.102 15.0972 31.9873 14.5317 31.9873H13.59V34.8606ZM18.2653 33.3246C18.2653 34.3663 17.9358 35.1629 17.2768 35.7146C16.6222 36.2664 15.6894 36.5422 14.4783 36.5422H13.59V39.9849H11.5195V30.3057H14.6386C15.823 30.3057 16.7224 30.5595 17.3369 31.067C17.9558 31.5702 18.2653 32.3227 18.2653 33.3246Z" fill="white"/>
<path d="M28.2102 35.0526C28.2102 36.6459 27.7516 37.8663 26.8343 38.7137C25.9216 39.5612 24.6014 39.9849 22.8737 39.9849H20.1087V30.3057H23.1743C24.7683 30.3057 26.0062 30.7228 26.8878 31.5569C27.7694 32.3911 28.2102 33.5563 28.2102 35.0526ZM26.0596 35.1056C26.0596 33.0267 25.1334 31.9873 23.2812 31.9873H22.1791V38.29H23.0674C25.0622 38.29 26.0596 37.2285 26.0596 35.1056Z" fill="white"/>
<path d="M32.271 39.9849H30.2339V30.3057H35.8309V31.9873H32.271V34.4832H35.5838V36.1582H32.271V39.9849Z" fill="white"/>
</svg>
