<svg width="20" height="20" viewBox="0 0 20 20" fill="none" xmlns="http://www.w3.org/2000/svg">
<g opacity="0.8">
<path d="M10 20C15.5228 20 20 15.5228 20 10C20 4.47715 15.5228 0 10 0C4.47715 0 0 4.47715 0 10C0 15.5228 4.47715 20 10 20Z" fill="#EBF0F8"/>
<path d="M8.16536 14.5832C7.84136 14.5832 7.89645 14.4608 7.7847 14.1523L6.83203 11.0171L14.1654 6.6665" fill="#213143"/>
<path d="M8.16797 14.5831C8.41797 14.5831 8.52839 14.4688 8.66797 14.3331L10.0013 13.0366L8.33814 12.0337" fill="#0F161E"/>
<path d="M8.33824 12.0338L12.3682 15.0112C12.8282 15.265 13.16 15.1336 13.2746 14.5843L14.915 6.85407C15.0829 6.18073 14.6583 5.87523 14.2183 6.07498L4.58582 9.78924C3.92832 10.053 3.93224 10.4198 4.46599 10.5832L6.9379 11.3548L12.6607 7.7444C12.9308 7.58057 13.1788 7.66857 12.9753 7.84923" fill="#2B4058"/>
</g>
</svg>
