<svg width="30" height="40" viewBox="0 0 30 40" fill="none" xmlns="http://www.w3.org/2000/svg">
<path d="M23.8603 40H6.13973C4.51137 40 2.94971 39.3588 1.79829 38.2174C0.646863 37.0761 0 35.5281 0 33.914L0 6.08604C0 4.47192 0.646863 2.92392 1.79829 1.78256C2.94971 0.641206 4.51137 0 6.13973 0L21.5314 0L30 8.43232V33.914C30 35.5281 29.3531 37.0761 28.2017 38.2174C27.0503 39.3588 25.4886 40 23.8603 40Z" fill="#1E2A3A"/>
<path d="M29.9989 8.43652H23.2875C23.0587 8.43818 22.8317 8.39487 22.6199 8.30908C22.408 8.22329 22.2154 8.09673 22.0532 7.93671C21.891 7.77669 21.7624 7.58638 21.6748 7.37679C21.5872 7.16721 21.5424 6.94249 21.543 6.71563V0" fill="#8E949C"/>
</svg>
