<svg width="20" height="20" viewBox="0 0 20 20" fill="none" xmlns="http://www.w3.org/2000/svg">
<g opacity="0.8">
<path fill-rule="evenodd" clip-rule="evenodd" d="M6.93333 0H13.0667C18.6667 0 20 1.33333 20 6.93333V13.0667C20 18.6667 18.6667 20 13.0667 20H6.93333C1.33333 20 0 18.6667 0 13.0667V6.93333C0 1.33333 1.33333 0 6.93333 0Z" fill="#EBF0F8"/>
<path fill-rule="evenodd" clip-rule="evenodd" d="M16.3798 6.89007C16.4725 6.58106 16.3798 6.354 15.9388 6.354H14.4805C14.1097 6.354 13.9387 6.55015 13.846 6.76644C13.846 6.76644 13.1044 8.5741 12.0538 9.7483C11.7139 10.0882 11.5594 10.1963 11.374 10.1963C11.2813 10.1963 11.1471 10.0882 11.1471 9.77921V6.89007C11.1471 6.51926 11.0395 6.354 10.7305 6.354H8.43881C8.20709 6.354 8.06773 6.5261 8.06773 6.68921C8.06773 7.04073 8.593 7.12179 8.64714 8.11061V10.2582C8.64714 10.729 8.56211 10.8144 8.37671 10.8144C7.88232 10.8144 6.67974 8.99863 5.96649 6.92096C5.82671 6.51713 5.68652 6.354 5.31381 6.354H3.85547C3.43881 6.354 3.35547 6.55015 3.35547 6.76644C3.35547 7.1527 3.84988 9.06851 5.65751 11.6023C6.86259 13.3327 8.56047 14.2707 10.1055 14.2707C11.0325 14.2707 11.1471 14.0623 11.1471 13.7035V12.3957C11.1471 11.979 11.235 11.8958 11.5285 11.8958C11.7448 11.8958 12.1156 12.004 12.9808 12.8383C13.9696 13.8271 14.1326 14.2707 14.6888 14.2707H16.1471C16.5638 14.2707 16.7721 14.0623 16.652 13.6512C16.5204 13.2414 16.0483 12.6469 15.4219 11.9422C15.082 11.5405 14.5722 11.1079 14.4176 10.8916C14.2014 10.6135 14.2632 10.4899 14.4176 10.2427C14.4176 10.2427 16.1944 7.7398 16.3798 6.89007Z" fill="#0F161E"/>
</g>
</svg>
