<svg width="48" height="64" viewBox="0 0 48 64" fill="none" xmlns="http://www.w3.org/2000/svg">
<g clip-path="url(#clip0)">
<path d="M38.1764 64H9.82357C7.2182 64 4.71953 62.9741 2.87726 61.1479C1.03498 59.3217 0 56.8449 0 54.2623L0 9.73767C0 7.15508 1.03498 4.67826 2.87726 2.8521C4.71953 1.02593 7.2182 0 9.82357 0L34.4502 0L48 13.4917V54.2623C48 56.8449 46.965 59.3217 45.1227 61.1479C43.2805 62.9741 40.7818 64 38.1764 64Z" fill="#00AC54"/>
<path opacity="0.5" d="M48.0021 13.4984H37.2639C36.8978 13.5011 36.5347 13.4318 36.1957 13.2945C35.8567 13.1573 35.5486 12.9548 35.289 12.6987C35.0295 12.4427 34.8237 12.1382 34.6836 11.8029C34.5434 11.4675 34.4718 11.108 34.4727 10.745V0" fill="white"/>
<path d="M20.0531 39.985H17.6888L15.4179 36.3239L13.1471 39.985H10.9297L14.169 34.9931L11.1367 30.3058H13.4209L15.5248 33.7882L17.5886 30.3058H19.8194L16.7537 35.1057L20.0531 39.985Z" fill="white"/>
<path d="M21.2821 39.985V30.3058H23.3525V38.2902H27.3131V39.985H21.2821Z" fill="white"/>
<path d="M34.7802 37.2971C34.7802 38.171 34.4618 38.8595 33.8251 39.3627C33.1928 39.8658 32.3112 40.1174 31.1802 40.1174C30.1383 40.1174 29.2166 39.9232 28.4152 39.5348V37.6281C29.0742 37.9194 29.6307 38.1246 30.0849 38.2438C30.5435 38.363 30.9621 38.4226 31.3405 38.4226C31.7947 38.4226 32.142 38.3365 32.3825 38.1644C32.6273 37.9922 32.7498 37.7362 32.7498 37.3964C32.7498 37.2066 32.6964 37.0389 32.5895 36.8932C32.4826 36.7432 32.3246 36.5997 32.1153 36.4629C31.9105 36.3261 31.4897 36.1076 30.853 35.8074C30.2563 35.5294 29.8088 35.2624 29.5105 35.0064C29.2122 34.7504 28.974 34.4524 28.7959 34.1126C28.6178 33.7727 28.5287 33.3755 28.5287 32.9209C28.5287 32.0646 28.8204 31.3915 29.4036 30.9016C29.9914 30.4117 30.8018 30.1667 31.8348 30.1667C32.3424 30.1667 32.8255 30.2263 33.2841 30.3455C33.7472 30.4647 34.2303 30.6324 34.7334 30.8487L34.0655 32.4442C33.5446 32.2324 33.1127 32.0845 32.7698 32.0006C32.4314 31.9168 32.0975 31.8748 31.768 31.8748C31.3762 31.8748 31.0756 31.9653 30.8663 32.1463C30.6571 32.3273 30.5524 32.5634 30.5524 32.8547C30.5524 33.0356 30.5947 33.1945 30.6793 33.3314C30.7639 33.4638 30.8975 33.594 31.0801 33.722C31.2671 33.8456 31.7057 34.0707 32.3958 34.3973C33.3086 34.8298 33.9342 35.2646 34.2726 35.7015C34.611 36.1341 34.7802 36.6659 34.7802 37.2971Z" fill="white"/>
</g>
<defs>
<clipPath id="clip0">
<rect width="48" height="64" fill="white"/>
</clipPath>
</defs>
</svg>
