<svg width="48" height="64" viewBox="0 0 48 64" fill="none" xmlns="http://www.w3.org/2000/svg">
<g clip-path="url(#clip0)">
<path d="M38.1764 63.5H9.82357C7.3494 63.5 4.97743 62.5257 3.22925 60.7928C1.48123 59.0601 0.5 56.7109 0.5 54.2623V9.73767C0.5 7.28911 1.48123 4.93994 3.22925 3.2072C4.97743 1.47431 7.3494 0.5 9.82357 0.5H34.2438L47.5 13.6994V54.2623C47.5 56.7109 46.5188 59.0601 44.7707 60.7928C43.0226 62.5257 40.6506 63.5 38.1764 63.5Z" fill="#1E2A3A" stroke="#8E949C"/>
<path d="M48.0021 13.4984H37.2639C36.8978 13.5011 36.5347 13.4318 36.1957 13.2945C35.8567 13.1573 35.5486 12.9548 35.289 12.6987C35.0295 12.4427 34.8237 12.1382 34.6836 11.8029C34.5434 11.4675 34.4718 11.108 34.4727 10.745V0" fill="#8E949C"/>
<path d="M20.0531 39.9849H17.6888L15.4179 36.3237L13.1471 39.9849H10.9297L14.169 34.993L11.1367 30.3057H13.4209L15.5248 33.7881L17.5886 30.3057H19.8194L16.7537 35.1055L20.0531 39.9849Z" fill="#8E949C"/>
<path d="M21.2821 39.9849V30.3057H23.3525V38.29H27.3131V39.9849H21.2821Z" fill="#8E949C"/>
<path d="M34.7802 37.2969C34.7802 38.1709 34.4618 38.8594 33.8251 39.3626C33.1928 39.8657 32.3112 40.1173 31.1802 40.1173C30.1383 40.1173 29.2166 39.9231 28.4152 39.5347V37.628C29.0742 37.9193 29.6307 38.1245 30.0849 38.2437C30.5435 38.3629 30.9621 38.4224 31.3405 38.4224C31.7947 38.4224 32.142 38.3364 32.3825 38.1642C32.6273 37.9921 32.7498 37.7361 32.7498 37.3963C32.7498 37.2065 32.6964 37.0387 32.5895 36.8931C32.4826 36.743 32.3246 36.5996 32.1153 36.4628C31.9105 36.3259 31.4897 36.1075 30.853 35.8073C30.2563 35.5293 29.8088 35.2622 29.5105 35.0062C29.2122 34.7502 28.974 34.4523 28.7959 34.1125C28.6178 33.7726 28.5287 33.3754 28.5287 32.9208C28.5287 32.0645 28.8204 31.3914 29.4036 30.9015C29.9914 30.4116 30.8018 30.1666 31.8348 30.1666C32.3424 30.1666 32.8255 30.2262 33.2841 30.3454C33.7472 30.4646 34.2303 30.6323 34.7334 30.8485L34.0655 32.4441C33.5446 32.2322 33.1127 32.0844 32.7698 32.0005C32.4314 31.9167 32.0975 31.8747 31.768 31.8747C31.3762 31.8747 31.0756 31.9652 30.8663 32.1462C30.6571 32.3271 30.5524 32.5633 30.5524 32.8546C30.5524 33.0355 30.5947 33.1944 30.6793 33.3312C30.7639 33.4637 30.8975 33.5939 31.0801 33.7219C31.2671 33.8454 31.7057 34.0705 32.3958 34.3972C33.3086 34.8297 33.9342 35.2644 34.2726 35.7014C34.611 36.1339 34.7802 36.6658 34.7802 37.2969Z" fill="#8E949C"/>
</g>
<defs>
<clipPath id="clip0">
<rect width="48" height="64" fill="white"/>
</clipPath>
</defs>
</svg>
