<svg width="48" height="64" viewBox="0 0 48 64" fill="none" xmlns="http://www.w3.org/2000/svg">
<path d="M38.1957 63.5H9.82357C7.3494 63.5 4.97744 62.5257 3.22926 60.7928C1.48123 59.0601 0.5 56.7109 0.5 54.2623V9.73767C0.5 7.28911 1.48123 4.93994 3.22926 3.2072C4.97744 1.47431 7.3494 0.5 9.82357 0.5H34.2438L47.5 13.6994V54.2623C47.5 56.7076 46.5214 59.0539 44.7776 60.786C43.0336 62.5184 40.6666 63.4949 38.1957 63.5Z" fill="#1E2A3A" stroke="#8E949C"/>
<path d="M47.9982 13.4984H37.2397C36.5042 13.4966 35.7994 13.2058 35.2799 12.6896C34.7605 12.1734 34.4687 11.4741 34.4688 10.745V0" fill="#8E949C"/>
<path d="M21.4933 39.9849H14.2266V38.6542L18.9085 32.0005H14.3535V30.3057H21.3664V31.6298L16.6911 38.29H21.4933V39.9849Z" fill="#8E949C"/>
<path d="M23.0494 39.9849V30.3057H25.1199V39.9849H23.0494Z" fill="#8E949C"/>
<path d="M29.6482 34.8606H30.3295C30.9662 34.8606 31.4426 34.737 31.7588 34.4898C32.0749 34.2383 32.233 33.8741 32.233 33.3975C32.233 32.9164 32.0994 32.5611 31.8323 32.3315C31.5695 32.102 31.1555 31.9873 30.59 31.9873H29.6482V34.8606ZM34.3235 33.3246C34.3235 34.3663 33.994 35.1629 33.335 35.7146C32.6805 36.2664 31.7477 36.5422 30.5365 36.5422H29.6482V39.9849H27.5778V30.3057H30.6968C31.8812 30.3057 32.7807 30.5595 33.3951 31.067C34.014 31.5702 34.3235 32.3227 34.3235 33.3246Z" fill="#8E949C"/>
</svg>
