<svg width="152" height="40" viewBox="0 0 152 40" fill="none" xmlns="http://www.w3.org/2000/svg">
<path d="M65.36 10.28C66.288 11.08 66.752 12.12 66.752 13.4C66.752 14.68 66.288 15.72 65.36 16.52C64.432 17.32 63.1893 17.7947 61.632 17.944V19.24H59.472V17.944C57.904 17.784 56.6613 17.3093 55.744 16.52C54.8267 15.72 54.368 14.68 54.368 13.4C54.368 12.12 54.8267 11.0853 55.744 10.296C56.6613 9.496 57.904 9.016 59.472 8.856V7.56H61.632V8.856C63.1893 9.00533 64.432 9.48 65.36 10.28ZM61.632 15.928C63.5733 15.704 64.544 14.8613 64.544 13.4C64.544 11.928 63.5733 11.08 61.632 10.856V15.928ZM56.56 13.4C56.56 14.8613 57.5307 15.6987 59.472 15.912V10.872C57.5307 11.0853 56.56 11.928 56.56 13.4ZM78.0734 17.544C76.9427 18.664 75.5667 19.224 73.9454 19.224C72.324 19.224 70.948 18.664 69.8174 17.544C68.6974 16.4133 68.1374 15.032 68.1374 13.4C68.1374 11.768 68.6974 10.392 69.8174 9.272C70.948 8.14133 72.324 7.576 73.9454 7.576C75.5667 7.576 76.9427 8.14133 78.0734 9.272C79.204 10.392 79.7694 11.768 79.7694 13.4C79.7694 15.032 79.204 16.4133 78.0734 17.544ZM71.3694 16.04C72.0627 16.7227 72.9214 17.064 73.9454 17.064C74.9694 17.064 75.828 16.7227 76.5214 16.04C77.2147 15.3467 77.5614 14.4667 77.5614 13.4C77.5614 12.3333 77.2147 11.4533 76.5214 10.76C75.828 10.0667 74.9694 9.72 73.9454 9.72C72.9214 9.72 72.0627 10.0667 71.3694 10.76C70.676 11.4533 70.3294 12.3333 70.3294 13.4C70.3294 14.4667 70.676 15.3467 71.3694 16.04ZM88.1893 7.8H90.3813V19H88.1893V14.36H84.0293V19H81.8213V7.8H84.0293V12.248H88.1893V7.8ZM101.57 16.888H102.77V21.144H100.562V19H94.3699V21.144H92.1619V16.888H93.2499C93.8685 16.024 94.1779 14.76 94.1779 13.096V7.8H101.57V16.888ZM95.6179 16.888H99.3619V9.864H96.3859V13.128C96.3859 14.7493 96.1299 16.0027 95.6179 16.888ZM113.995 17.544C112.865 18.664 111.489 19.224 109.867 19.224C108.246 19.224 106.87 18.664 105.739 17.544C104.619 16.4133 104.059 15.032 104.059 13.4C104.059 11.768 104.619 10.392 105.739 9.272C106.87 8.14133 108.246 7.576 109.867 7.576C111.489 7.576 112.865 8.14133 113.995 9.272C115.126 10.392 115.691 11.768 115.691 13.4C115.691 15.032 115.126 16.4133 113.995 17.544ZM107.291 16.04C107.985 16.7227 108.843 17.064 109.867 17.064C110.891 17.064 111.75 16.7227 112.443 16.04C113.137 15.3467 113.483 14.4667 113.483 13.4C113.483 12.3333 113.137 11.4533 112.443 10.76C111.75 10.0667 110.891 9.72 109.867 9.72C108.843 9.72 107.985 10.0667 107.291 10.76C106.598 11.4533 106.251 12.3333 106.251 13.4C106.251 14.4667 106.598 15.3467 107.291 16.04ZM124.511 13.192C125.492 13.7573 125.983 14.6107 125.983 15.752C125.983 16.7013 125.647 17.48 124.975 18.088C124.303 18.696 123.476 19 122.495 19H117.743V7.8H122.159C123.119 7.8 123.924 8.09867 124.575 8.696C125.236 9.28267 125.567 10.0347 125.567 10.952C125.567 11.88 125.215 12.6267 124.511 13.192ZM122.159 9.864H119.951V12.328H122.159C122.5 12.328 122.783 12.2107 123.007 11.976C123.242 11.7413 123.359 11.448 123.359 11.096C123.359 10.744 123.247 10.4507 123.023 10.216C122.799 9.98133 122.511 9.864 122.159 9.864ZM122.495 16.936C122.868 16.936 123.178 16.8133 123.423 16.568C123.668 16.312 123.791 15.992 123.791 15.608C123.791 15.2347 123.668 14.9253 123.423 14.68C123.178 14.424 122.868 14.296 122.495 14.296H119.951V16.936H122.495ZM127.931 19V7.8H130.139V11.48H132.107C133.184 11.48 134.091 11.8427 134.827 12.568C135.563 13.2933 135.931 14.184 135.931 15.24C135.931 16.296 135.563 17.1867 134.827 17.912C134.091 18.6373 133.184 19 132.107 19H127.931ZM136.955 19V7.8H139.147V19H136.955ZM130.139 16.936H132.107C132.576 16.936 132.965 16.776 133.275 16.456C133.584 16.136 133.739 15.7307 133.739 15.24C133.739 14.7493 133.584 14.344 133.275 14.024C132.965 13.704 132.576 13.544 132.107 13.544H130.139V16.936ZM143.744 6.776V4.984H148.384V6.776H143.744ZM148.208 19V12.168L143.408 19H141.728V7.8H143.936V14.648L148.736 7.8H150.416V19H148.208Z" fill="#EBF0F8"/>
<path d="M59.98 32H58.61L55.85 28.67V32H54.7V25H55.85V28.14L58.51 25H59.88L57.05 28.41L59.98 32ZM74.3319 32L73.8419 30.59H70.8619L70.3719 32H69.1219L71.6619 25H73.0419L75.5719 32H74.3319ZM71.2419 29.51H73.4619L72.3519 26.35L71.2419 29.51ZM90.3746 25V32H89.2246V26.1H86.3746V32H85.2246V25H90.3746ZM104.877 32V27.25L101.577 32H100.677V25H101.827V29.75L105.127 25H106.027V32H104.877ZM120.875 25V26.1H118.905V32H117.755V26.1H115.775V25H120.875ZM134.688 32L134.198 30.59H131.218L130.728 32H129.478L132.018 25H133.398L135.928 32H134.688ZM131.598 29.51H133.818L132.708 26.35L131.598 29.51ZM145.059 32V30.94C145.499 31 145.826 30.8933 146.039 30.62C146.259 30.3467 146.369 29.8233 146.369 29.05V25H151.059V32H149.909V26.1H147.519V29.03C147.519 29.6433 147.453 30.16 147.319 30.58C147.193 31 147.009 31.3167 146.769 31.53C146.529 31.7367 146.269 31.8767 145.989 31.95C145.716 32.0167 145.406 32.0333 145.059 32Z" fill="#EBF0F8"/>
<path fill-rule="evenodd" clip-rule="evenodd" d="M15.3502 2.73193C18.3862 2.73193 21.354 3.63221 23.8784 5.31891C26.4027 7.00562 28.3702 9.403 29.532 12.2079C30.6938 15.0128 30.9978 18.0992 30.4055 21.0769C29.8132 24.0545 28.3513 26.7897 26.2045 28.9364C24.0577 31.0832 21.3226 32.5452 18.3449 33.1375C15.3673 33.7297 12.2808 33.4258 9.47595 32.2639C6.67106 31.1021 4.27369 29.1346 2.58698 26.6103C0.900275 24.086 0 21.1182 0 18.0822C0 14.011 1.61725 10.1066 4.49598 7.22791C7.37471 4.34919 11.2791 2.73193 15.3502 2.73193Z" fill="#E31E24"/>
<path d="M10.9357 -7.64229e-05L9.44092 0.431641L20.8692 39.9999L22.364 39.5682L10.9357 -7.64229e-05Z" fill="black"/>
<path d="M27.8558 1.63629L17.3359 18.0542L33.7539 28.5741L44.2738 12.1562L27.8558 1.63629Z" fill="black"/>
</svg>
