<svg width="54" height="48" viewBox="0 0 54 48" fill="none" xmlns="http://www.w3.org/2000/svg">
<path fill-rule="evenodd" clip-rule="evenodd" d="M18.4196 3.27832C22.0627 3.27832 25.6239 4.35861 28.653 6.38258C31.6821 8.40656 34.043 11.2833 35.4371 14.649C36.8312 18.0148 37.196 21.7184 36.4853 25.2914C35.7746 28.8645 34.0203 32.1465 31.4442 34.7226C28.8682 37.2986 25.5861 39.0529 22.0131 39.7636C18.44 40.4743 14.7365 40.1096 11.3707 38.7154C8.00499 37.3213 5.12824 34.9604 3.10426 31.9313C1.08029 28.9022 0 25.341 0 21.6979C0 16.8127 1.94063 12.1276 5.39498 8.6733C8.84932 5.21895 13.5344 3.27832 18.4196 3.27832Z" fill="#E31E24"/>
<path d="M13.1222 2.48894e-05L11.3286 0.518066L25.0421 47.9983L26.8357 47.4802L13.1222 2.48894e-05Z" fill="black"/>
<path d="M33.4262 1.96329L20.8027 21.6641L40.5035 34.2875L53.127 14.5867L33.4262 1.96329Z" fill="black"/>
</svg>
