<svg width="327" height="48" viewBox="0 0 327 48" fill="none" xmlns="http://www.w3.org/2000/svg">
<path fill-rule="evenodd" clip-rule="evenodd" d="M18.4196 3.27832C22.0627 3.27832 25.6239 4.35861 28.653 6.38258C31.6821 8.40656 34.043 11.2833 35.4371 14.649C36.8312 18.0148 37.196 21.7184 36.4853 25.2914C35.7746 28.8645 34.0203 32.1465 31.4442 34.7226C28.8682 37.2986 25.5861 39.0529 22.0131 39.7636C18.44 40.4743 14.7365 40.1096 11.3707 38.7154C8.00499 37.3213 5.12824 34.9604 3.10426 31.9313C1.08029 28.9022 0 25.341 0 21.6979C0 16.8127 1.94063 12.1276 5.39498 8.6733C8.84932 5.21895 13.5344 3.27832 18.4196 3.27832Z" fill="#E31E24"/>
<path d="M13.1227 2.48894e-05L11.3291 0.518066L25.0426 47.9983L26.8362 47.4802L13.1227 2.48894e-05Z" fill="black"/>
<path d="M33.4262 1.96329L20.8027 21.6641L40.5035 34.2875L53.127 14.5867L33.4262 1.96329Z" fill="black"/>
<path d="M82.04 11.92C83.432 13.12 84.128 14.68 84.128 16.6C84.128 18.52 83.432 20.08 82.04 21.28C80.648 22.48 78.784 23.192 76.448 23.416V25.36H73.208V23.416C70.856 23.176 68.992 22.464 67.616 21.28C66.24 20.08 65.552 18.52 65.552 16.6C65.552 14.68 66.24 13.128 67.616 11.944C68.992 10.744 70.856 10.024 73.208 9.784V7.84H76.448V9.784C78.784 10.008 80.648 10.72 82.04 11.92ZM76.448 20.392C79.36 20.056 80.816 18.792 80.816 16.6C80.816 14.392 79.36 13.12 76.448 12.784V20.392ZM68.84 16.6C68.84 18.792 70.296 20.048 73.208 20.368V12.808C70.296 13.128 68.84 14.392 68.84 16.6ZM100.86 22.816C99.1641 24.496 97.1001 25.336 94.6681 25.336C92.2361 25.336 90.1721 24.496 88.4761 22.816C86.7961 21.12 85.9561 19.048 85.9561 16.6C85.9561 14.152 86.7961 12.088 88.4761 10.408C90.1721 8.712 92.2361 7.864 94.6681 7.864C97.1001 7.864 99.1641 8.712 100.86 10.408C102.556 12.088 103.404 14.152 103.404 16.6C103.404 19.048 102.556 21.12 100.86 22.816ZM90.8041 20.56C91.8441 21.584 93.1321 22.096 94.6681 22.096C96.2041 22.096 97.4921 21.584 98.5321 20.56C99.5721 19.52 100.092 18.2 100.092 16.6C100.092 15 99.5721 13.68 98.5321 12.64C97.4921 11.6 96.2041 11.08 94.6681 11.08C93.1321 11.08 91.8441 11.6 90.8041 12.64C89.7641 13.68 89.2441 15 89.2441 16.6C89.2441 18.2 89.7641 19.52 90.8041 20.56ZM115.784 8.2H119.072V25H115.784V18.04H109.544V25H106.232V8.2H109.544V14.872H115.784V8.2ZM135.605 21.832H137.405V28.216H134.093V25H124.805V28.216H121.493V21.832H123.125C124.053 20.536 124.517 18.64 124.517 16.144V8.2H135.605V21.832ZM126.677 21.832H132.293V11.296H127.829V16.192C127.829 18.624 127.445 20.504 126.677 21.832ZM153.993 22.816C152.297 24.496 150.233 25.336 147.801 25.336C145.369 25.336 143.305 24.496 141.609 22.816C139.929 21.12 139.089 19.048 139.089 16.6C139.089 14.152 139.929 12.088 141.609 10.408C143.305 8.712 145.369 7.864 147.801 7.864C150.233 7.864 152.297 8.712 153.993 10.408C155.689 12.088 156.537 14.152 156.537 16.6C156.537 19.048 155.689 21.12 153.993 22.816ZM143.937 20.56C144.977 21.584 146.265 22.096 147.801 22.096C149.337 22.096 150.625 21.584 151.665 20.56C152.705 19.52 153.225 18.2 153.225 16.6C153.225 15 152.705 13.68 151.665 12.64C150.625 11.6 149.337 11.08 147.801 11.08C146.265 11.08 144.977 11.6 143.937 12.64C142.897 13.68 142.377 15 142.377 16.6C142.377 18.2 142.897 19.52 143.937 20.56ZM169.517 16.288C170.989 17.136 171.725 18.416 171.725 20.128C171.725 21.552 171.221 22.72 170.213 23.632C169.205 24.544 167.965 25 166.493 25H159.365V8.2H165.989C167.429 8.2 168.637 8.648 169.613 9.544C170.605 10.424 171.101 11.552 171.101 12.928C171.101 14.32 170.573 15.44 169.517 16.288ZM165.989 11.296H162.677V14.992H165.989C166.501 14.992 166.925 14.816 167.261 14.464C167.613 14.112 167.789 13.672 167.789 13.144C167.789 12.616 167.621 12.176 167.285 11.824C166.949 11.472 166.517 11.296 165.989 11.296ZM166.493 21.904C167.053 21.904 167.517 21.72 167.885 21.352C168.253 20.968 168.437 20.488 168.437 19.912C168.437 19.352 168.253 18.888 167.885 18.52C167.517 18.136 167.053 17.944 166.493 17.944H162.677V21.904H166.493ZM174.396 25V8.2H177.708V13.72H180.66C182.276 13.72 183.636 14.264 184.74 15.352C185.844 16.44 186.396 17.776 186.396 19.36C186.396 20.944 185.844 22.28 184.74 23.368C183.636 24.456 182.276 25 180.66 25H174.396ZM187.932 25V8.2H191.22V25H187.932ZM177.708 21.904H180.66C181.364 21.904 181.948 21.664 182.412 21.184C182.876 20.704 183.108 20.096 183.108 19.36C183.108 18.624 182.876 18.016 182.412 17.536C181.948 17.056 181.364 16.816 180.66 16.816H177.708V21.904ZM197.865 6.664V3.976H204.825V6.664H197.865ZM204.561 25V14.752L197.361 25H194.841V8.2H198.153V18.472L205.353 8.2H207.873V25H204.561ZM231.118 25H227.302L221.302 17.128V25H217.99V8.2H221.302V15.616L227.062 8.2H230.878L224.662 16.36L231.118 25ZM244.477 25L243.469 21.976H236.773L235.765 25H232.189L238.069 8.2H242.173L248.077 25H244.477ZM237.829 18.88H242.437L240.133 12.016L237.829 18.88ZM262.76 8.2V25H259.448V11.368H253.52V25H250.208V8.2H262.76ZM276.108 25V14.752L268.908 25H266.388V8.2H269.7V18.472L276.9 8.2H279.42V25H276.108ZM294.149 8.2V11.368H289.613V25H286.301V11.368H281.789V8.2H294.149ZM306.079 25L305.071 21.976H298.375L297.367 25H293.791L299.671 8.2H303.775L309.679 25H306.079ZM299.431 18.88H304.039L301.735 12.016L299.431 18.88ZM310.702 25V21.928C311.694 22.072 312.438 21.872 312.934 21.328C313.43 20.784 313.678 19.72 313.678 18.136V8.2H325.102V25H321.814V11.368H316.966V18.04C316.966 19.496 316.79 20.72 316.438 21.712C316.086 22.704 315.598 23.44 314.974 23.92C314.366 24.4 313.71 24.72 313.006 24.88C312.318 25.04 311.55 25.08 310.702 25Z" fill="#EBF0F8"/>
<path d="M71.63 41V34.214L66.95 41H65.975V31.9H67.184V38.699L71.864 31.9H72.839V41H71.63ZM83.5145 31.9H84.7105V41H83.5145V36.905H79.0945V41H77.8855V31.9H79.0945V35.761H83.5145V31.9ZM94.958 36.281C95.374 36.4803 95.7033 36.7663 95.946 37.139C96.1973 37.5117 96.323 37.9407 96.323 38.426C96.323 39.154 96.0673 39.765 95.556 40.259C95.0447 40.753 94.4207 41 93.684 41H89.758V31.9H93.398C94.1087 31.9 94.711 32.1383 95.205 32.615C95.699 33.0917 95.946 33.681 95.946 34.383C95.946 35.189 95.6167 35.8217 94.958 36.281ZM93.398 33.031H90.967V35.813H93.398C93.7793 35.813 94.1 35.6787 94.36 35.41C94.62 35.1413 94.75 34.812 94.75 34.422C94.75 34.0407 94.6157 33.7157 94.347 33.447C94.087 33.1697 93.7707 33.031 93.398 33.031ZM93.684 39.869C94.0913 39.869 94.4337 39.726 94.711 39.44C94.9883 39.154 95.127 38.803 95.127 38.387C95.127 37.9797 94.984 37.633 94.698 37.347C94.4207 37.061 94.0827 36.918 93.684 36.918H90.967V39.869H93.684ZM102.065 39.856H106.29V41H100.856V31.9H106.225V33.044H102.065V35.839H105.9V36.97H102.065V39.856ZM115.063 41.169C113.685 41.169 112.545 40.714 111.644 39.804C110.751 38.894 110.305 37.776 110.305 36.45C110.305 35.124 110.751 34.006 111.644 33.096C112.545 32.186 113.685 31.731 115.063 31.731C115.895 31.731 116.658 31.9303 117.351 32.329C118.053 32.7277 118.599 33.265 118.989 33.941L117.936 34.552C117.676 34.0493 117.286 33.6507 116.766 33.356C116.255 33.0527 115.687 32.901 115.063 32.901C114.014 32.901 113.156 33.239 112.489 33.915C111.83 34.591 111.501 35.436 111.501 36.45C111.501 37.4553 111.83 38.296 112.489 38.972C113.156 39.648 114.014 39.986 115.063 39.986C115.687 39.986 116.255 39.8387 116.766 39.544C117.286 39.2407 117.676 38.842 117.936 38.348L118.989 38.946C118.608 39.622 118.066 40.1637 117.364 40.571C116.662 40.9697 115.895 41.169 115.063 41.169ZM129.181 31.9V33.044H126.49V41H125.294V33.044H122.616V31.9H129.181ZM139.132 41V34.214L134.452 41H133.477V31.9H134.686V38.699L139.366 31.9H140.341V41H139.132ZM151.992 39.856H152.967V42.742H151.758V41H145.388V31.9H146.597V39.856H150.783V31.9H151.992V39.856ZM163.118 41V34.214L158.438 41H157.463V31.9H158.672V38.699L163.352 31.9H164.327V41H163.118ZM176.94 39.791C176.03 40.7097 174.916 41.169 173.599 41.169C172.282 41.169 171.168 40.7097 170.258 39.791C169.348 38.8723 168.893 37.7587 168.893 36.45C168.893 35.1327 169.348 34.019 170.258 33.109C171.168 32.1903 172.282 31.731 173.599 31.731C174.916 31.731 176.03 32.1903 176.94 33.109C177.859 34.019 178.318 35.1327 178.318 36.45C178.318 37.7587 177.859 38.8723 176.94 39.791ZM171.09 38.972C171.766 39.648 172.602 39.986 173.599 39.986C174.596 39.986 175.428 39.648 176.095 38.972C176.771 38.2873 177.109 37.4467 177.109 36.45C177.109 35.4447 176.771 34.604 176.095 33.928C175.428 33.2433 174.596 32.901 173.599 32.901C172.602 32.901 171.766 33.2433 171.09 33.928C170.423 34.604 170.089 35.4447 170.089 36.45C170.089 37.4467 170.423 38.2873 171.09 38.972ZM188.5 31.9H189.696V41H188.5V36.905H184.08V41H182.871V31.9H184.08V35.761H188.5V31.9ZM200.373 31.9H201.569V41H200.373V36.905H195.953V41H194.744V31.9H195.953V35.761H200.373V31.9ZM212.609 41L211.868 38.959H207.773L207.032 41H205.745L209.138 31.9H210.503L213.896 41H212.609ZM208.189 37.828H211.452L209.814 33.343L208.189 37.828ZM224.231 31.9V41H223.035V37.516H221.228L218.875 41H217.51L219.928 37.438C219.304 37.2907 218.788 36.9613 218.381 36.45C217.974 35.9387 217.77 35.3623 217.77 34.721C217.77 33.941 218.043 33.278 218.589 32.732C219.144 32.1773 219.811 31.9 220.591 31.9H224.231ZM220.591 36.424H223.035V33.031H220.591C220.149 33.031 219.768 33.1957 219.447 33.525C219.126 33.8543 218.966 34.253 218.966 34.721C218.966 35.189 219.126 35.592 219.447 35.93C219.768 36.2593 220.149 36.424 220.591 36.424ZM242.249 41H240.767L236.841 36.632V41H235.632V31.9H236.841V36.008L240.637 31.9H242.119L238.102 36.32L242.249 41ZM253.217 39.791C252.307 40.7097 251.194 41.169 249.876 41.169C248.559 41.169 247.445 40.7097 246.535 39.791C245.625 38.8723 245.17 37.7587 245.17 36.45C245.17 35.1327 245.625 34.019 246.535 33.109C247.445 32.1903 248.559 31.731 249.876 31.731C251.194 31.731 252.307 32.1903 253.217 33.109C254.136 34.019 254.595 35.1327 254.595 36.45C254.595 37.7587 254.136 38.8723 253.217 39.791ZM247.367 38.972C248.043 39.648 248.88 39.986 249.876 39.986C250.873 39.986 251.705 39.648 252.372 38.972C253.048 38.2873 253.386 37.4467 253.386 36.45C253.386 35.4447 253.048 34.604 252.372 33.928C251.705 33.2433 250.873 32.901 249.876 32.901C248.88 32.901 248.043 33.2433 247.367 33.928C246.7 34.604 246.366 35.4447 246.366 36.45C246.366 37.4467 246.7 38.2873 247.367 38.972ZM267.664 31.9V41H266.468V33.889L263.491 38.842H263.335L260.358 33.902V41H259.149V31.9H260.514L263.413 36.71L266.299 31.9H267.664ZM279.314 31.9V41H278.105V33.044H273.919V41H272.71V31.9H279.314ZM290.359 41L289.618 38.959H285.523L284.782 41H283.495L286.888 31.9H288.253L291.646 41H290.359ZM285.939 37.828H289.202L287.564 33.343L285.939 37.828ZM301.449 31.9H302.645V41H301.449V36.905H297.029V41H295.82V31.9H297.029V35.761H301.449V31.9ZM313.347 41V34.214L308.667 41H307.692V31.9H308.901V38.699L313.581 31.9H314.556V41H313.347ZM325.726 31.9V41H324.53V37.516H322.723L320.37 41H319.005L321.423 37.438C320.799 37.2907 320.283 36.9613 319.876 36.45C319.468 35.9387 319.265 35.3623 319.265 34.721C319.265 33.941 319.538 33.278 320.084 32.732C320.638 32.1773 321.306 31.9 322.086 31.9H325.726ZM322.086 36.424H324.53V33.031H322.086C321.644 33.031 321.262 33.1957 320.942 33.525C320.621 33.8543 320.461 34.253 320.461 34.721C320.461 35.189 320.621 35.592 320.942 35.93C321.262 36.2593 321.644 36.424 322.086 36.424Z" fill="#EBF0F8"/>
</svg>
