<?xml version="1.0" encoding="UTF-8"?>
<!DOCTYPE svg PUBLIC "-//W3C//DTD SVG 1.1//EN" "http://www.w3.org/Graphics/SVG/1.1/DTD/svg11.dtd">
<!-- Creator: CorelDRAW -->
<svg xmlns="http://www.w3.org/2000/svg" xml:space="preserve" width="162.719mm" height="188.548mm" style="shape-rendering:geometricPrecision; text-rendering:geometricPrecision; image-rendering:optimizeQuality; fill-rule:evenodd; clip-rule:evenodd"
viewBox="0 0 162.719 188.548"
 xmlns:xlink="http://www.w3.org/1999/xlink">
 <defs>
  <style type="text/css">
   <![CDATA[
    .fil9 {fill:none}
    .fil0 {fill:#FFC75A;fill-opacity:0.000000}
    .fil1 {fill:#0E161D}
    .fil3 {fill:#EBF0F8}
    .fil2 {fill:url(#id2)}
    .fil8 {fill:url(#id3)}
    .fil5 {fill:url(#id4)}
    .fil7 {fill:url(#id5)}
    .fil6 {fill:url(#id6)}
    .fil4 {fill:url(#id7)}
   ]]>
  </style>
   <clipPath id="id0">
    <path d="M0.0001 -0.05l162.719 0 0 188.648 -162.719 0 0 -188.648z"/>
   </clipPath>
   <clipPath id="id1">
    <path d="M0.0001 -0.05l162.719 0 0 188.648 -162.719 0 0 -188.648z"/>
   </clipPath>
  <linearGradient id="id2" gradientUnits="userSpaceOnUse" x1="-40.5049" y1="123.935" x2="-11.0107" y2="172.199">
   <stop offset="0" style="stop-color:#8EC5FC"/>
   <stop offset="0.0901961" style="stop-color:#8EC5FC"/>
   <stop offset="1" style="stop-color:#E0C3FC"/>
  </linearGradient>
  <linearGradient id="id3" gradientUnits="userSpaceOnUse" xlink:href="#id2" x1="103.873" y1="112.069" x2="133.368" y2="160.332">
  </linearGradient>
  <linearGradient id="id4" gradientUnits="userSpaceOnUse" xlink:href="#id2" x1="123.556" y1="29.2143" x2="153.051" y2="77.4779">
  </linearGradient>
  <linearGradient id="id5" gradientUnits="userSpaceOnUse" xlink:href="#id2" x1="161.639" y1="150.208" x2="191.133" y2="198.471">
  </linearGradient>
  <linearGradient id="id6" gradientUnits="userSpaceOnUse" xlink:href="#id2" x1="41.5254" y1="76.5747" x2="71.0204" y2="124.838">
  </linearGradient>
  <linearGradient id="id7" gradientUnits="userSpaceOnUse" xlink:href="#id2" x1="23.4513" y1="159.911" x2="49.7289" y2="207.211">
  </linearGradient>
 </defs>
 <g id="Слой_x0020_1">
  <metadata id="CorelCorpID_0Corel-Layer"/>
  <g style="clip-path:url(#id0)">
   <polygon class="fil0" points="0.0001,-0.05 162.719,-0.05 162.719,188.598 0.0001,188.598 "/>
  </g>
  <g style="clip-path:url(#id1)">
   <g id="_228829856">
    <path id="_2288397201" class="fil1" d="M-74.3558 142.076l67.8241 -39.1583c1.8982,-1.096 4.3257,-0.4454 5.4216,1.4524l22.7542 39.4115c1.0958,1.8978 0.4453,4.3256 -1.4526,5.4214l-67.8243 39.1584c-1.8978,1.0958 -4.3256,0.4453 -5.4214,-1.4527l-22.7543 -39.4113c-1.0957,-1.8981 -0.4451,-4.326 1.4527,-5.4215z"/>
    <path id="_228842360" class="fil2" d="M-57.936 165.036l0.22 -0.127 1.4814 2.5664 -0.2566 0.1482 -1.3187 -2.2839 -0.4761 0.5046 -0.1929 -0.1819 0.5429 -0.6264zm3.5155 1.3921l-0.1332 -0.2312 0.3864 -1.4644c0.1113,-0.4165 0.113,-0.719 0.0041,-0.9069 -0.0945,-0.1639 -0.219,-0.2612 -0.3742,-0.2925 -0.1536,-0.0349 -0.3016,-0.0115 -0.4433,0.0704 -0.2637,0.1524 -0.3857,0.3839 -0.3661,0.695l-0.2905 -0.0033c-0.0106,-0.2054 0.0301,-0.3887 0.1229,-0.5498 0.0913,-0.1636 0.2211,-0.2939 0.3898,-0.3913 0.2053,-0.1186 0.4251,-0.1526 0.6596,-0.1023 0.2355,0.0467 0.4217,0.1885 0.5587,0.4254 0.086,0.1494 0.1268,0.3163 0.1227,0.501 -0.0038,0.1848 -0.038,0.3968 -0.1018,0.6359l-0.3123 1.153 1.2649 -0.7303 0.1441 0.2493 -1.6318 0.942zm3.342 -3.9288c0.221,-0.0916 0.4353,-0.1093 0.6433,-0.054 0.2094,0.0524 0.3761,0.1854 0.5001,0.4007 0.1415,0.2445 0.1683,0.4862 0.0817,0.7256 -0.0859,0.2351 -0.2485,0.4219 -0.4881,0.5601 -0.1908,0.1101 -0.3861,0.1643 -0.5857,0.1624 -0.2,-0.0021 -0.3776,-0.0672 -0.5336,-0.1959l0.1409 -0.2471c0.1148,0.1031 0.2453,0.1562 0.3908,0.1604 0.1442,0.0013 0.292,-0.0414 0.4437,-0.1291 0.1759,-0.1016 0.2934,-0.2311 0.3522,-0.3889 0.0597,-0.1616 0.0403,-0.3281 -0.0586,-0.4993 -0.0986,-0.171 -0.2324,-0.2701 -0.401,-0.2963 -0.1672,-0.0304 -0.339,0.0049 -0.5151,0.1065l-0.0018 -0.0036 -0.0019 0.0058 -0.0694 0.0403 -0.2074 -0.1052 0.1342 -1.2409 -1.2064 0.6965 -0.1396 -0.2419 1.503 -0.868 0.1397 0.242 -0.121 1.1699zm4.7301 -1.7388l0.1397 0.2422 -0.3299 0.1906 0.2962 0.5132 -0.2567 0.148 -0.2963 -0.5131 -1.3564 0.7832 -0.1396 -0.2423 -0.0924 -2.3612 0.2823 -0.1631 0.0924 2.3612 1.074 -0.62 -0.4529 -0.7844 0.2567 -0.1484 0.4529 0.7846 0.33 -0.1905zm6.572 -4.8308c0.2397,-0.1384 0.4835,-0.1844 0.7317,-0.1387 0.2493,0.042 0.444,0.1855 0.5852,0.4296 0.1413,0.2445 0.1681,0.4863 0.0813,0.7257 -0.0856,0.2351 -0.2485,0.422 -0.488,0.5599 -0.193,0.1116 -0.3918,0.1645 -0.5971,0.1593 -0.2065,-0.008 -0.3875,-0.0843 -0.5433,-0.229l0.1448 -0.2496c0.1155,0.1156 0.2483,0.1791 0.3982,0.1902 0.1512,0.0074 0.3021,-0.0327 0.4538,-0.12 0.1758,-0.1017 0.2932,-0.2315 0.352,-0.389 0.0598,-0.1618 0.0405,-0.3281 -0.0583,-0.4993 -0.0987,-0.171 -0.2324,-0.2699 -0.4008,-0.2963 -0.1676,-0.0306 -0.3394,0.0051 -0.5154,0.1065l-0.6965 0.4022 -0.6492 -1.336 1.3749 -0.7936 0.1398 0.2418 -1.1475 0.6625 0.402 0.8237 0.4324 -0.2499zm3.287 -2.0542c0.252,-0.1452 0.5046,-0.1849 0.7575,-0.1192 0.2517,0.0632 0.4491,0.2197 0.5932,0.4687 0.1438,0.2494 0.1811,0.5003 0.1118,0.7521 -0.0712,0.2497 -0.2325,0.4471 -0.4843,0.5924 -0.2517,0.1452 -0.5034,0.1865 -0.7548,0.1231 -0.2534,-0.0658 -0.4518,-0.2232 -0.5958,-0.4727 -0.1111,-0.1928 -0.1575,-0.3945 -0.1386,-0.6043l0.1177 -1.7346 0.2897 -0.1673 -0.0889 1.3027c0.0578,-0.0529 0.1215,-0.0998 0.1925,-0.1409zm0.2989 1.5336c0.1758,0.0452 0.3546,0.0154 0.5351,-0.0889 0.1812,-0.1045 0.2946,-0.2433 0.3412,-0.4171 0.0487,-0.1747 0.0221,-0.3512 -0.0812,-0.5297 -0.1029,-0.1784 -0.2423,-0.29 -0.4186,-0.3355 -0.1734,-0.0463 -0.3505,-0.0173 -0.5313,0.0872 -0.1806,0.1042 -0.2958,0.2439 -0.3447,0.4188 -0.0464,0.1736 -0.0181,0.3495 0.0851,0.5279 0.1027,0.1786 0.2409,0.291 0.4144,0.3373zm1.4819 -3.7834l1.5765 -0.9103 0.1397 0.242 0.3739 2.8832 -0.2677 0.1546 -0.3737 -2.8832 -1.3089 0.7557 -0.1398 -0.242zm5.1818 -1.3348c0.1649,-0.0137 0.3168,0.0127 0.456,0.0791 0.1406,0.0622 0.2509,0.1632 0.3311,0.3023 0.1343,0.2323 0.1575,0.4617 0.0697,0.6882 -0.0887,0.2241 -0.2556,0.4066 -0.4998,0.5477 -0.2443,0.1412 -0.486,0.1942 -0.7245,0.1592 -0.24,-0.0372 -0.4268,-0.1722 -0.561,-0.4044 -0.0804,-0.1394 -0.1138,-0.2845 -0.1001,-0.4358 0.0147,-0.1551 0.0692,-0.3007 0.1636,-0.4366 -0.3024,0.0015 -0.5267,-0.1246 -0.6734,-0.3786 -0.1327,-0.23 -0.1585,-0.4496 -0.0775,-0.6595 0.0832,-0.2108 0.2301,-0.3773 0.4404,-0.4986 0.2102,-0.1213 0.4265,-0.1646 0.6485,-0.1301 0.2243,0.0335 0.4031,0.1649 0.5356,0.3951 0.1468,0.2538 0.144,0.5111 -0.0086,0.772zm-0.5994 -0.8857c-0.1415,-0.0193 -0.2856,0.0135 -0.4322,0.0983 -0.1467,0.0844 -0.2483,0.1934 -0.3047,0.327 -0.0539,0.1324 -0.0357,0.2766 0.0544,0.4333 0.0848,0.1466 0.2005,0.2312 0.3472,0.2541 0.1493,0.0213 0.2948,-0.0089 0.4367,-0.0909 0.1414,-0.0817 0.2391,-0.1918 0.2931,-0.3306 0.0558,-0.1399 0.0416,-0.283 -0.0431,-0.4295 -0.0903,-0.1568 -0.2075,-0.2437 -0.3514,-0.2617zm0.3042 2.381c0.1581,0.0196 0.3273,-0.0228 0.5082,-0.1273 0.1808,-0.1042 0.3023,-0.23 0.3644,-0.3766 0.0605,-0.1489 0.045,-0.3028 -0.0467,-0.4619 -0.0917,-0.1588 -0.2168,-0.2479 -0.3748,-0.2675 -0.159,-0.0221 -0.3292,0.0191 -0.5101,0.1238 -0.1809,0.1041 -0.3016,0.2308 -0.3623,0.3801 -0.0619,0.1463 -0.047,0.2991 0.0447,0.4579 0.0915,0.159 0.2172,0.2495 0.3766,0.2715zm8.4033 -6.7631c0.1115,0.1932 0.1577,0.3948 0.1386,0.6043l-0.1178 1.735 -0.2895 0.1672 0.0887 -1.3026c-0.0576,0.0529 -0.1218,0.0998 -0.1927,0.1405 -0.2518,0.1455 -0.5034,0.1866 -0.7551,0.123 -0.2529,-0.0655 -0.4514,-0.2229 -0.5955,-0.4725 -0.1438,-0.2492 -0.1802,-0.4985 -0.1092,-0.7482 0.0695,-0.252 0.2303,-0.4507 0.482,-0.5958 0.2516,-0.1455 0.504,-0.1853 0.7572,-0.1198 0.2514,0.0636 0.4494,0.2197 0.5933,0.4689zm-1.5514 0.3189c-0.0466,0.1736 -0.0182,0.3493 0.0848,0.5279 0.1031,0.1784 0.2413,0.2911 0.4147,0.3374 0.1761,0.045 0.3545,0.0155 0.5351,-0.089 0.1812,-0.1045 0.2947,-0.2434 0.3412,-0.4168 0.0489,-0.1752 0.022,-0.3517 -0.0812,-0.5302 -0.103,-0.1782 -0.2424,-0.2899 -0.4184,-0.3352 -0.1734,-0.0464 -0.3506,-0.0174 -0.5315,0.0871 -0.1808,0.1046 -0.2955,0.2437 -0.3447,0.4188zm5.7429 -0.8077c-0.0303,0.3367 -0.1995,0.5938 -0.5073,0.7716 -0.308,0.1779 -0.6168,0.1968 -0.926,0.056 -0.3085,-0.1447 -0.579,-0.4185 -0.8118,-0.8221 -0.2331,-0.4034 -0.3341,-0.7731 -0.3037,-1.1102 0.0313,-0.3408 0.2008,-0.6 0.509,-0.7778 0.3078,-0.178 0.6161,-0.1943 0.9243,-0.0498 0.3093,0.1407 0.5805,0.4126 0.8134,0.8159 0.2329,0.4035 0.3336,0.7754 0.3021,1.1164zm-1.3425 0.5449c0.236,0.1148 0.4662,0.1075 0.6912,-0.0223 0.2248,-0.1299 0.3451,-0.3249 0.3612,-0.5849 0.0183,-0.2617 -0.0711,-0.5636 -0.2686,-0.9059 -0.1976,-0.3422 -0.4143,-0.5704 -0.6501,-0.6853 -0.2333,-0.1164 -0.4623,-0.1096 -0.6872,0.0203 -0.2249,0.1299 -0.3465,0.3254 -0.3649,0.5873 -0.0158,0.26 0.0748,0.5611 0.2722,0.9033 0.1978,0.3424 0.4131,0.5713 0.6462,0.6875zm2.5187 -4.2256l0.2203 -0.127 1.4814 2.5662 -0.2564 0.1482 -1.3189 -2.2839 -0.476 0.5046 -0.1929 -0.1817 0.5425 -0.6264zm3.516 1.3919l-0.1335 -0.2307 0.3863 -1.465c0.1116,-0.4161 0.1131,-0.7185 0.0044,-0.9066 -0.0943,-0.1638 -0.2194,-0.2615 -0.3742,-0.2924 -0.1536,-0.0351 -0.3013,-0.0116 -0.4435,0.0702 -0.2635,0.1523 -0.3859,0.384 -0.3657,0.6951l-0.2905 -0.0033c-0.0111,-0.2056 0.03,-0.3888 0.1226,-0.5499 0.0913,-0.1634 0.2213,-0.294 0.39,-0.3913 0.2052,-0.1185 0.4249,-0.1525 0.6595,-0.1021 0.2355,0.0466 0.4217,0.1884 0.5585,0.4255 0.0859,0.1491 0.1273,0.3158 0.1229,0.5008 -0.0039,0.1851 -0.0381,0.3969 -0.1019,0.6357l-0.3124 1.1529 1.2651 -0.7302 0.1438 0.2495 -1.6314 0.9418zm7.9601 -6.5952c0.2208,-0.0914 0.4354,-0.1096 0.6436,-0.0538 0.2092,0.0521 0.3759,0.1856 0.5001,0.4008 0.1412,0.2441 0.1682,0.486 0.0814,0.7251 -0.0857,0.2352 -0.2481,0.4221 -0.4878,0.5604 -0.1907,0.11 -0.3858,0.164 -0.5858,0.1622 -0.1999,-0.0017 -0.3778,-0.0673 -0.5334,-0.1957l0.1408 -0.2472c0.1149,0.1029 0.2451,0.1566 0.3909,0.1604 0.144,0.0016 0.292,-0.0417 0.4435,-0.129 0.1758,-0.1017 0.2932,-0.2315 0.3521,-0.3891 0.0599,-0.1617 0.0404,-0.3282 -0.0585,-0.4991 -0.0984,-0.1712 -0.2324,-0.2698 -0.4006,-0.2967 -0.1675,-0.0303 -0.3394,0.0055 -0.5155,0.1071l-0.0019 -0.0039 -0.0017 0.0059 -0.0696 0.0405 -0.2073 -0.1056 0.1342 -1.2406 -1.206 0.6964 -0.1398 -0.2421 1.5031 -0.8678 0.1395 0.2422 -0.1213 1.1696zm4.7303 -1.7384l0.1397 0.2416 -0.3299 0.1906 0.2963 0.5131 -0.2567 0.1483 -0.2961 -0.5132 -1.3566 0.7831 -0.1399 -0.2419 -0.0923 -2.3611 0.2824 -0.1632 0.0923 2.3614 1.0744 -0.6201 -0.4531 -0.7847 0.2566 -0.1481 0.4532 0.7844 0.3297 -0.1902zm1.9896 -2.1852c0.2397,-0.1382 0.4834,-0.1846 0.7314,-0.1387 0.2491,0.0421 0.4442,0.1851 0.5853,0.4296 0.141,0.2443 0.1683,0.4859 0.0816,0.7253 -0.0859,0.235 -0.2488,0.4218 -0.4881,0.5602 -0.1932,0.1116 -0.3923,0.1648 -0.5975,0.1591 -0.2064,-0.0075 -0.3875,-0.0842 -0.5428,-0.2291l0.1443 -0.2496c0.1157,0.1157 0.2487,0.1792 0.3984,0.1906 0.1508,0.0074 0.3022,-0.0327 0.4538,-0.1202 0.1758,-0.1016 0.2934,-0.2315 0.352,-0.3892 0.0598,-0.1614 0.0402,-0.328 -0.0585,-0.499 -0.0987,-0.1711 -0.2324,-0.2698 -0.4007,-0.2968 -0.1676,-0.0303 -0.3392,0.0055 -0.5153,0.1071l-0.6966 0.4021 -0.6492 -1.336 1.375 -0.7938 0.1394 0.242 -1.1474 0.6627 0.4023 0.8236 0.4326 -0.2499zm3.2869 -2.0542c0.2519,-0.1453 0.5043,-0.1851 0.7573,-0.1193 0.2517,0.0632 0.4494,0.2195 0.5931,0.469 0.1441,0.2492 0.1813,0.4995 0.1116,0.7519 -0.071,0.2495 -0.2323,0.4468 -0.4841,0.5923 -0.2516,0.1453 -0.5033,0.1862 -0.7549,0.1233 -0.253,-0.066 -0.4517,-0.2234 -0.5954,-0.4728 -0.1116,-0.1931 -0.1579,-0.3944 -0.1388,-0.6044l0.1176 -1.7348 0.2898 -0.1671 -0.0889 1.3025c0.0577,-0.0528 0.122,-0.0995 0.1927,-0.1406zm0.2988 1.5335c0.176,0.0452 0.3544,0.0155 0.5353,-0.089 0.1808,-0.1043 0.2944,-0.2434 0.3409,-0.4167 0.0489,-0.175 0.022,-0.3518 -0.081,-0.53 -0.1029,-0.1785 -0.2426,-0.2903 -0.4183,-0.3355 -0.1738,-0.0461 -0.3509,-0.0175 -0.5316,0.087 -0.181,0.1045 -0.2959,0.244 -0.3448,0.4191 -0.0465,0.1732 -0.0184,0.3495 0.0849,0.528 0.1029,0.1781 0.2411,0.2906 0.4146,0.3371z"/>
    <path id="_228842600" class="fil3" d="M-12.4009 116.083l-0.0998 -0.1732 0.2897 -1.0981c0.0837,-0.3125 0.0846,-0.5394 0.0034,-0.6802 -0.0713,-0.1229 -0.1647,-0.196 -0.2808,-0.2195 -0.1154,-0.0262 -0.2262,-0.0087 -0.3325,0.0526 -0.198,0.1144 -0.2896,0.2881 -0.2745,0.5215l-0.2178 -0.0025c-0.0083,-0.1541 0.0223,-0.2913 0.0919,-0.4124 0.0685,-0.1226 0.1657,-0.2203 0.2925,-0.2933 0.1539,-0.0889 0.3189,-0.1146 0.4947,-0.0766 0.1766,0.0348 0.3162,0.1409 0.4187,0.3189 0.0646,0.112 0.0953,0.2371 0.0925,0.3759 -0.0031,0.1385 -0.0286,0.2976 -0.0769,0.4766l-0.234 0.8647 0.9487 -0.5476 0.1079 0.187 -1.2237 0.7062zm2.8029 -1.9333c-0.0229,0.2525 -0.1496,0.4458 -0.3808,0.579 -0.2307,0.1336 -0.4621,0.1473 -0.6945,0.0415 -0.2311,-0.1081 -0.4339,-0.3137 -0.6087,-0.616 -0.1745,-0.3025 -0.2504,-0.5798 -0.2278,-0.8326 0.0235,-0.2557 0.151,-0.4503 0.3818,-0.5835 0.2308,-0.1334 0.4621,-0.1458 0.6932,-0.0374 0.2322,0.1055 0.4356,0.3097 0.6102,0.6121 0.1746,0.3023 0.2499,0.5816 0.2266,0.8369zm-1.0068 0.4091c0.1769,0.0861 0.3496,0.0802 0.5183,-0.0172 0.1685,-0.0972 0.2589,-0.2433 0.2708,-0.4386 0.0139,-0.196 -0.0532,-0.4225 -0.2014,-0.6792 -0.1483,-0.2565 -0.3107,-0.4281 -0.4876,-0.5141 -0.1749,-0.0871 -0.3465,-0.0819 -0.5154,0.0153 -0.1685,0.0976 -0.2597,0.244 -0.2736,0.4404 -0.0119,0.195 0.056,0.4211 0.2043,0.6776 0.1481,0.2566 0.3097,0.4286 0.4846,0.5158zm2.1084 -0.3632l-0.1376 0.0793 -0.3289 -3.1096 0.1375 -0.0792 0.329 3.1095zm1.3909 -1.1698l-0.1001 -0.173 0.2898 -1.0983c0.0836,-0.3123 0.0845,-0.5391 0.0029,-0.6803 -0.0707,-0.1231 -0.1642,-0.1959 -0.2803,-0.2193 -0.1154,-0.0264 -0.2262,-0.0086 -0.3325,0.0528 -0.1979,0.1142 -0.2896,0.2881 -0.2745,0.5212l-0.2179 -0.0026c-0.0083,-0.1541 0.0223,-0.2912 0.092,-0.4123 0.0684,-0.1224 0.166,-0.2203 0.2925,-0.2933 0.154,-0.089 0.3188,-0.1145 0.4945,-0.0768 0.1766,0.0349 0.3164,0.1413 0.4188,0.3191 0.0646,0.1119 0.0954,0.2372 0.0926,0.3757 -0.0033,0.1385 -0.0287,0.2977 -0.0769,0.4771l-0.2339 0.8646 0.9485 -0.5476 0.1081 0.1866 -1.2236 0.7064zm2.7091 -2.3192l0.1048 0.1815 -0.2475 0.1429 0.2221 0.3849 -0.1924 0.1112 -0.2224 -0.3851 -1.0174 0.5876 -0.1046 -0.1816 -0.0694 -1.7711 0.2118 -0.1223 0.0695 1.7711 0.8056 -0.4649 -0.3398 -0.5887 0.1925 -0.1111 0.3395 0.5883 0.2477 -0.1427z"/>
    <path id="_228844256" class="fil1" d="M45.7574 215.71l67.8243 -39.1582c1.8978,-1.0957 4.3255,-0.4452 5.4213,1.4526l22.7543 39.4115c1.0956,1.8977 0.4449,4.3256 -1.4528,5.4214l-67.8241 39.1585c-1.8979,1.0954 -4.3255,0.4449 -5.4216,-1.4527l-22.754 -39.4115c-1.0958,-1.898 -0.4451,-4.3258 1.4527,-5.4216z"/>
    <path id="_228843296" class="fil3" d="M107.712 189.717l-0.1002 -0.1734 0.2902 -1.0983c0.0835,-0.3123 0.0844,-0.539 0.0029,-0.6801 -0.0709,-0.1229 -0.1642,-0.196 -0.2802,-0.2192 -0.1157,-0.0262 -0.2262,-0.0089 -0.3328,0.0526 -0.1982,0.1143 -0.2894,0.2881 -0.2745,0.5215l-0.2178 -0.0028c-0.0084,-0.1539 0.0222,-0.2912 0.0919,-0.4121 0.0683,-0.1226 0.166,-0.2204 0.2925,-0.2936 0.154,-0.0888 0.3188,-0.1143 0.4946,-0.0766 0.1767,0.035 0.316,0.1413 0.4188,0.319 0.0645,0.1121 0.0956,0.2373 0.0922,0.3759 -0.0029,0.1385 -0.0285,0.2976 -0.0766,0.4767l-0.234 0.8646 0.9487 -0.5476 0.108 0.1871 -1.2237 0.7063zm2.8028 -1.9336c-0.0228,0.2528 -0.1498,0.4458 -0.3806,0.5793 -0.2311,0.1332 -0.4625,0.1472 -0.6947,0.0415 -0.2312,-0.1085 -0.4341,-0.3138 -0.6088,-0.6163 -0.1746,-0.3023 -0.2506,-0.5799 -0.2278,-0.8326 0.0237,-0.2555 0.1509,-0.4501 0.3818,-0.5833 0.231,-0.1334 0.4622,-0.1459 0.6935,-0.0374 0.2321,0.1056 0.4354,0.3095 0.61,0.612 0.1746,0.3024 0.2502,0.5813 0.2266,0.8368zm-1.0067 0.409c0.1769,0.0861 0.3493,0.0805 0.5182,-0.0168 0.1687,-0.0975 0.2589,-0.2437 0.2707,-0.4385 0.0141,-0.1965 -0.0532,-0.4227 -0.2013,-0.6794 -0.1481,-0.2567 -0.3106,-0.428 -0.4876,-0.5142 -0.175,-0.0872 -0.3464,-0.0822 -0.5153,0.0151 -0.1687,0.0976 -0.26,0.2444 -0.2737,0.4406 -0.0123,0.1952 0.0562,0.4211 0.2043,0.6777 0.1481,0.2567 0.3097,0.4283 0.4847,0.5155zm2.1081 -0.3629l-0.1377 0.0794 -0.3288 -3.1097 0.1377 -0.0791 0.3288 3.1094zm1.3911 -1.1697l-0.1001 -0.1733 0.2897 -1.0983c0.0836,-0.3123 0.0846,-0.539 0.0031,-0.6802 -0.0709,-0.1228 -0.1644,-0.1958 -0.2805,-0.2195 -0.1152,-0.0262 -0.2262,-0.0085 -0.3326,0.053 -0.1978,0.1143 -0.2895,0.2879 -0.2745,0.5213l-0.2178 -0.0023c-0.0082,-0.1545 0.0225,-0.2917 0.0923,-0.4127 0.068,-0.1224 0.1656,-0.2204 0.2924,-0.2933 0.1537,-0.089 0.3186,-0.1146 0.4944,-0.0767 0.1766,0.0348 0.3164,0.1411 0.4192,0.3189 0.0643,0.112 0.095,0.2373 0.0919,0.3758 -0.003,0.1388 -0.0286,0.2978 -0.0765,0.4768l-0.234 0.8647 0.9486 -0.5478 0.108 0.1871 -1.2236 0.7065zm2.709 -2.3194l0.1048 0.1817 -0.2475 0.1426 0.2224 0.3851 -0.1926 0.111 -0.2222 -0.3848 -1.0174 0.5873 -0.1049 -0.1817 -0.0693 -1.7709 0.2118 -0.1222 0.0693 1.7712 0.8056 -0.4653 -0.3398 -0.5883 0.1926 -0.111 0.3397 0.5881 0.2475 -0.1428z"/>
    <path id="_228844928" class="fil3" d="M99.493 192.935l-0.7495 -0.6366 0.1145 -0.0661 0.619 0.5346 -0.1547 -0.8025 0.1155 -0.0667 0.1754 0.9676 -0.1202 0.0697zm1.4424 -0.8329l-0.1691 -0.1422 -0.3608 0.2083 0.0386 0.2179 -0.1137 0.0653 -0.164 -0.9748 0.1206 -0.0694 0.7618 0.6295 -0.1134 0.0654zm-0.5507 -0.0545l0.2875 -0.1662 -0.3725 -0.312 0.085 0.4782zm1.2652 -0.4924l0.3462 -0.1998 0.058 0.101 -0.4523 0.2611 -0.463 -0.8022 0.1062 -0.0612 0.4049 0.7011zm0.5065 -1.2274l0.1067 -0.0615 0.4628 0.802 -0.1066 0.0615 -0.4629 -0.802zm1.0495 -0.6059c0.1094,-0.063 0.2223,-0.0765 0.3392,-0.0399 0.1171,0.0352 0.2081,0.1089 0.273,0.2211 0.0646,0.1125 0.0834,0.2285 0.0557,0.3485 -0.0274,0.1181 -0.0955,0.2092 -0.2046,0.2722l-0.3128 0.1808 -0.4631 -0.8022 0.3126 -0.1805zm0.4049 0.7013c0.0818,-0.0473 0.132,-0.1144 0.1507,-0.2018 0.0192,-0.0872 0.004,-0.1739 -0.0455,-0.2592 -0.0493,-0.0855 -0.1166,-0.1422 -0.2016,-0.1694 -0.085,-0.0272 -0.1684,-0.0172 -0.2502,0.03l-0.2061 0.1191 0.3466 0.6002 0.2061 -0.1189zm-3.6858 3.0262c0.1091,-0.063 0.222,-0.0765 0.3388,-0.04 0.117,0.0351 0.2083,0.109 0.273,0.2212 0.0649,0.1124 0.0835,0.2283 0.0559,0.3483 -0.0273,0.1184 -0.0955,0.2095 -0.2046,0.2724l-0.3131 0.1804 -0.4627 -0.802 0.3127 -0.1803zm0.4048 0.7012c0.0817,-0.0472 0.1319,-0.1147 0.1506,-0.2016 0.019,-0.0874 0.0038,-0.174 -0.0456,-0.2595 -0.049,-0.0854 -0.1165,-0.142 -0.2017,-0.1692 -0.0848,-0.0273 -0.1683,-0.0172 -0.2499,0.0298l-0.206 0.1192 0.3463 0.6003 0.2063 -0.119zm1.7999 -0.905l-0.1691 -0.1422 -0.3609 0.2083 0.0385 0.2177 -0.1134 0.0654 -0.1641 -0.9745 0.1205 -0.0693 0.7619 0.6293 -0.1134 0.0653zm-0.5507 -0.0547l0.2873 -0.1658 -0.3722 -0.3121 0.0849 0.4779zm1.4843 -1.5534l0.0581 0.1008 -0.2371 0.1368 0.405 0.7014 -0.1058 0.0609 -0.4047 -0.7015 -0.236 0.1364 -0.0582 -0.1009 0.5787 -0.3339zm1.35 0.1552l0.3723 -0.2147 0.0582 0.1008 -0.4788 0.2764 -0.4631 -0.8017 0.473 -0.2734 0.0584 0.1008 -0.3666 0.2116 0.1419 0.2461 0.338 -0.1949 0.0577 0.0998 -0.3379 0.1952 0.1469 0.254z"/>
    <path id="_228845744" class="fil1" d="M-12.0083 177.57l67.8244 -39.1586c1.898,-1.0958 4.3256,-0.4453 5.4216,1.4526l22.754 39.4116c1.0956,1.8976 0.4451,4.3254 -1.4527,5.4211l-67.8243 39.1586c-1.8976,1.0957 -4.3256,0.4452 -5.4214,-1.4526l-22.7541 -39.4113c-1.0958,-1.8983 -0.4453,-4.326 1.4528,-5.4216z"/>
    <path id="_229941688" class="fil4" d="M4.4114 200.53l0.2199 -0.1273 1.482 2.5666 -0.257 0.1483 -1.3185 -2.2843 -0.4762 0.5048 -0.1928 -0.1819 0.5426 -0.6262zm3.516 1.3918l-0.1336 -0.231 0.3864 -1.4644c0.1114,-0.4165 0.1131,-0.719 0.0041,-0.907 -0.0944,-0.1638 -0.2188,-0.2612 -0.3738,-0.2925 -0.1539,-0.0347 -0.3015,-0.0115 -0.4435,0.0704 -0.2639,0.1526 -0.3858,0.384 -0.3659,0.6951l-0.2905 -0.0032c-0.0111,-0.2055 0.0298,-0.3889 0.1225,-0.55 0.0913,-0.1635 0.2212,-0.294 0.3901,-0.3912 0.2053,-0.1186 0.4251,-0.1525 0.6596,-0.1023 0.2354,0.0466 0.4215,0.1884 0.5583,0.4255 0.0862,0.1491 0.127,0.3161 0.123,0.5011 -0.0039,0.1847 -0.0382,0.3966 -0.102,0.6357l-0.3123 1.1529 1.2649 -0.7303 0.144 0.2493 -1.6313 0.9419zm3.3416 -3.9285c0.2208,-0.0917 0.4355,-0.1096 0.6434,-0.054 0.2093,0.0521 0.3762,0.1855 0.5003,0.4006 0.1409,0.2446 0.1682,0.4862 0.0812,0.7255 -0.0856,0.2352 -0.2482,0.4221 -0.4876,0.5601 -0.1908,0.1101 -0.3858,0.1644 -0.586,0.1624 -0.1999,-0.002 -0.3776,-0.0673 -0.5333,-0.1957l0.1407 -0.2474c0.1148,0.1032 0.2451,0.1567 0.3909,0.1607 0.144,0.0012 0.2921,-0.0416 0.4436,-0.1292 0.1757,-0.1016 0.2933,-0.2313 0.3522,-0.3891 0.0599,-0.1617 0.0404,-0.3281 -0.0583,-0.4993 -0.099,-0.1709 -0.2327,-0.2696 -0.4011,-0.2964 -0.1675,-0.0302 -0.339,0.0052 -0.5151,0.1067l-0.0021 -0.0036 -0.0015 0.0058 -0.0699 0.0402 -0.2072 -0.1051 0.134 -1.2408 -1.2062 0.6965 -0.1395 -0.2419 1.5031 -0.8677 0.1396 0.2416 -0.1212 1.1701zm4.7302 -1.7389l0.1398 0.242 -0.3302 0.1906 0.2966 0.5133 -0.2567 0.1482 -0.2965 -0.5134 -1.3562 0.7832 -0.14 -0.2421 -0.0923 -2.3613 0.2825 -0.1629 0.0923 2.3612 1.0741 -0.6201 -0.453 -0.7845 0.2567 -0.148 0.4531 0.7844 0.3298 -0.1906zm6.5724 -4.8306c0.2394,-0.1385 0.4832,-0.1844 0.7312,-0.1387 0.2489,0.0416 0.4443,0.185 0.5853,0.4292 0.1409,0.2447 0.1683,0.4865 0.0815,0.7256 -0.0858,0.2353 -0.2483,0.422 -0.4879,0.5602 -0.1931,0.1114 -0.3924,0.1644 -0.5972,0.1592 -0.2069,-0.0079 -0.3877,-0.0842 -0.5431,-0.2291l0.1443 -0.2493c0.1158,0.1154 0.2485,0.1789 0.3984,0.1901 0.1508,0.0074 0.3022,-0.0326 0.4536,-0.1202 0.1763,-0.1016 0.2932,-0.2312 0.3522,-0.3888 0.0599,-0.1617 0.0403,-0.3281 -0.0584,-0.4992 -0.0986,-0.1709 -0.2324,-0.2702 -0.4008,-0.2965 -0.1675,-0.0304 -0.3394,0.005 -0.5152,0.1065l-0.6967 0.4023 -0.6491 -1.336 1.3745 -0.7938 0.1398 0.2423 -1.1473 0.6622 0.4022 0.8235 0.4327 -0.2495zm3.2871 -2.0545c0.2514,-0.1451 0.5039,-0.1849 0.757,-0.1192 0.2514,0.0633 0.4492,0.2195 0.5932,0.4689 0.144,0.2493 0.1812,0.5002 0.1119,0.7521 -0.0713,0.2493 -0.2329,0.4469 -0.4843,0.5924 -0.2519,0.1451 -0.5037,0.1862 -0.7551,0.1228 -0.253,-0.0656 -0.4515,-0.2233 -0.5954,-0.4726 -0.1116,-0.193 -0.158,-0.3944 -0.139,-0.6042l0.1178 -1.7349 0.2896 -0.1671 -0.0885 1.3025c0.0576,-0.0527 0.1216,-0.0996 0.1928,-0.1407zm0.2986 1.5336c0.1758,0.0455 0.3543,0.0157 0.5352,-0.0889 0.1807,-0.1044 0.2945,-0.2433 0.3411,-0.4169 0.049,-0.1749 0.0218,-0.3513 -0.0814,-0.5299 -0.1029,-0.1784 -0.2424,-0.2899 -0.4182,-0.3353 -0.1734,-0.0465 -0.351,-0.0174 -0.5316,0.0871 -0.1809,0.1042 -0.2957,0.2439 -0.3447,0.4188 -0.0466,0.1736 -0.0182,0.3495 0.0845,0.5278 0.1034,0.1787 0.2415,0.2911 0.4151,0.3373zm1.4817 -3.7833l1.5765 -0.9103 0.1396 0.242 0.3742 2.8832 -0.2677 0.1545 -0.3742 -2.8833 -1.3088 0.7558 -0.1396 -0.2419zm5.1818 -1.3347c0.1647,-0.0137 0.3169,0.0128 0.4561,0.0789 0.1405,0.0625 0.2509,0.1631 0.3314,0.3025 0.1338,0.2322 0.1571,0.4616 0.0695,0.688 -0.0889,0.2242 -0.2556,0.4068 -0.5001,0.5477 -0.2445,0.1412 -0.4857,0.1942 -0.7243,0.1594 -0.24,-0.0374 -0.427,-0.1724 -0.561,-0.4048 -0.0804,-0.139 -0.1138,-0.2842 -0.1003,-0.4357 0.0147,-0.1549 0.0693,-0.3006 0.1633,-0.4366 -0.3019,0.0017 -0.5263,-0.1245 -0.6729,-0.3786 -0.1329,-0.2298 -0.1587,-0.4494 -0.0774,-0.6594 0.0833,-0.2111 0.2301,-0.3771 0.4401,-0.4986 0.2103,-0.121 0.4268,-0.1645 0.6486,-0.1299 0.2245,0.0333 0.4032,0.1648 0.5357,0.3947 0.147,0.2541 0.1442,0.5116 -0.0087,0.7724zm-0.5994 -0.8859c-0.1414,-0.0194 -0.2856,0.0135 -0.4322,0.0982 -0.1467,0.0848 -0.2484,0.1936 -0.3043,0.3272 -0.0542,0.1324 -0.0362,0.2766 0.054,0.4332 0.0845,0.1467 0.2004,0.2313 0.3475,0.2539 0.149,0.0216 0.2944,-0.0085 0.4362,-0.0907 0.1417,-0.0818 0.2396,-0.1918 0.2932,-0.3304 0.0559,-0.1399 0.0417,-0.2832 -0.0429,-0.4296 -0.0903,-0.1566 -0.2075,-0.2439 -0.3515,-0.2618zm0.3041 2.381c0.1578,0.0196 0.3275,-0.0228 0.5082,-0.1272 0.1809,-0.1043 0.3024,-0.23 0.3642,-0.3765 0.0609,-0.1489 0.045,-0.303 -0.0464,-0.462 -0.0915,-0.1586 -0.2167,-0.2479 -0.3746,-0.2675 -0.1594,-0.0222 -0.3296,0.0191 -0.5105,0.1236 -0.1807,0.1042 -0.3015,0.231 -0.3619,0.3803 -0.0622,0.1465 -0.0472,0.2992 0.0442,0.4578 0.0916,0.1591 0.2176,0.2495 0.3768,0.2715zm8.4035 -6.7631c0.1111,0.1932 0.1576,0.3945 0.1384,0.6044l-0.1175 1.7349 -0.2897 0.1672 0.0886 -1.3025c-0.0574,0.0529 -0.1218,0.0998 -0.1927,0.1404 -0.2515,0.1455 -0.5031,0.1866 -0.7549,0.1231 -0.253,-0.0658 -0.4515,-0.223 -0.5955,-0.4725 -0.144,-0.2493 -0.1804,-0.4989 -0.1092,-0.7484 0.0697,-0.2518 0.2302,-0.4505 0.4816,-0.5957 0.2521,-0.1456 0.5045,-0.1852 0.7575,-0.1196 0.2515,0.0633 0.4494,0.2198 0.5934,0.4687zm-1.5513 0.319c-0.0466,0.1735 -0.0183,0.3494 0.0846,0.5278 0.1029,0.1786 0.2413,0.291 0.415,0.3374 0.176,0.045 0.3541,0.0155 0.5347,-0.089 0.1812,-0.1045 0.295,-0.2434 0.3413,-0.417 0.049,-0.175 0.0218,-0.3513 -0.081,-0.5297 -0.1032,-0.1785 -0.2426,-0.2902 -0.4186,-0.3355 -0.1733,-0.0462 -0.3505,-0.0174 -0.5316,0.087 -0.1806,0.1043 -0.2954,0.2441 -0.3444,0.419zm5.7429 -0.8077c-0.0305,0.3366 -0.1997,0.594 -0.5076,0.7717 -0.308,0.1778 -0.6165,0.1963 -0.9261,0.0558 -0.3082,-0.1447 -0.5787,-0.4187 -0.8117,-0.822 -0.2328,-0.4031 -0.3341,-0.7735 -0.3039,-1.1103 0.0315,-0.3407 0.2013,-0.6001 0.5092,-0.7779 0.308,-0.1778 0.6163,-0.1941 0.9244,-0.0497 0.3093,0.1407 0.5806,0.4128 0.8135,0.816 0.2328,0.4035 0.3337,0.7755 0.3022,1.1164zm-1.3423 0.545c0.2358,0.1147 0.4659,0.1072 0.6908,-0.0226 0.2249,-0.1296 0.3453,-0.3246 0.3611,-0.5849 0.0184,-0.2614 -0.0709,-0.5635 -0.2686,-0.9056 -0.1976,-0.3421 -0.4139,-0.5707 -0.6498,-0.6853 -0.2333,-0.1164 -0.4623,-0.1097 -0.6874,0.0204 -0.2249,0.1296 -0.3464,0.3252 -0.3648,0.587 -0.0162,0.2599 0.0747,0.5611 0.2724,0.9034 0.1973,0.3421 0.4129,0.5715 0.6463,0.6876zm2.5186 -4.2257l0.2198 -0.1269 1.4817 2.5661 -0.2567 0.148 -1.3186 -2.2838 -0.476 0.5046 -0.193 -0.1819 0.5428 -0.6261zm3.5158 1.3919l-0.1334 -0.231 0.3862 -1.4647c0.1116,-0.4165 0.1131,-0.7185 0.0043,-0.9068 -0.0946,-0.1637 -0.2194,-0.2612 -0.374,-0.2923 -0.154,-0.0353 -0.3017,-0.0119 -0.4433,0.0701 -0.2643,0.1524 -0.3862,0.3842 -0.3662,0.6955l-0.2904 -0.0036c-0.0109,-0.2055 0.0297,-0.3887 0.1225,-0.5498 0.0916,-0.1635 0.2213,-0.294 0.3903,-0.3913 0.2051,-0.1186 0.4249,-0.1528 0.6595,-0.102 0.2355,0.0464 0.4215,0.1882 0.5582,0.4251 0.0862,0.1493 0.1273,0.3161 0.1232,0.5009 -0.0041,0.1852 -0.0383,0.3971 -0.1023,0.636l-0.3119 1.1528 1.2646 -0.7304 0.144 0.2495 -1.6313 0.942zm7.9601 -6.5953c0.221,-0.0915 0.4352,-0.1096 0.6433,-0.0538 0.2094,0.052 0.3762,0.1856 0.5002,0.4006 0.1413,0.2443 0.1684,0.4861 0.0814,0.7252 -0.0857,0.2354 -0.2482,0.4222 -0.4876,0.5605 -0.1911,0.1101 -0.3861,0.1641 -0.5861,0.1624 -0.2,-0.0021 -0.3775,-0.0676 -0.5333,-0.1958l0.1408 -0.2473c0.1149,0.1028 0.2453,0.1566 0.3908,0.1603 0.1442,0.0014 0.2922,-0.0414 0.4437,-0.1288 0.176,-0.1016 0.2935,-0.2314 0.352,-0.3892 0.0599,-0.1616 0.0405,-0.3279 -0.0583,-0.499 -0.0987,-0.1712 -0.2322,-0.27 -0.401,-0.2966 -0.1674,-0.0306 -0.3391,0.0054 -0.515,0.1069l-0.0022 -0.0036 -0.0015 0.0057 -0.0696 0.0402 -0.2073 -0.1052 0.1339 -1.2408 -1.2059 0.6965 -0.1398 -0.2422 1.5033 -0.8678 0.1398 0.2421 -0.1216 1.1697zm4.7303 -1.7385l0.1396 0.2417 -0.3298 0.1904 0.2963 0.5135 -0.2566 0.1482 -0.2965 -0.5133 -1.3563 0.7832 -0.1399 -0.242 -0.0922 -2.3614 0.2822 -0.1628 0.0924 2.3613 1.0741 -0.6202 -0.4528 -0.7847 0.2566 -0.1482 0.453 0.7848 0.3299 -0.1905zm1.9896 -2.185c0.2393,-0.1382 0.4832,-0.1846 0.7314,-0.1388 0.2487,0.042 0.4442,0.185 0.585,0.4295 0.1413,0.2443 0.1684,0.4862 0.0818,0.7254 -0.0858,0.2352 -0.2487,0.422 -0.4881,0.5604 -0.1931,0.1111 -0.3924,0.1647 -0.5972,0.159 -0.2068,-0.0077 -0.3877,-0.0841 -0.5431,-0.2292l0.1445 -0.2495c0.1157,0.1155 0.2484,0.1791 0.3981,0.1905 0.1509,0.0074 0.3022,-0.0328 0.4537,-0.1202 0.1759,-0.1015 0.2933,-0.2315 0.3523,-0.3891 0.0597,-0.1617 0.0404,-0.3281 -0.0583,-0.4991 -0.0989,-0.1711 -0.2325,-0.2698 -0.4009,-0.2965 -0.1674,-0.0304 -0.3393,0.0053 -0.5153,0.1068l-0.6965 0.4022 -0.6493 -1.3361 1.3749 -0.7938 0.1398 0.2421 -1.1479 0.6625 0.4026 0.8239 0.4325 -0.25zm3.2869 -2.0542c0.2515,-0.1452 0.5041,-0.1852 0.7572,-0.1193 0.2517,0.0633 0.4493,0.2194 0.5932,0.4687 0.144,0.2493 0.1813,0.4999 0.1118,0.7522 -0.0712,0.2493 -0.2328,0.4469 -0.4844,0.5924 -0.2517,0.1451 -0.5034,0.1861 -0.7549,0.123 -0.253,-0.0661 -0.4514,-0.2235 -0.5952,-0.4725 -0.112,-0.1934 -0.1579,-0.3945 -0.1391,-0.6043l0.1181 -1.735 0.2893 -0.1672 -0.0888 1.3024c0.0576,-0.0526 0.1219,-0.0993 0.1928,-0.1404zm0.2987 1.5335c0.176,0.045 0.3545,0.0154 0.5354,-0.0891 0.1806,-0.1042 0.2942,-0.2433 0.3411,-0.4166 0.0487,-0.175 0.0214,-0.3517 -0.0813,-0.5301 -0.1033,-0.1785 -0.2425,-0.2902 -0.4184,-0.3352 -0.1735,-0.0466 -0.3508,-0.0177 -0.5315,0.0869 -0.181,0.1046 -0.2959,0.2441 -0.3448,0.419 -0.0466,0.1734 -0.0182,0.3492 0.085,0.5278 0.1029,0.1784 0.241,0.2908 0.4145,0.3373z"/>
    <path id="_229942696" class="fil3" d="M49.947 151.577l-0.0999 -0.173 0.2893 -1.0985c0.084,-0.3126 0.085,-0.5393 0.0034,-0.6803 -0.071,-0.1227 -0.1647,-0.1959 -0.2805,-0.2192 -0.1157,-0.0262 -0.2262,-0.0087 -0.3326,0.0525 -0.198,0.1143 -0.2897,0.2882 -0.2746,0.5215l-0.2177 -0.0026c-0.0085,-0.154 0.0225,-0.2911 0.0919,-0.4121 0.0684,-0.1229 0.1658,-0.2205 0.2925,-0.2936 0.154,-0.0889 0.3188,-0.1145 0.4945,-0.0769 0.1768,0.0351 0.3164,0.1416 0.4188,0.3192 0.0645,0.1119 0.0957,0.2371 0.0925,0.3757 -0.0034,0.1388 -0.0288,0.2979 -0.0767,0.4769l-0.2341 0.8646 0.9488 -0.5476 0.108 0.187 -1.2236 0.7064zm2.8028 -1.9336c-0.0228,0.2528 -0.1498,0.446 -0.3807,0.5793 -0.2312,0.1333 -0.4625,0.1471 -0.6946,0.0415 -0.2312,-0.1082 -0.4341,-0.3139 -0.6088,-0.6162 -0.1747,-0.3025 -0.2507,-0.5799 -0.2278,-0.8328 0.0235,-0.2554 0.1507,-0.4498 0.3817,-0.5832 0.231,-0.1333 0.4621,-0.1459 0.6935,-0.0373 0.2321,0.1055 0.4352,0.3095 0.61,0.6119 0.1744,0.3024 0.2502,0.5816 0.2267,0.8368zm-1.0068 0.409c0.1765,0.0861 0.3493,0.0805 0.518,-0.0169 0.1686,-0.0974 0.2589,-0.2436 0.2711,-0.4387 0.0135,-0.1961 -0.0535,-0.4224 -0.2014,-0.6791 -0.1483,-0.2565 -0.3111,-0.4279 -0.4878,-0.5141 -0.1749,-0.0873 -0.3467,-0.082 -0.5154,0.0153 -0.1682,0.0975 -0.2597,0.244 -0.2738,0.4404 -0.0116,0.1949 0.0563,0.4209 0.2046,0.6777 0.1481,0.2567 0.3096,0.4284 0.4847,0.5154zm2.1082 -0.363l-0.1376 0.0796 -0.3287 -3.1099 0.1372 -0.0791 0.3291 3.1094zm1.3908 -1.1697l-0.0999 -0.1729 0.2898 -1.0988c0.0833,-0.3121 0.0846,-0.5387 0.0029,-0.6799 -0.0709,-0.1228 -0.1642,-0.196 -0.2802,-0.2195 -0.1155,-0.0262 -0.2263,-0.0085 -0.3327,0.0529 -0.1979,0.1143 -0.2892,0.2882 -0.2749,0.5213l-0.2175 -0.0024c-0.0083,-0.1543 0.0225,-0.2916 0.0919,-0.4126 0.0684,-0.1223 0.1662,-0.2203 0.2925,-0.2934 0.1541,-0.0888 0.3191,-0.1145 0.4948,-0.0766 0.1764,0.0348 0.3162,0.1412 0.4189,0.319 0.0646,0.1121 0.0952,0.2371 0.092,0.3758 -0.0027,0.1388 -0.0284,0.2977 -0.0763,0.4766l-0.2341 0.8652 0.9484 -0.5478 0.108 0.1868 -1.2236 0.7063zm2.7093 -2.3191l0.1045 0.1814 -0.2472 0.1429 0.2222 0.3848 -0.1927 0.1113 -0.2221 -0.385 -1.0173 0.5873 -0.1049 -0.1815 -0.069 -1.7711 0.2114 -0.1222 0.0693 1.771 0.8056 -0.465 -0.3396 -0.5885 0.1926 -0.1111 0.3397 0.5883 0.2475 -0.1426z"/>
    <path id="_229943440" class="fil3" d="M41.7274 154.795l-0.7491 -0.6365 0.1145 -0.0662 0.6186 0.5347 -0.1548 -0.8025 0.1159 -0.0669 0.1755 0.9679 -0.1206 0.0695zm1.4426 -0.8329l-0.1692 -0.1423 -0.3609 0.2085 0.0384 0.2176 -0.1132 0.0655 -0.1641 -0.9745 0.1205 -0.0695 0.7619 0.6293 -0.1134 0.0654zm-0.5509 -0.0543l0.2876 -0.1664 -0.3725 -0.3118 0.0849 0.4782zm1.2654 -0.4926l0.3462 -0.1996 0.058 0.1006 -0.4527 0.2611 -0.4627 -0.8018 0.1064 -0.0614 0.4048 0.7011zm0.5065 -1.2274l0.1063 -0.0614 0.4629 0.8019 -0.1063 0.0616 -0.4629 -0.8021zm1.0498 -0.6058c0.1092,-0.063 0.2221,-0.0765 0.3387,-0.04 0.1173,0.0353 0.208,0.109 0.2727,0.2214 0.0649,0.1122 0.0835,0.2281 0.0564,0.3479 -0.0275,0.1186 -0.0959,0.2096 -0.205,0.2725l-0.3127 0.1808 -0.4631 -0.8021 0.313 -0.1805zm0.4046 0.7009c0.0818,-0.047 0.1321,-0.1142 0.1506,-0.2014 0.0191,-0.0874 0.004,-0.1737 -0.0455,-0.2593 -0.0496,-0.0856 -0.1168,-0.142 -0.2014,-0.1694 -0.0853,-0.0272 -0.1685,-0.0173 -0.2501,0.0298l-0.2066 0.1192 0.3466 0.6005 0.2064 -0.1194zm-3.686 3.0263c0.1095,-0.0628 0.2223,-0.0763 0.3392,-0.0399 0.1172,0.0353 0.2079,0.1091 0.2725,0.2213 0.0649,0.1125 0.0837,0.2284 0.0562,0.3482 -0.0274,0.1184 -0.0956,0.2098 -0.2048,0.2727l-0.3129 0.1803 -0.4628 -0.8019 0.3126 -0.1807zm0.4049 0.7013c0.0818,-0.0471 0.132,-0.1142 0.1507,-0.2016 0.019,-0.0873 0.0037,-0.1739 -0.0457,-0.2594 -0.0496,-0.0852 -0.1167,-0.142 -0.2014,-0.1692 -0.085,-0.0274 -0.1686,-0.0172 -0.2502,0.0298l-0.2064 0.1192 0.3465 0.6004 0.2065 -0.1192zm1.7998 -0.9049l-0.169 -0.1421 -0.3608 0.2083 0.0386 0.2176 -0.1135 0.0655 -0.1641 -0.9747 0.1205 -0.0695 0.7619 0.6297 -0.1136 0.0652zm-0.5507 -0.0545l0.2876 -0.1662 -0.3724 -0.3119 0.0848 0.4781zm1.4843 -1.5536l0.0581 0.1007 -0.2369 0.1372 0.4046 0.7012 -0.1054 0.0608 -0.4049 -0.7013 -0.2361 0.1363 -0.0581 -0.1009 0.5787 -0.334zm1.3499 0.1551l0.3725 -0.2145 0.0584 0.1007 -0.4792 0.2765 -0.463 -0.802 0.4733 -0.2733 0.0582 0.1008 -0.3665 0.2117 0.1421 0.2463 0.3378 -0.1952 0.0578 0.0999 -0.3383 0.1952 0.1469 0.2539z"/>
    <path id="_229944208" class="fil1" d="M89.7053 47.3556l67.8244 -39.1583c1.8979,-1.0959 4.3257,-0.4454 5.4215,1.4525l22.7539 39.4115c1.0958,1.8977 0.4453,4.3255 -1.4526,5.4213l-67.8239 39.1583c-1.8981,1.0959 -4.3259,0.4453 -5.4217,-1.4526l-22.7541 -39.4115c-1.0959,-1.8978 -0.4452,-4.3256 1.4525,-5.4212z"/>
    <path id="_229921120" class="fil5" d="M106.125 70.3148l0.2198 -0.1269 1.4818 2.5664 -0.2568 0.1485 -1.3186 -2.2844 -0.4758 0.505 -0.1931 -0.1822 0.5427 -0.6264zm3.5158 1.3921l-0.1333 -0.231 0.3862 -1.4644c0.1115,-0.4165 0.113,-0.7189 0.0043,-0.907 -0.0945,-0.1638 -0.2191,-0.2612 -0.374,-0.2925 -0.1538,-0.0348 -0.3017,-0.0115 -0.4432,0.0705 -0.264,0.1523 -0.3861,0.3838 -0.3664,0.6951l-0.2903 -0.0035c-0.0109,-0.2055 0.0299,-0.3885 0.1227,-0.5499 0.0912,-0.1635 0.2212,-0.2939 0.39,-0.3911 0.2053,-0.1186 0.4251,-0.1524 0.6595,-0.1022 0.2356,0.0465 0.4215,0.1883 0.5584,0.4254 0.0863,0.1491 0.1271,0.3162 0.123,0.501 -0.004,0.1847 -0.0383,0.3967 -0.1023,0.6358l-0.3119 1.1528 1.2649 -0.7299 0.1438 0.2488 -1.6314 0.9421zm3.3419 -3.9284c0.2208,-0.092 0.435,-0.1097 0.6435,-0.0541 0.2089,0.0521 0.3758,0.1855 0.4996,0.4004 0.1416,0.2446 0.1685,0.4867 0.0817,0.7258 -0.0856,0.2351 -0.2483,0.4216 -0.4877,0.56 -0.1907,0.1101 -0.3859,0.1643 -0.5859,0.1625 -0.1997,-0.0022 -0.3774,-0.0671 -0.5337,-0.1957l0.1411 -0.2475c0.1146,0.1031 0.2451,0.1566 0.3908,0.1606 0.1442,0.0013 0.292,-0.0415 0.4435,-0.1291 0.1758,-0.1015 0.2936,-0.2313 0.3521,-0.3889 0.0599,-0.1618 0.0407,-0.3282 -0.0582,-0.4993 -0.0988,-0.1711 -0.2323,-0.2699 -0.401,-0.2965 -0.1674,-0.0303 -0.3393,0.0051 -0.5151,0.1068l-0.0021 -0.0041 -0.0014 0.0062 -0.0698 0.0401 -0.2073 -0.105 0.1339 -1.2408 -1.2059 0.6963 -0.1397 -0.2417 1.5031 -0.868 0.1397 0.242 -0.1212 1.17zm4.7301 -1.739l0.1397 0.2419 -0.3299 0.1906 0.2962 0.5133 -0.2566 0.1483 -0.2964 -0.5132 -1.3565 0.7831 -0.1396 -0.2421 -0.0924 -2.3613 0.2822 -0.1631 0.0924 2.3615 1.0741 -0.6203 -0.4529 -0.7847 0.2568 -0.148 0.4529 0.7845 0.33 -0.1905zm6.5722 -4.8306c0.2397,-0.1385 0.4833,-0.1844 0.7314,-0.1387 0.2491,0.0418 0.4441,0.1851 0.5853,0.4294 0.1412,0.2444 0.1683,0.4863 0.0812,0.7254 -0.0856,0.2353 -0.248,0.4221 -0.4877,0.5603 -0.1931,0.1114 -0.3921,0.1645 -0.5971,0.1592 -0.2069,-0.0079 -0.3879,-0.0842 -0.5431,-0.2293l0.1441 -0.2495c0.116,0.1157 0.2487,0.1791 0.3986,0.1904 0.151,0.0075 0.3024,-0.0328 0.4534,-0.1202 0.176,-0.1015 0.2935,-0.2312 0.3525,-0.3889 0.0597,-0.1617 0.0403,-0.3282 -0.0585,-0.4994 -0.0987,-0.1708 -0.2325,-0.2697 -0.4009,-0.2961 -0.1675,-0.0305 -0.3393,0.0049 -0.5152,0.1065l-0.6965 0.4023 -0.6493 -1.3359 1.3748 -0.7937 0.1399 0.2417 -1.1476 0.6625 0.4019 0.8236 0.4328 -0.2496zm3.2868 -2.0543c0.2521,-0.1452 0.5044,-0.1851 0.7573,-0.1195 0.2515,0.0634 0.4495,0.2196 0.5935,0.469 0.1439,0.2495 0.181,0.5 0.1115,0.7519 -0.0709,0.2498 -0.2325,0.4473 -0.4842,0.5923 -0.2517,0.1452 -0.5035,0.1867 -0.7549,0.1231 -0.2533,-0.0655 -0.4517,-0.223 -0.5957,-0.4726 -0.1111,-0.1928 -0.1575,-0.3943 -0.1386,-0.6042l0.1177 -1.735 0.2899 -0.1672 -0.0887 1.3031c0.0572,-0.0531 0.1215,-0.0999 0.1922,-0.1409zm0.2993 1.5334c0.1756,0.0453 0.3542,0.0156 0.5348,-0.0888 0.181,-0.1045 0.2949,-0.2435 0.3411,-0.417 0.0486,-0.1749 0.0219,-0.3514 -0.0811,-0.5301 -0.1031,-0.1782 -0.2425,-0.2898 -0.4185,-0.3351 -0.1732,-0.0463 -0.3506,-0.0174 -0.5318,0.087 -0.1806,0.1042 -0.2954,0.2439 -0.3443,0.4189 -0.0464,0.1736 -0.0182,0.3495 0.0848,0.5278 0.1028,0.1787 0.2413,0.2911 0.415,0.3373zm1.4814 -3.7835l1.5765 -0.91 0.1397 0.242 0.374 2.8831 -0.2673 0.1547 -0.3743 -2.8834 -1.3088 0.7557 -0.1398 -0.2421zm5.1819 -1.3346c0.1648,-0.0138 0.3171,0.0129 0.4561,0.0789 0.1405,0.0626 0.2506,0.1633 0.331,0.3026 0.1344,0.2321 0.1574,0.4616 0.07,0.6881 -0.0889,0.2238 -0.2559,0.4067 -0.5001,0.5476 -0.2446,0.1414 -0.4861,0.1941 -0.7245,0.1594 -0.24,-0.0373 -0.4271,-0.1723 -0.5608,-0.4047 -0.0805,-0.1391 -0.1142,-0.2845 -0.1004,-0.4358 0.0149,-0.155 0.0694,-0.3006 0.1635,-0.4366 -0.3022,0.0015 -0.5265,-0.1246 -0.6735,-0.3786 -0.1324,-0.2299 -0.1582,-0.4494 -0.0775,-0.6592 0.0837,-0.2112 0.2302,-0.3772 0.4406,-0.4988 0.2103,-0.1211 0.4262,-0.1646 0.6486,-0.1299 0.2243,0.0333 0.403,0.1649 0.5357,0.3947 0.1468,0.2541 0.1436,0.5115 -0.0087,0.7723zm-0.5992 -0.8857c-0.1416,-0.0193 -0.2858,0.0135 -0.4324,0.0981 -0.1465,0.0847 -0.2482,0.1937 -0.3047,0.3273 -0.054,0.1323 -0.0355,0.2766 0.0545,0.4332 0.0847,0.1465 0.2005,0.2313 0.3471,0.2538 0.1493,0.0215 0.2945,-0.0085 0.4365,-0.0906 0.1418,-0.0818 0.2394,-0.1917 0.2932,-0.3304 0.056,-0.14 0.0417,-0.2832 -0.0428,-0.4298 -0.0908,-0.1566 -0.2077,-0.2437 -0.3514,-0.2616zm0.3039 2.3808c0.1581,0.0197 0.3272,-0.0228 0.5083,-0.1271 0.181,-0.1041 0.3022,-0.2299 0.3644,-0.3765 0.0606,-0.149 0.0449,-0.3031 -0.0468,-0.462 -0.0916,-0.1588 -0.2163,-0.2477 -0.3745,-0.2675 -0.1596,-0.0222 -0.3293,0.0191 -0.5103,0.1235 -0.1811,0.1043 -0.3016,0.2312 -0.3623,0.3804 -0.0617,0.1465 -0.0471,0.299 0.0445,0.4581 0.0919,0.1587 0.2173,0.2493 0.3767,0.2711zm8.4032 -6.7629c0.1116,0.1932 0.1579,0.3949 0.1388,0.6044l-0.1179 1.7348 -0.2896 0.1672 0.089 -1.3025c-0.0576,0.0529 -0.1219,0.0997 -0.193,0.1404 -0.2515,0.1455 -0.5033,0.1868 -0.7549,0.1231 -0.253,-0.0656 -0.4514,-0.2229 -0.5953,-0.4725 -0.1441,-0.2494 -0.1806,-0.4985 -0.1093,-0.7482 0.0695,-0.252 0.2301,-0.4507 0.4816,-0.596 0.252,-0.1454 0.5043,-0.185 0.7576,-0.1196 0.2516,0.0637 0.4492,0.2197 0.593,0.4689zm-1.5513 0.319c-0.0462,0.1734 -0.0182,0.3493 0.085,0.5278 0.1028,0.1785 0.2412,0.2908 0.4147,0.3376 0.1758,0.0449 0.3545,0.0154 0.5352,-0.0894 0.1812,-0.1045 0.2945,-0.2433 0.341,-0.4166 0.0489,-0.1749 0.0219,-0.3516 -0.0813,-0.5301 -0.1028,-0.1785 -0.2424,-0.2902 -0.4183,-0.3352 -0.1734,-0.0464 -0.3505,-0.0176 -0.5314,0.0869 -0.1807,0.1045 -0.2959,0.2441 -0.3449,0.419zm5.7431 -0.8078c-0.0305,0.3366 -0.1995,0.594 -0.5074,0.7718 -0.3081,0.1778 -0.6166,0.1966 -0.9259,0.0557 -0.3085,-0.1448 -0.579,-0.4186 -0.812,-0.8221 -0.2328,-0.4032 -0.3339,-0.7731 -0.3035,-1.1101 0.0314,-0.3409 0.201,-0.6001 0.5088,-0.7777 0.308,-0.178 0.6162,-0.1944 0.9245,-0.05 0.3094,0.1409 0.5806,0.4129 0.8133,0.816 0.233,0.4035 0.3335,0.7756 0.3022,1.1164zm-1.3424 0.5449c0.2357,0.1149 0.466,0.1074 0.691,-0.0225 0.2248,-0.1296 0.3453,-0.3245 0.361,-0.5849 0.0185,-0.2614 -0.0709,-0.5635 -0.2685,-0.9057 -0.1974,-0.3422 -0.4143,-0.5705 -0.6499,-0.6853 -0.2333,-0.1165 -0.4622,-0.1094 -0.6872,0.0205 -0.2249,0.1295 -0.3466,0.3253 -0.3651,0.587 -0.0158,0.2601 0.0748,0.5612 0.2725,0.9032 0.1973,0.3424 0.4132,0.5715 0.6462,0.6877zm2.5188 -4.2256l0.22 -0.127 1.4814 2.5662 -0.2566 0.1481 -1.3187 -2.2839 -0.476 0.5046 -0.1931 -0.1819 0.543 -0.6261zm3.5158 1.3921l-0.1334 -0.2312 0.3863 -1.4647c0.1113,-0.4163 0.113,-0.7187 0.0044,-0.9067 -0.0946,-0.164 -0.2193,-0.2614 -0.3743,-0.2924 -0.1539,-0.0352 -0.3017,-0.0115 -0.4435,0.0701 -0.2636,0.1524 -0.3857,0.3841 -0.3659,0.6954l-0.2908 -0.0035c-0.0104,-0.2056 0.0301,-0.3886 0.1232,-0.5499 0.0911,-0.1633 0.2212,-0.2938 0.3895,-0.3911 0.2054,-0.1186 0.4252,-0.1529 0.6597,-0.1023 0.2356,0.0465 0.4217,0.1885 0.5586,0.4257 0.0859,0.1487 0.127,0.3157 0.1229,0.5006 -0.0038,0.1851 -0.0381,0.3971 -0.1018,0.6359l-0.3123 1.1528 1.2647 -0.7304 0.1441 0.2496 -1.6314 0.9421zm7.9601 -6.5954c0.2206,-0.0916 0.4353,-0.1096 0.6436,-0.0536 0.2091,0.0517 0.376,0.1853 0.5002,0.4003 0.1408,0.2443 0.168,0.4861 0.0812,0.7254 -0.0857,0.2352 -0.2484,0.422 -0.4877,0.5602 -0.1908,0.1102 -0.386,0.1643 -0.586,0.1624 -0.2,-0.0019 -0.3777,-0.0672 -0.5332,-0.1956l0.1408 -0.2475c0.1149,0.103 0.2449,0.1568 0.3906,0.1604 0.1441,0.0014 0.2922,-0.0415 0.4437,-0.1289 0.1759,-0.1014 0.2933,-0.2314 0.3523,-0.3892 0.0597,-0.1617 0.0402,-0.328 -0.0584,-0.499 -0.0987,-0.1711 -0.2324,-0.2698 -0.4011,-0.2965 -0.1674,-0.0304 -0.339,0.0052 -0.5151,0.1069l-0.0022 -0.0037 -0.0015 0.0058 -0.0696 0.0402 -0.2073 -0.1053 0.1342 -1.2407 -1.2064 0.6964 -0.1395 -0.242 1.503 -0.8679 0.1396 0.2422 -0.1212 1.1697zm4.7303 -1.7386l0.1397 0.2419 -0.3299 0.1904 0.2962 0.5134 -0.2565 0.148 -0.2963 -0.5133 -1.3567 0.7833 -0.1396 -0.2419 -0.0924 -2.3615 0.2822 -0.1629 0.0926 2.3613 1.0743 -0.62 -0.4531 -0.7845 0.2566 -0.1481 0.453 0.7846 0.3299 -0.1907zm1.9894 -2.1849c0.2398,-0.1383 0.4836,-0.1848 0.7315,-0.1389 0.249,0.0421 0.444,0.1851 0.5854,0.4296 0.1408,0.2443 0.1683,0.4862 0.0816,0.7253 -0.0862,0.2353 -0.2485,0.422 -0.4885,0.5602 -0.1928,0.1115 -0.3918,0.1648 -0.5971,0.1591 -0.2066,-0.0077 -0.3877,-0.084 -0.5427,-0.2292l0.1441 -0.2493c0.1157,0.1156 0.2484,0.179 0.3985,0.1904 0.1507,0.0075 0.3022,-0.0328 0.4533,-0.1202 0.1762,-0.1016 0.2934,-0.2314 0.3525,-0.3891 0.0596,-0.1617 0.0402,-0.3281 -0.0583,-0.4989 -0.0991,-0.1712 -0.2328,-0.27 -0.401,-0.2966 -0.1677,-0.0305 -0.3394,0.0051 -0.5155,0.107l-0.6963 0.402 -0.6492 -1.3362 1.3748 -0.7937 0.1395 0.2421 -1.1476 0.6626 0.4024 0.8235 0.4326 -0.2497zm3.2874 -2.0543c0.2514,-0.1453 0.5039,-0.1852 0.7568,-0.1193 0.2516,0.0632 0.4494,0.2192 0.5934,0.4689 0.1438,0.2492 0.1811,0.4997 0.1115,0.752 -0.0709,0.2494 -0.2324,0.4468 -0.484,0.5923 -0.2518,0.1451 -0.5035,0.1861 -0.7552,0.123 -0.2531,-0.0659 -0.4517,-0.2234 -0.5953,-0.4727 -0.1114,-0.193 -0.1578,-0.3943 -0.1388,-0.6041l0.1176 -1.7351 0.2898 -0.1669 -0.0887 1.3024c0.0576,-0.0525 0.1218,-0.0995 0.1929,-0.1405zm0.2985 1.5336c0.176,0.0448 0.3543,0.0154 0.5353,-0.0891 0.1805,-0.1044 0.2943,-0.2436 0.3407,-0.4168 0.049,-0.1749 0.0219,-0.3516 -0.0811,-0.5301 -0.103,-0.1785 -0.2426,-0.2902 -0.4182,-0.3351 -0.1736,-0.0467 -0.3507,-0.0177 -0.5313,0.0868 -0.1812,0.1045 -0.2958,0.2443 -0.3451,0.4191 -0.0462,0.1732 -0.0179,0.3493 0.0847,0.5278 0.1036,0.1782 0.2415,0.2908 0.415,0.3374z"/>
    <path id="_229921624" class="fil3" d="M116.498 85.9537c-0.2916,0.1682 -0.5883,0.2113 -0.8899,0.1288 -0.3,-0.0837 -0.5309,-0.2653 -0.6929,-0.5457 -0.162,-0.2806 -0.204,-0.5716 -0.1261,-0.8733 0.0793,-0.3023 0.2648,-0.5378 0.5562,-0.7061 0.176,-0.1017 0.3617,-0.1524 0.557,-0.1529 0.1971,-0.0013 0.3785,0.046 0.5431,0.141l-0.1478 0.2576c-0.1166,-0.0741 -0.2475,-0.111 -0.3938,-0.1098 -0.1449,-0.0017 -0.2834,0.0357 -0.4156,0.1117 -0.2217,0.1283 -0.362,0.3044 -0.4205,0.5287 -0.0568,0.2237 -0.0234,0.4423 0.1005,0.6571 0.1226,0.2123 0.2951,0.3498 0.517,0.4127 0.2236,0.0612 0.4465,0.0278 0.6683,-0.1001 0.1319,-0.0762 0.2341,-0.1764 0.3063,-0.3014 0.0728,-0.1276 0.1066,-0.2593 0.1015,-0.3957l0.2955 -0.0022c0.002,0.1894 -0.0464,0.3702 -0.1453,0.5423 -0.0998,0.17 -0.2374,0.3056 -0.4135,0.4073zm3.0329 -1.7986l-0.4063 -0.3413 -0.8657 0.4999 0.0922 0.5224 -0.2718 0.1572 -0.394 -2.3392 0.2886 -0.1667 1.8291 1.5105 -0.2721 0.1572zm-1.3224 -0.1312l0.6901 -0.3985 -0.8942 -0.7485 0.2041 1.147zm3.6502 -1.2128l-0.8571 -0.4878 -0.4541 0.262 0.4255 0.7367 -0.2556 0.1477 -1.1111 -1.9245 0.7698 -0.4445c0.165,-0.0952 0.3402,-0.118 0.525,-0.0685 0.1841,0.0476 0.3236,0.154 0.4187,0.3191 0.072,0.1245 0.1003,0.2601 0.0842,0.4062 -0.0139,0.1449 -0.0674,0.2721 -0.1603,0.3824l0.898 0.5077 -0.283 0.1635zm-1.8589 -1.1744l0.4145 0.7175 0.5146 -0.2968c0.095,-0.0551 0.1556,-0.1361 0.1813,-0.244 0.0268,-0.1107 0.0113,-0.2155 -0.0459,-0.3144 -0.0571,-0.099 -0.1397,-0.1638 -0.248,-0.1943 -0.106,-0.0316 -0.2068,-0.0198 -0.3019,0.0352l-0.5146 0.2968zm2.7253 -1.8923c0.2623,-0.1514 0.5333,-0.1833 0.8136,-0.0956 0.2808,0.0844 0.4992,0.2616 0.655,0.531 0.1556,0.2696 0.2003,0.5481 0.1339,0.8355 -0.0651,0.2847 -0.2291,0.5023 -0.4912,0.6538l-0.7505 0.4333 -1.1113 -1.9245 0.7505 -0.4335zm0.9718 1.6828c0.1958,-0.1132 0.3168,-0.2746 0.3619,-0.4839 0.0454,-0.2096 0.0085,-0.417 -0.1099,-0.6221 -0.1188,-0.2055 -0.2798,-0.341 -0.4837,-0.4063 -0.2039,-0.0655 -0.4043,-0.0419 -0.6004,0.0713l-0.4947 0.286 0.8318 1.4408 0.495 -0.2858z"/>
    <path id="_229922416" class="fil3" d="M151.66 21.3622l-0.0998 -0.1733 0.2897 -1.0984c0.0836,-0.3121 0.0849,-0.5388 0.0036,-0.68 -0.0712,-0.1229 -0.165,-0.196 -0.2808,-0.2192 -0.1155,-0.0265 -0.2263,-0.0088 -0.3327,0.0526 -0.1979,0.1144 -0.2894,0.288 -0.2743,0.5214l-0.2181 -0.0026c-0.0081,-0.1541 0.0226,-0.2913 0.0922,-0.4123 0.0683,-0.1229 0.1657,-0.2205 0.2922,-0.2936 0.1543,-0.0888 0.319,-0.1143 0.4949,-0.0765 0.1765,0.0348 0.316,0.1412 0.4188,0.3191 0.0645,0.1119 0.0952,0.2371 0.0922,0.3756 -0.0029,0.1389 -0.0284,0.2977 -0.0767,0.4768l-0.2338 0.8648 0.9485 -0.5475 0.1079 0.1868 -1.2238 0.7063zm2.8029 -1.9334c-0.0227,0.2528 -0.1494,0.4456 -0.3804,0.5792 -0.2311,0.1332 -0.4625,0.147 -0.6945,0.0415 -0.2315,-0.1085 -0.4343,-0.3139 -0.6088,-0.6163 -0.1747,-0.3024 -0.2506,-0.5801 -0.2278,-0.8327 0.0235,-0.2556 0.1507,-0.4499 0.3818,-0.5834 0.2308,-0.1333 0.4618,-0.1459 0.6931,-0.0373 0.232,0.1054 0.4356,0.3094 0.6102,0.6119 0.1746,0.3024 0.2499,0.5817 0.2264,0.8371zm-1.0068 0.409c0.1769,0.0861 0.3495,0.0804 0.5184,-0.0168 0.1686,-0.0975 0.259,-0.2438 0.2708,-0.4388 0.0139,-0.1961 -0.0535,-0.4226 -0.2013,-0.6792 -0.1485,-0.2567 -0.3108,-0.4282 -0.4877,-0.5143 -0.1748,-0.087 -0.3467,-0.082 -0.5153,0.0154 -0.1686,0.0974 -0.2598,0.2443 -0.2738,0.4403 -0.0118,0.1951 0.056,0.421 0.2043,0.6778 0.1483,0.2566 0.3098,0.4284 0.4846,0.5156zm2.1084 -0.3632l-0.1375 0.0795 -0.3287 -3.1096 0.1372 -0.0794 0.329 3.1095zm1.3911 -1.1694l-0.1001 -0.1735 0.2896 -1.0984c0.0836,-0.3122 0.0847,-0.5388 0.0034,-0.68 -0.071,-0.1228 -0.1648,-0.1959 -0.2809,-0.2195 -0.1151,-0.0262 -0.2261,-0.0085 -0.3321,0.0528 -0.1983,0.1144 -0.2897,0.2881 -0.2748,0.5215l-0.2175 -0.0025c-0.0087,-0.1542 0.022,-0.2918 0.0917,-0.4124 0.0684,-0.1226 0.1657,-0.2206 0.2924,-0.2935 0.1542,-0.0889 0.3189,-0.1143 0.4946,-0.0764 0.1767,0.0346 0.3161,0.1411 0.4188,0.3189 0.0647,0.1119 0.0956,0.237 0.0925,0.3757 -0.003,0.1386 -0.0288,0.2974 -0.0768,0.4768l-0.2337 0.8647 0.9482 -0.5477 0.1082 0.1869 -1.2235 0.7066zm2.7091 -2.3194l0.1046 0.1815 -0.2474 0.1429 0.2222 0.3848 -0.1924 0.1114 -0.2223 -0.385 -1.0174 0.5872 -0.1047 -0.1815 -0.0694 -1.771 0.2119 -0.1224 0.0693 1.7711 0.8052 -0.4651 -0.3392 -0.5883 0.1921 -0.1111 0.3397 0.5884 0.2478 -0.1429z"/>
    <path id="_229923376" class="fil3" d="M143.441 24.5801l-0.7496 -0.6365 0.1146 -0.0662 0.619 0.5347 -0.1551 -0.8026 0.116 -0.0669 0.1754 0.9681 -0.1203 0.0694zm1.4426 -0.8328l-0.1696 -0.1423 -0.3607 0.2085 0.0386 0.2175 -0.1133 0.0655 -0.164 -0.9746 0.1202 -0.0693 0.7619 0.6291 -0.1131 0.0656zm-0.551 -0.0546l0.2873 -0.1661 -0.3726 -0.3118 0.0853 0.4779zm1.2657 -0.4924l0.3461 -0.1998 0.0579 0.1009 -0.4526 0.2612 -0.4628 -0.802 0.1062 -0.0615 0.4052 0.7012zm0.5061 -1.2272l0.1066 -0.0615 0.4628 0.8019 -0.1064 0.0616 -0.463 -0.802zm1.0497 -0.606c0.109,-0.0631 0.2221,-0.0764 0.339,-0.0397 0.117,0.0351 0.2079,0.1089 0.2726,0.221 0.065,0.1121 0.0838,0.2283 0.0561,0.3481 -0.0275,0.1187 -0.0957,0.2093 -0.2047,0.2725l-0.3131 0.1806 -0.4631 -0.802 0.3132 -0.1805zm0.4046 0.7011c0.0817,-0.0471 0.1324,-0.1144 0.1511,-0.2019 0.0186,-0.0869 0.0036,-0.1735 -0.0456,-0.259 -0.0497,-0.0855 -0.1167,-0.1419 -0.2017,-0.1693 -0.0851,-0.0273 -0.1688,-0.0172 -0.2504,0.03l-0.2061 0.1189 0.3467 0.6003 0.206 -0.119zm-3.6857 3.0263c0.1091,-0.0631 0.222,-0.0765 0.339,-0.04 0.1168,0.0354 0.2081,0.1091 0.2727,0.2215 0.065,0.1121 0.0837,0.2282 0.056,0.348 -0.0275,0.1186 -0.0957,0.2094 -0.2047,0.2726l-0.3129 0.1805 -0.4631 -0.8019 0.313 -0.1807zm0.4048 0.7013c0.0816,-0.0473 0.1323,-0.1145 0.1508,-0.2018 0.0187,-0.0872 0.0037,-0.1738 -0.0457,-0.2594 -0.0495,-0.0854 -0.1166,-0.1417 -0.2015,-0.1692 -0.0852,-0.0272 -0.1686,-0.0173 -0.2504,0.0299l-0.2061 0.119 0.3466 0.6002 0.2063 -0.1187zm1.8002 -0.9051l-0.1693 -0.1421 -0.361 0.2084 0.0384 0.2175 -0.113 0.0655 -0.1641 -0.9747 0.1203 -0.0693 0.762 0.6292 -0.1133 0.0655zm-0.5512 -0.0545l0.2876 -0.166 -0.3723 -0.3122 0.0847 0.4782zm1.4845 -1.5535l0.0582 0.1008 -0.2373 0.1369 0.4047 0.7011 -0.1053 0.0609 -0.4049 -0.7012 -0.2358 0.1363 -0.0582 -0.1009 0.5786 -0.3339zm1.35 0.1554l0.3722 -0.215 0.0583 0.1008 -0.4791 0.2764 -0.4629 -0.8017 0.4734 -0.2733 0.0582 0.1009 -0.3669 0.2115 0.1424 0.2464 0.3381 -0.1953 0.0572 0.0998 -0.3377 0.1953 0.1468 0.2542z"/>
    <path id="_229923856" class="fil1" d="M152.053 82.8493l67.8244 -39.1583c1.8977,-1.0956 4.3256,-0.4454 5.4212,1.4525l22.7543 39.4114c1.0957,1.8981 0.4452,4.3259 -1.4528,5.4216l-67.8243 39.1584c-1.8979,1.0956 -4.3257,0.4449 -5.4214,-1.4528l-22.7542 -39.4114c-1.0957,-1.8978 -0.4452,-4.3257 1.4527,-5.4215z"/>
    <path id="_229926568" class="fil1" d="M7.675 94.7159l67.8242 -39.1585c1.8976,-1.0957 4.3256,-0.4451 5.4213,1.4529l22.754 39.4113c1.0959,1.8977 0.4453,4.3257 -1.4526,5.4213l-67.824 39.1584c-1.8979,1.0955 -4.3256,0.445 -5.4215,-1.4528l-22.7542 -39.4112c-1.0954,-1.8979 -0.4451,-4.3257 1.4528,-5.4214z"/>
    <path id="_230610384" class="fil6" d="M24.0945 117.675l0.2198 -0.1269 1.4816 2.5663 -0.2566 0.1482 -1.3186 -2.2842 -0.4759 0.5049 -0.1931 -0.182 0.5428 -0.6263zm3.5158 1.3919l-0.1334 -0.2308 0.3864 -1.4644c0.1116,-0.4167 0.1129,-0.719 0.0043,-0.9072 -0.0944,-0.1638 -0.2192,-0.261 -0.3742,-0.2923 -0.1539,-0.035 -0.3017,-0.0118 -0.4431,0.0703 -0.2641,0.1524 -0.3861,0.384 -0.3661,0.6951l-0.2903 -0.0035c-0.0113,-0.2053 0.0297,-0.3886 0.1223,-0.5497 0.0912,-0.1635 0.2213,-0.2941 0.3899,-0.3913 0.2054,-0.1185 0.4252,-0.1524 0.6595,-0.102 0.2355,0.0463 0.4218,0.1882 0.5586,0.4252 0.0862,0.1493 0.1274,0.3162 0.1231,0.5011 -0.0039,0.1847 -0.0381,0.3966 -0.1023,0.6357l-0.3117 1.1529 1.2644 -0.7302 0.1442 0.249 -1.6316 0.9421zm3.3417 -3.9286c0.2211,-0.0917 0.4353,-0.1095 0.6433,-0.0538 0.2095,0.0521 0.3759,0.1854 0.5003,0.4005 0.1411,0.2444 0.1683,0.4863 0.0816,0.7253 -0.0858,0.2354 -0.2485,0.4222 -0.4882,0.5603 -0.1906,0.1101 -0.3857,0.1644 -0.5855,0.1625 -0.2,-0.0021 -0.3777,-0.0673 -0.5336,-0.1958l0.1409 -0.2473c0.1147,0.1032 0.2451,0.1564 0.3906,0.1605 0.1443,0.0014 0.2921,-0.0415 0.4436,-0.1292 0.1764,-0.1014 0.2937,-0.2312 0.3523,-0.3889 0.0599,-0.1616 0.0404,-0.3282 -0.0585,-0.4991 -0.0987,-0.171 -0.2324,-0.27 -0.4007,-0.2966 -0.1678,-0.0303 -0.3393,0.0052 -0.5151,0.1069l-0.0023 -0.0038 -0.0015 0.0056 -0.0695 0.0405 -0.2076 -0.1051 0.1341 -1.2409 -1.2063 0.6964 -0.1396 -0.2419 1.5034 -0.8678 0.1397 0.2418 -0.1214 1.1699zm4.73 -1.7386l0.14 0.242 -0.3299 0.1906 0.2964 0.5133 -0.2569 0.148 -0.2961 -0.5133 -1.3568 0.7831 -0.1396 -0.2419 -0.0924 -2.3615 0.2825 -0.1632 0.0923 2.3616 1.074 -0.6203 -0.4528 -0.7844 0.2567 -0.148 0.453 0.7843 0.3296 -0.1903zm6.5723 -4.831c0.2396,-0.1382 0.4836,-0.1843 0.7314,-0.1385 0.2495,0.0419 0.4445,0.1852 0.5853,0.4294 0.1413,0.2446 0.1683,0.4864 0.0816,0.7254 -0.0859,0.2353 -0.2485,0.4222 -0.488,0.5602 -0.1929,0.1116 -0.3922,0.1647 -0.5976,0.1593 -0.206,-0.008 -0.387,-0.0841 -0.5424,-0.229l0.1441 -0.2497c0.1158,0.1157 0.2485,0.1791 0.3986,0.1903 0.1506,0.0073 0.3019,-0.0326 0.4535,-0.12 0.1759,-0.1018 0.2933,-0.2315 0.352,-0.3892 0.0597,-0.1615 0.0405,-0.3281 -0.0581,-0.4993 -0.0989,-0.1708 -0.2326,-0.2697 -0.4011,-0.2963 -0.1674,-0.0304 -0.3393,0.0053 -0.5152,0.1066l-0.6967 0.4024 -0.649 -1.336 1.3748 -0.7937 0.1397 0.2418 -1.1476 0.6626 0.4023 0.8234 0.4324 -0.2497zm3.2872 -2.0542c0.2518,-0.1452 0.5043,-0.1848 0.7573,-0.1192 0.2513,0.0632 0.4492,0.2197 0.5933,0.4689 0.144,0.2495 0.181,0.5 0.1112,0.7518 -0.0706,0.2498 -0.2322,0.4472 -0.484,0.5924 -0.2517,0.1453 -0.5032,0.1866 -0.7548,0.1231 -0.2532,-0.0657 -0.4515,-0.2232 -0.5956,-0.4727 -0.1116,-0.1929 -0.1578,-0.3944 -0.1388,-0.6043l0.1178 -1.7348 0.2896 -0.1672 -0.0889 1.3028c0.0578,-0.0531 0.1219,-0.0997 0.1929,-0.1408zm0.2988 1.5336c0.176,0.0452 0.3544,0.0156 0.535,-0.089 0.1809,-0.1044 0.2947,-0.2434 0.3412,-0.4169 0.049,-0.1749 0.0217,-0.3514 -0.081,-0.5298 -0.1034,-0.1786 -0.2426,-0.29 -0.4185,-0.3354 -0.1735,-0.0462 -0.3507,-0.0174 -0.5317,0.087 -0.1807,0.1043 -0.2953,0.2439 -0.3445,0.4188 -0.0465,0.1736 -0.0183,0.3496 0.0848,0.5281 0.103,0.1786 0.2414,0.2909 0.4147,0.3372zm1.4818 -3.7835l1.5763 -0.9102 0.1397 0.2421 0.3741 2.8832 -0.2675 0.1545 -0.3742 -2.8834 -1.3088 0.7559 -0.1396 -0.2421zm5.182 -1.3347c0.1647,-0.0138 0.3164,0.0127 0.4559,0.0788 0.1403,0.0626 0.2507,0.1634 0.331,0.3027 0.1341,0.2323 0.1575,0.4614 0.07,0.6882 -0.0889,0.2239 -0.2557,0.4064 -0.5001,0.5475 -0.2446,0.1412 -0.4862,0.1943 -0.7245,0.1593 -0.24,-0.0373 -0.4269,-0.1722 -0.561,-0.4044 -0.0805,-0.1392 -0.114,-0.2844 -0.1002,-0.4361 0.0147,-0.1549 0.0692,-0.3004 0.1634,-0.4365 -0.302,0.0016 -0.5265,-0.1245 -0.6732,-0.3785 -0.1327,-0.2299 -0.1586,-0.4496 -0.0775,-0.6592 0.0836,-0.2112 0.2302,-0.3774 0.4404,-0.4989 0.2103,-0.1211 0.4263,-0.1644 0.6484,-0.1298 0.2246,0.0333 0.4032,0.1648 0.536,0.3947 0.1464,0.2541 0.1436,0.5116 -0.0086,0.7722zm-0.5997 -0.8857c-0.1413,-0.0192 -0.2855,0.0135 -0.4319,0.0981 -0.1466,0.0848 -0.2483,0.1937 -0.3048,0.3273 -0.0541,0.1323 -0.0361,0.2765 0.0544,0.433 0.0846,0.1466 0.2001,0.2314 0.3469,0.2543 0.1492,0.0213 0.295,-0.0089 0.4368,-0.0911 0.1416,-0.0815 0.2394,-0.1916 0.293,-0.3304 0.0563,-0.1397 0.0418,-0.283 -0.0428,-0.4295 -0.0904,-0.1566 -0.2075,-0.2437 -0.3516,-0.2617zm0.3042 2.3811c0.1581,0.0195 0.3273,-0.0229 0.5085,-0.1274 0.1807,-0.1041 0.302,-0.2298 0.364,-0.3765 0.0606,-0.149 0.0453,-0.303 -0.0468,-0.4619 -0.0915,-0.1589 -0.2164,-0.248 -0.3742,-0.2676 -0.1598,-0.0222 -0.3298,0.0189 -0.5105,0.1236 -0.181,0.1043 -0.3015,0.2309 -0.3622,0.3803 -0.0621,0.1466 -0.0471,0.2993 0.0445,0.4578 0.0918,0.1591 0.2174,0.2496 0.3767,0.2717zm8.4032 -6.7632c0.1115,0.1933 0.1577,0.3948 0.1386,0.6044l-0.1176 1.7348 -0.2895 0.1672 0.0884 -1.3025c-0.0574,0.053 -0.1215,0.0998 -0.1924,0.1405 -0.2517,0.1455 -0.5035,0.1864 -0.7552,0.1231 -0.253,-0.0657 -0.4512,-0.2231 -0.5953,-0.4725 -0.144,-0.2494 -0.1805,-0.4985 -0.1095,-0.7484 0.0697,-0.2517 0.2304,-0.4504 0.4821,-0.5959 0.2518,-0.1454 0.504,-0.1851 0.7573,-0.1195 0.2517,0.0635 0.4491,0.2196 0.5931,0.4688zm-1.5513 0.3187c-0.0462,0.1738 -0.0184,0.3497 0.0851,0.528 0.1028,0.1788 0.2412,0.291 0.4145,0.3376 0.176,0.0451 0.3543,0.0155 0.5353,-0.0891 0.1809,-0.1045 0.2945,-0.2435 0.3412,-0.4168 0.0487,-0.1752 0.0218,-0.3514 -0.0813,-0.5303 -0.103,-0.1782 -0.2424,-0.2901 -0.4185,-0.335 -0.1735,-0.0463 -0.3506,-0.0177 -0.5316,0.087 -0.1808,0.1045 -0.2958,0.244 -0.3447,0.4186zm5.7431 -0.8076c-0.0305,0.3368 -0.1992,0.594 -0.5075,0.772 -0.3079,0.1776 -0.6166,0.1963 -0.926,0.0557 -0.3085,-0.1448 -0.5791,-0.4186 -0.8119,-0.8222 -0.2327,-0.403 -0.3342,-0.7731 -0.3035,-1.1102 0.0312,-0.3408 0.2009,-0.5998 0.5092,-0.7778 0.3078,-0.1778 0.6156,-0.1942 0.9241,-0.0497 0.3095,0.1407 0.5804,0.4126 0.8134,0.8159 0.233,0.4034 0.3336,0.7756 0.3022,1.1163zm-1.3424 0.545c0.2356,0.1148 0.4661,0.1075 0.6911,-0.0224 0.2246,-0.1297 0.3451,-0.3246 0.361,-0.5851 0.0185,-0.2614 -0.0713,-0.563 -0.2683,-0.9057 -0.1977,-0.342 -0.4146,-0.5704 -0.6501,-0.6853 -0.2337,-0.1164 -0.4626,-0.1094 -0.6874,0.0206 -0.2248,0.1295 -0.3466,0.3253 -0.365,0.5871 -0.0159,0.2601 0.0748,0.5613 0.2724,0.9032 0.1972,0.3425 0.4131,0.5716 0.6463,0.6876zm2.5188 -4.2257l0.2199 -0.127 1.4817 2.5664 -0.2569 0.1481 -1.3185 -2.284 -0.4763 0.5045 -0.1929 -0.1818 0.543 -0.6262zm3.5157 1.3922l-0.1334 -0.2312 0.3862 -1.4647c0.1116,-0.4161 0.1131,-0.7185 0.0044,-0.9067 -0.0943,-0.1638 -0.2192,-0.2614 -0.3742,-0.2924 -0.1536,-0.0351 -0.3017,-0.0116 -0.4434,0.0703 -0.2638,0.1524 -0.3858,0.384 -0.3658,0.6953l-0.2905 -0.0036c-0.0109,-0.2056 0.0298,-0.3887 0.1224,-0.5497 0.0915,-0.1635 0.2214,-0.2939 0.39,-0.3915 0.2055,-0.1184 0.4252,-0.1525 0.6597,-0.102 0.2354,0.0465 0.4216,0.1883 0.5583,0.4254 0.0861,0.149 0.1271,0.316 0.1233,0.5009 -0.0043,0.185 -0.038,0.397 -0.1024,0.6356l-0.3121 1.1529 1.2651 -0.7301 0.1438 0.2496 -1.6314 0.9419zm7.96 -6.5954c0.2209,-0.0916 0.4356,-0.1095 0.6438,-0.0537 0.2089,0.0517 0.3761,0.1855 0.4999,0.4006 0.1412,0.244 0.1683,0.486 0.0815,0.7251 -0.0857,0.2353 -0.2484,0.4221 -0.4877,0.5604 -0.1908,0.1102 -0.3863,0.1643 -0.5859,0.1622 -0.2,-0.0018 -0.3778,-0.0672 -0.5333,-0.1955l0.1408 -0.2475c0.1148,0.1032 0.2449,0.1568 0.3907,0.1606 0.144,0.0015 0.2921,-0.0416 0.4436,-0.1289 0.176,-0.1016 0.2933,-0.2317 0.3523,-0.3891 0.0597,-0.1618 0.0399,-0.3284 -0.0586,-0.4992 -0.0986,-0.1711 -0.2326,-0.2699 -0.4007,-0.2966 -0.1676,-0.0303 -0.3392,0.0054 -0.5152,0.1068l-0.0021 -0.0036 -0.0015 0.0057 -0.07 0.0403 -0.2071 -0.1052 0.1339 -1.2407 -1.206 0.6964 -0.1398 -0.2421 1.503 -0.8678 0.1399 0.242 -0.1215 1.1698zm4.7304 -1.7385l0.1399 0.2417 -0.33 0.1906 0.2961 0.5133 -0.2564 0.148 -0.2963 -0.5133 -1.3568 0.7833 -0.1397 -0.2419 -0.0926 -2.3613 0.2827 -0.163 0.0924 2.3613 1.0743 -0.62 -0.4531 -0.7845 0.2566 -0.1482 0.4531 0.7844 0.3298 -0.1904zm1.9897 -2.185c0.2398,-0.1384 0.4832,-0.1847 0.731,-0.1388 0.2494,0.0418 0.4444,0.1851 0.5857,0.4296 0.141,0.2441 0.1678,0.4861 0.081,0.7253 -0.0856,0.235 -0.248,0.422 -0.4878,0.5604 -0.1931,0.1113 -0.392,0.1642 -0.5973,0.159 -0.2066,-0.0076 -0.3875,-0.0843 -0.5428,-0.2292l0.1444 -0.2496c0.1155,0.1157 0.2484,0.1793 0.3984,0.1905 0.1509,0.0077 0.302,-0.0328 0.4533,-0.1201 0.176,-0.1015 0.2935,-0.2314 0.3522,-0.3894 0.0597,-0.1614 0.0407,-0.328 -0.0581,-0.4988 -0.0989,-0.1711 -0.2327,-0.27 -0.4012,-0.2966 -0.1674,-0.0305 -0.3392,0.0054 -0.5152,0.107l-0.6962 0.402 -0.6495 -1.3362 1.3749 -0.7936 0.1399 0.2422 -1.1475 0.6624 0.402 0.8236 0.4328 -0.2497zm3.2868 -2.0542c0.2519,-0.1453 0.5043,-0.1854 0.757,-0.1195 0.2517,0.0634 0.4497,0.2195 0.5938,0.469 0.1437,0.2493 0.1808,0.4999 0.1113,0.7519 -0.0711,0.2494 -0.2325,0.447 -0.4842,0.5923 -0.2515,0.1453 -0.5034,0.1864 -0.755,0.1231 -0.2533,-0.0658 -0.4515,-0.2233 -0.5955,-0.4726 -0.1114,-0.193 -0.1577,-0.3943 -0.1385,-0.6042l0.1175 -1.7349 0.2899 -0.1672 -0.089 1.3026c0.0577,-0.0527 0.1219,-0.0994 0.1927,-0.1405zm0.299 1.5334c0.1759,0.0452 0.3541,0.0154 0.5348,-0.0893 0.1811,-0.1038 0.295,-0.2433 0.341,-0.4164 0.049,-0.175 0.022,-0.3516 -0.0809,-0.5301 -0.1029,-0.1786 -0.2425,-0.2901 -0.4186,-0.335 -0.1732,-0.0469 -0.3505,-0.0179 -0.5315,0.0865 -0.1806,0.1045 -0.2956,0.2442 -0.3445,0.4192 -0.0465,0.1733 -0.0181,0.3492 0.0849,0.5279 0.1027,0.1784 0.241,0.2908 0.4148,0.3372z"/>
    <path id="_230610576" class="fil3" d="M34.4757 132.987c-0.2916,0.1682 -0.588,0.2112 -0.8896,0.1288 -0.3001,-0.0835 -0.5313,-0.2654 -0.6933,-0.5459 -0.1616,-0.2803 -0.2035,-0.5713 -0.1261,-0.873 0.0795,-0.3024 0.2651,-0.5381 0.5567,-0.7062 0.1756,-0.1015 0.3614,-0.1523 0.5567,-0.1528 0.1971,-0.0015 0.3786,0.0456 0.5431,0.1409l-0.1478 0.258c-0.1163,-0.0747 -0.2477,-0.1113 -0.3935,-0.1104 -0.1454,-0.0015 -0.2837,0.0357 -0.4158,0.112 -0.2218,0.1281 -0.3619,0.3042 -0.4208,0.5286 -0.0565,0.2236 -0.0232,0.4424 0.1006,0.6569 0.1229,0.2126 0.2953,0.3503 0.5169,0.4128 0.2239,0.0614 0.4468,0.0281 0.6685,-0.0999 0.1319,-0.0764 0.2338,-0.1765 0.3059,-0.3015 0.0733,-0.1275 0.1071,-0.2594 0.1018,-0.3957l0.2956 -0.0023c0.002,0.1895 -0.0467,0.3702 -0.1454,0.5422 -0.0996,0.1701 -0.2376,0.3059 -0.4135,0.4075zm3.0329 -1.7987l-0.4062 -0.3411 -0.8659 0.5 0.0923 0.5222 -0.2719 0.1572 -0.3939 -2.3392 0.2889 -0.1669 1.829 1.5107 -0.2723 0.1571zm-1.3223 -0.1313l0.6903 -0.3983 -0.8944 -0.7486 0.2041 1.1469zm2.7931 -1.7005l-0.4538 0.2622 0.4253 0.7368 -0.2556 0.1476 -1.1111 -1.9246 0.7698 -0.4443c0.165,-0.0955 0.3399,-0.1181 0.5248,-0.0688 0.1839,0.0478 0.3238,0.1541 0.4188,0.3192 0.0721,0.1246 0.1002,0.26 0.0842,0.4061 -0.0138,0.145 -0.0672,0.2722 -0.1605,0.3823l0.8982 0.5079 -1.1401 -0.3244zm-1.0018 -0.6865l0.4145 0.7176 0.5143 -0.297c0.0953,-0.055 0.156,-0.1362 0.1815,-0.2441 0.0266,-0.1105 0.0113,-0.2155 -0.0457,-0.3143 -0.057,-0.0988 -0.14,-0.1638 -0.2479,-0.1942 -0.1062,-0.0315 -0.207,-0.0198 -0.3022,0.0352l-0.5145 0.2968zm2.7252 -1.8924c0.2623,-0.1511 0.5334,-0.1832 0.8137,-0.0955 0.2812,0.0846 0.4994,0.2616 0.655,0.5308 0.1554,0.2696 0.2001,0.548 0.134,0.8356 -0.0654,0.2849 -0.2289,0.5026 -0.4912,0.6539l-0.7508 0.4334 -1.1113 -1.9246 0.7506 -0.4336zm0.9716 1.683c0.1961,-0.1133 0.317,-0.2747 0.3623,-0.484 0.0452,-0.2095 0.0084,-0.4168 -0.1101,-0.6223 -0.1185,-0.2053 -0.2794,-0.3406 -0.4834,-0.406 -0.2039,-0.0659 -0.4044,-0.0419 -0.6006,0.0713l-0.4951 0.2857 0.8319 1.4409 0.495 -0.2856z"/>
    <path id="_230612040" class="fil3" d="M69.63 68.7227l-0.1002 -0.1733 0.2898 -1.0984c0.0834,-0.3125 0.0846,-0.5391 0.0032,-0.6802 -0.0709,-0.1227 -0.1644,-0.1959 -0.2805,-0.2193 -0.1152,-0.0262 -0.2262,-0.0087 -0.3326,0.0527 -0.1979,0.1143 -0.2894,0.2881 -0.2742,0.5215l-0.2181 -0.0027c-0.0084,-0.154 0.0224,-0.2913 0.092,-0.4123 0.0685,-0.1226 0.1657,-0.2203 0.2923,-0.2932 0.1541,-0.0889 0.3189,-0.1148 0.4948,-0.0769 0.1765,0.035 0.3162,0.1415 0.4189,0.3191 0.0646,0.1119 0.0953,0.2371 0.0921,0.3757 -0.003,0.1386 -0.0287,0.2977 -0.0766,0.4767l-0.2339 0.865 0.9486 -0.548 0.1081 0.187 -1.2237 0.7066zm2.8027 -1.9335c-0.0228,0.2525 -0.1496,0.4457 -0.3804,0.5792 -0.2311,0.1332 -0.4627,0.147 -0.6947,0.0414 -0.2314,-0.1082 -0.4342,-0.3139 -0.6088,-0.6162 -0.1746,-0.3022 -0.2507,-0.5799 -0.2278,-0.8326 0.0236,-0.2555 0.1507,-0.4501 0.3817,-0.5834 0.2312,-0.1332 0.462,-0.1458 0.6933,-0.0374 0.2319,0.1057 0.4355,0.3096 0.6101,0.6119 0.1748,0.3026 0.2501,0.5817 0.2266,0.8371zm-1.0069 0.4089c0.1768,0.0862 0.3494,0.0804 0.5184,-0.0169 0.1686,-0.0974 0.2587,-0.2434 0.2708,-0.4387 0.0138,-0.1962 -0.0534,-0.4225 -0.2015,-0.6791 -0.1479,-0.2566 -0.3108,-0.4281 -0.4874,-0.5141 -0.1752,-0.0873 -0.3472,-0.0821 -0.5153,0.0154 -0.1687,0.0974 -0.2601,0.2439 -0.2738,0.4402 -0.0121,0.195 0.056,0.421 0.2042,0.6777 0.1481,0.2566 0.3096,0.4284 0.4846,0.5155zm2.1083 -0.363l-0.1373 0.0794 -0.329 -3.1096 0.1374 -0.0793 0.3289 3.1095zm1.3911 -1.1698l-0.0998 -0.173 0.2893 -1.0985c0.0839,-0.3121 0.0848,-0.539 0.0034,-0.6802 -0.0708,-0.1228 -0.1645,-0.1959 -0.2808,-0.2191 -0.1152,-0.0264 -0.226,-0.0086 -0.3326,0.0526 -0.1978,0.1143 -0.2895,0.2881 -0.2743,0.5214l-0.2178 -0.0025c-0.0083,-0.1542 0.0222,-0.2915 0.0919,-0.4126 0.0686,-0.1223 0.1658,-0.2203 0.2924,-0.2933 0.154,-0.0891 0.319,-0.1147 0.4948,-0.0766 0.1765,0.0346 0.3162,0.1412 0.4187,0.319 0.0647,0.112 0.0953,0.237 0.0925,0.3756 -0.0031,0.1389 -0.0288,0.2977 -0.0769,0.4771l-0.2337 0.8648 0.9483 -0.5475 0.108 0.1864 -1.2234 0.7064zm2.7091 -2.3193l0.1047 0.1816 -0.2476 0.1429 0.2223 0.3849 -0.1924 0.1112 -0.222 -0.385 -1.0176 0.5875 -0.1048 -0.1816 -0.0694 -1.7714 0.212 -0.122 0.0691 1.771 0.8059 -0.465 -0.34 -0.5885 0.1923 -0.1111 0.3399 0.5885 0.2476 -0.143z"/>
    <path id="_230612568" class="fil3" d="M61.4105 71.9406l-0.7495 -0.6367 0.1145 -0.0662 0.6189 0.5347 -0.1549 -0.8024 0.1156 -0.067 0.1756 0.9681 -0.1202 0.0695zm1.4425 -0.8331l-0.1693 -0.1418 -0.3609 0.208 0.0385 0.2178 -0.1135 0.0654 -0.1636 -0.9745 0.1202 -0.0695 0.7618 0.6293 -0.1132 0.0653zm-0.551 -0.0544l0.2874 -0.1661 -0.3725 -0.3119 0.0851 0.478zm1.2657 -0.4922l0.3459 -0.1998 0.0582 0.1007 -0.4526 0.2612 -0.4629 -0.802 0.1066 -0.0614 0.4048 0.7013zm0.5062 -1.2277l0.1066 -0.0612 0.4631 0.8019 -0.1067 0.0617 -0.463 -0.8024zm1.0496 -0.6057c0.1094,-0.0631 0.2222,-0.0765 0.3392,-0.04 0.1169,0.0353 0.2081,0.109 0.2729,0.2216 0.0646,0.112 0.0833,0.2279 0.0556,0.3479 -0.027,0.1184 -0.0954,0.2094 -0.2046,0.2725l-0.3129 0.1805 -0.463 -0.8018 0.3128 -0.1807zm0.4046 0.7012c0.0821,-0.0472 0.1323,-0.1144 0.151,-0.2017 0.019,-0.0872 0.0039,-0.1737 -0.0456,-0.2593 -0.0492,-0.0855 -0.1166,-0.1417 -0.2016,-0.1692 -0.0852,-0.0274 -0.1682,-0.0171 -0.2501,0.0298l-0.2063 0.119 0.3468 0.6005 0.2058 -0.1191zm-3.6858 3.0261c0.1093,-0.063 0.2223,-0.0764 0.3392,-0.0397 0.1169,0.0351 0.2079,0.1088 0.2729,0.2213 0.0649,0.1122 0.0835,0.2281 0.0556,0.348 -0.027,0.1187 -0.0953,0.2094 -0.2046,0.2726l-0.3128 0.1807 -0.4629 -0.8023 0.3126 -0.1806zm0.4047 0.7011c0.082,-0.047 0.1321,-0.1142 0.1511,-0.2015 0.0189,-0.0874 0.0037,-0.1738 -0.0456,-0.2593 -0.0493,-0.0853 -0.1165,-0.142 -0.2017,-0.1692 -0.0852,-0.0272 -0.1684,-0.0173 -0.2503,0.0299l-0.2061 0.119 0.3468 0.6004 0.2058 -0.1193zm1.8005 -0.9047l-0.1691 -0.142 -0.3611 0.2081 0.0386 0.2178 -0.113 0.0654 -0.1644 -0.9745 0.1199 -0.0696 0.7625 0.6293 -0.1134 0.0655zm-0.5509 -0.0545l0.2873 -0.166 -0.3726 -0.3121 0.0853 0.4781zm1.4842 -1.5536l0.058 0.1007 -0.2371 0.1372 0.4049 0.701 -0.1054 0.0609 -0.4046 -0.7011 -0.2361 0.1361 -0.0584 -0.1008 0.5787 -0.334zm1.3501 0.1552l0.372 -0.2149 0.0584 0.1009 -0.4789 0.2765 -0.4632 -0.8021 0.4734 -0.2731 0.0582 0.1006 -0.3666 0.2119 0.1421 0.2462 0.338 -0.1952 0.0575 0.1 -0.3378 0.195 0.1469 0.2542z"/>
    <path id="_230614128" class="fil1" d="M127.788 168.35l67.8242 -39.1585c1.898,-1.0959 4.3256,-0.4454 5.4215,1.4525l22.7541 39.4116c1.0956,1.8979 0.4453,4.3257 -1.4525,5.4212l-67.8244 39.1585c-1.8979,1.0957 -4.3258,0.4453 -5.4214,-1.4527l-22.7542 -39.4113c-1.0959,-1.898 -0.4453,-4.326 1.4527,-5.4214z"/>
    <path id="_230624640" class="fil7" d="M144.208 191.309l0.22 -0.1271 1.4817 2.5666 -0.2567 0.1482 -1.3188 -2.2842 -0.4759 0.5045 -0.1931 -0.1816 0.5428 -0.6264zm3.5157 1.3921l-0.1334 -0.2312 0.3865 -1.4646c0.1114,-0.4161 0.1128,-0.7186 0.0041,-0.9068 -0.0944,-0.1636 -0.2191,-0.2611 -0.374,-0.2922 -0.1536,-0.0351 -0.3016,-0.0117 -0.4436,0.07 -0.2636,0.1525 -0.3859,0.3843 -0.3659,0.6955l-0.2905 -0.0034c-0.0111,-0.2055 0.03,-0.3889 0.1226,-0.55 0.0914,-0.1635 0.2215,-0.2941 0.3901,-0.3913 0.2052,-0.1184 0.4251,-0.1527 0.6594,-0.1022 0.2355,0.0466 0.4219,0.1884 0.5585,0.4253 0.086,0.1494 0.1273,0.3163 0.1232,0.501 -0.0041,0.1849 -0.0381,0.3969 -0.1021,0.6358l-0.3122 1.153 1.2649 -0.7303 0.144 0.2495 -1.6316 0.9419zm3.3416 -3.9287c0.2208,-0.0918 0.4357,-0.1095 0.6436,-0.0539 0.2094,0.0521 0.3762,0.1855 0.5002,0.4005 0.1409,0.2446 0.1681,0.4863 0.0813,0.7253 -0.0856,0.2355 -0.2482,0.4221 -0.4878,0.5605 -0.1909,0.1099 -0.3859,0.1643 -0.5859,0.1623 -0.2,-0.002 -0.3778,-0.0672 -0.5333,-0.1958l0.1408 -0.2474c0.1148,0.1033 0.245,0.1569 0.3908,0.1607 0.1442,0.0012 0.292,-0.0415 0.4436,-0.1292 0.176,-0.1016 0.2935,-0.2311 0.3522,-0.3892 0.06,-0.1612 0.0405,-0.3279 -0.0586,-0.499 -0.0986,-0.1711 -0.2321,-0.2698 -0.4007,-0.2963 -0.1676,-0.0304 -0.3391,0.005 -0.5151,0.1066l-0.0019 -0.0038 -0.0018 0.0059 -0.0697 0.0403 -0.2074 -0.1052 0.1341 -1.2407 -1.2062 0.6964 -0.1398 -0.2421 1.5032 -0.8679 0.1398 0.2421 -0.1214 1.1699zm4.7303 -1.7387l0.1397 0.242 -0.3297 0.1906 0.2961 0.5133 -0.2565 0.1481 -0.2963 -0.5133 -1.3566 0.7831 -0.1399 -0.2422 -0.0921 -2.3614 0.2822 -0.1628 0.0923 2.3613 1.0743 -0.6202 -0.4531 -0.7844 0.2568 -0.1483 0.4531 0.7846 0.3297 -0.1904zm6.5722 -4.8308c0.2395,-0.1384 0.4835,-0.1844 0.7314,-0.1387 0.249,0.0419 0.4442,0.185 0.5853,0.4294 0.1409,0.2443 0.1681,0.4863 0.0814,0.7253 -0.0856,0.2354 -0.2485,0.4222 -0.4879,0.5602 -0.193,0.1118 -0.392,0.1647 -0.5973,0.1594 -0.2068,-0.0079 -0.3876,-0.0844 -0.543,-0.2291l0.1446 -0.2495c0.1156,0.1155 0.2482,0.1791 0.3983,0.1902 0.1507,0.0073 0.3019,-0.0324 0.4533,-0.1201 0.1762,-0.1016 0.2937,-0.2313 0.3526,-0.389 0.0595,-0.1615 0.0405,-0.328 -0.0586,-0.4992 -0.0986,-0.1708 -0.2323,-0.2698 -0.4008,-0.2963 -0.1676,-0.0306 -0.3395,0.0049 -0.5151,0.1066l-0.6969 0.4021 -0.6488 -1.3357 1.3745 -0.7938 0.1398 0.2417 -1.1475 0.6626 0.4022 0.8235 0.4325 -0.2496zm3.2871 -2.0544c0.2519,-0.1452 0.5039,-0.1848 0.7571,-0.1191 0.2518,0.0631 0.4493,0.2195 0.5934,0.4687 0.1439,0.2493 0.181,0.5002 0.1118,0.752 -0.0714,0.2495 -0.2325,0.4472 -0.4843,0.5923 -0.2518,0.1453 -0.5038,0.1864 -0.7552,0.1232 -0.253,-0.0657 -0.4514,-0.2234 -0.5954,-0.4725 -0.1118,-0.1934 -0.1577,-0.3946 -0.1387,-0.6044l0.1177 -1.7348 0.2896 -0.1674 -0.0887 1.3026c0.0577,-0.0525 0.1217,-0.0996 0.1927,-0.1406zm0.2986 1.5334c0.1761,0.0455 0.3543,0.0158 0.5354,-0.0887 0.1808,-0.1045 0.2944,-0.2434 0.3411,-0.4168 0.0487,-0.175 0.0218,-0.3515 -0.0813,-0.5301 -0.1027,-0.1782 -0.2425,-0.2903 -0.4185,-0.3352 -0.1733,-0.0466 -0.3507,-0.0174 -0.5314,0.087 -0.181,0.1044 -0.2958,0.2441 -0.3446,0.4188 -0.0463,0.1736 -0.0184,0.3496 0.0848,0.5279 0.103,0.1787 0.2413,0.2909 0.4145,0.3371zm1.482 -3.7833l1.5765 -0.9102 0.1395 0.2421 0.3742 2.8833 -0.2677 0.1545 -0.3741 -2.8834 -1.3086 0.7558 -0.1398 -0.2421zm5.1818 -1.3345c0.1649,-0.0138 0.3168,0.0125 0.4564,0.0788 0.14,0.0622 0.2505,0.1632 0.3306,0.3024 0.1342,0.2324 0.1575,0.4617 0.0699,0.6882 -0.089,0.2241 -0.2557,0.4067 -0.5,0.5477 -0.2444,0.1413 -0.4858,0.1942 -0.7246,0.1593 -0.2398,-0.0375 -0.4267,-0.1724 -0.5611,-0.4047 -0.0802,-0.1391 -0.1136,-0.2841 -0.1,-0.4357 0.0147,-0.1549 0.0693,-0.3005 0.1635,-0.4366 -0.3021,0.0017 -0.5266,-0.1246 -0.6731,-0.3788 -0.133,-0.2296 -0.1586,-0.4493 -0.0773,-0.6592 0.0829,-0.211 0.2298,-0.3772 0.4402,-0.4985 0.21,-0.1213 0.4263,-0.1647 0.6482,-0.1301 0.2246,0.0334 0.4032,0.1649 0.5359,0.3946 0.1469,0.2543 0.1439,0.5117 -0.0086,0.7726zm-0.5993 -0.8859c-0.1417,-0.0193 -0.2857,0.0133 -0.4323,0.0981 -0.1468,0.0848 -0.2483,0.1938 -0.3047,0.3274 -0.054,0.1323 -0.0362,0.2764 0.0545,0.4328 0.0845,0.147 0.2004,0.2316 0.347,0.2544 0.1494,0.0212 0.2949,-0.0087 0.4367,-0.091 0.1417,-0.0816 0.2394,-0.1917 0.2929,-0.3304 0.0561,-0.1399 0.0418,-0.2831 -0.043,-0.4299 -0.0902,-0.1563 -0.2073,-0.2434 -0.3511,-0.2614zm0.3041 2.381c0.158,0.0197 0.3273,-0.0226 0.5083,-0.1273 0.1807,-0.1044 0.3021,-0.2298 0.3641,-0.3764 0.0605,-0.149 0.0451,-0.3031 -0.0467,-0.4621 -0.0917,-0.1587 -0.2166,-0.2478 -0.3746,-0.2674 -0.1593,-0.0221 -0.3293,0.019 -0.5101,0.1235 -0.1809,0.1044 -0.3017,0.2311 -0.3623,0.3804 -0.062,0.1462 -0.0471,0.299 0.0444,0.4578 0.0917,0.1592 0.2174,0.2494 0.3769,0.2715zm8.4032 -6.7631c0.1112,0.1932 0.1577,0.3946 0.1387,0.6045l-0.118 1.7349 -0.2895 0.1671 0.0888 -1.3026c-0.0575,0.0527 -0.1216,0.0997 -0.1925,0.1405 -0.2519,0.1456 -0.5037,0.1865 -0.7553,0.123 -0.253,-0.0655 -0.4517,-0.2228 -0.5953,-0.4725 -0.1442,-0.2492 -0.1804,-0.4987 -0.1095,-0.7483 0.0696,-0.2518 0.2303,-0.4504 0.4821,-0.5957 0.2517,-0.1456 0.5041,-0.1852 0.757,-0.1198 0.2515,0.0634 0.4495,0.2198 0.5935,0.4689zm-1.5512 0.3189c-0.0465,0.1737 -0.0183,0.3494 0.0844,0.5279 0.1034,0.1786 0.2414,0.2909 0.4151,0.3374 0.1759,0.0451 0.3541,0.0153 0.5352,-0.0891 0.1807,-0.1045 0.2944,-0.2433 0.3412,-0.4168 0.0486,-0.1751 0.0214,-0.3514 -0.0814,-0.5301 -0.1028,-0.1783 -0.2423,-0.2898 -0.4182,-0.3351 -0.1737,-0.0464 -0.351,-0.0175 -0.5317,0.0869 -0.1809,0.1043 -0.2957,0.244 -0.3446,0.4189zm5.7426 -0.808c-0.03,0.3371 -0.1994,0.5941 -0.5074,0.772 -0.308,0.1778 -0.6165,0.1965 -0.9257,0.0555 -0.3086,-0.1443 -0.5792,-0.4182 -0.812,-0.8216 -0.2328,-0.4033 -0.334,-0.7735 -0.3035,-1.1103 0.0312,-0.341 0.2007,-0.6002 0.5089,-0.7779 0.3078,-0.1778 0.6161,-0.1942 0.9242,-0.0498 0.3098,0.1409 0.5807,0.4129 0.8133,0.8162 0.2331,0.4033 0.3339,0.7756 0.3022,1.1159zm-1.3422 0.5453c0.2357,0.1148 0.4663,0.1075 0.6908,-0.0225 0.225,-0.1298 0.3453,-0.325 0.3615,-0.585 0.0186,-0.2614 -0.0713,-0.5633 -0.2689,-0.9057 -0.1973,-0.3422 -0.414,-0.5709 -0.6498,-0.6853 -0.2331,-0.1166 -0.4624,-0.1095 -0.6874,0.0206 -0.2246,0.1295 -0.3464,0.3253 -0.3649,0.5869 -0.0157,0.2602 0.075,0.5612 0.2724,0.9033 0.1975,0.3424 0.4131,0.5715 0.6463,0.6877zm2.5186 -4.2258l0.2202 -0.1268 1.4818 2.5662 -0.2569 0.1481 -1.3187 -2.2839 -0.4762 0.5046 -0.193 -0.1817 0.5428 -0.6265zm3.5158 1.392l-0.1334 -0.2309 0.3863 -1.4646c0.1117,-0.4166 0.1129,-0.7187 0.0047,-0.9068 -0.0949,-0.1639 -0.2196,-0.2615 -0.3742,-0.2925 -0.1543,-0.035 -0.3017,-0.0115 -0.4437,0.0703 -0.2639,0.1522 -0.3858,0.3841 -0.3659,0.6952l-0.2904 -0.0035c-0.011,-0.2056 0.03,-0.3887 0.1225,-0.5498 0.0915,-0.1633 0.2215,-0.2939 0.3899,-0.3913 0.2054,-0.1185 0.4252,-0.1527 0.6597,-0.1021 0.2357,0.0466 0.4213,0.1884 0.5586,0.4254 0.0859,0.1492 0.1269,0.316 0.1229,0.5009 -0.004,0.1847 -0.0383,0.3967 -0.1024,0.6358l-0.3117 1.1528 1.2648 -0.7302 0.144 0.2495 -1.6317 0.9418zm7.9601 -6.5953c0.221,-0.0912 0.4357,-0.1093 0.6437,-0.0536 0.2093,0.0519 0.3759,0.1855 0.5005,0.4007 0.1407,0.244 0.168,0.486 0.0811,0.7251 -0.0858,0.2352 -0.2484,0.4219 -0.4882,0.5604 -0.1903,0.1102 -0.3855,0.164 -0.5855,0.1623 -0.1999,-0.0018 -0.3776,-0.0674 -0.5333,-0.1956l0.1404 -0.2475c0.1154,0.1029 0.2454,0.1564 0.3912,0.1603 0.1442,0.0015 0.2922,-0.0415 0.4437,-0.129 0.1758,-0.1016 0.2932,-0.2312 0.3519,-0.3889 0.06,-0.1617 0.0407,-0.328 -0.0582,-0.4991 -0.099,-0.1711 -0.2325,-0.2701 -0.4011,-0.2965 -0.1673,-0.0305 -0.3391,0.0054 -0.5152,0.1069l-0.0021 -0.0036 -0.0016 0.0057 -0.0695 0.0402 -0.2076 -0.1053 0.1343 -1.2409 -1.2059 0.6964 -0.1397 -0.242 1.5029 -0.8677 0.1399 0.2419 -0.1217 1.1698zm4.7303 -1.7384l0.1398 0.2419 -0.3299 0.1904 0.2963 0.5133 -0.2567 0.1481 -0.2962 -0.5132 -1.3565 0.7832 -0.1398 -0.242 -0.0925 -2.3615 0.2824 -0.1629 0.0925 2.3614 1.0741 -0.6201 -0.4529 -0.7847 0.2567 -0.1481 0.4531 0.7846 0.3296 -0.1904zm1.9897 -2.185c0.2395,-0.1384 0.4836,-0.1847 0.7314,-0.1388 0.2493,0.042 0.4443,0.1851 0.5854,0.4297 0.1411,0.2442 0.1681,0.486 0.0812,0.7251 -0.0858,0.2352 -0.2482,0.422 -0.4878,0.5604 -0.1932,0.1114 -0.392,0.1647 -0.5975,0.1591 -0.2065,-0.0077 -0.3874,-0.0841 -0.5427,-0.2293l0.1444 -0.2494c0.1155,0.1154 0.2486,0.1792 0.3981,0.1905 0.1511,0.0075 0.3021,-0.0327 0.4538,-0.1201 0.1759,-0.1017 0.2934,-0.2314 0.3521,-0.3891 0.0596,-0.1619 0.0405,-0.3282 -0.0586,-0.4991 -0.0985,-0.1712 -0.2322,-0.2698 -0.4007,-0.2967 -0.1676,-0.0305 -0.3391,0.0054 -0.5153,0.107l-0.6964 0.402 -0.6491 -1.336 1.3746 -0.7938 0.1397 0.2421 -1.1472 0.6627 0.4019 0.8233 0.4327 -0.2496zm3.2869 -2.0542c0.252,-0.1455 0.5042,-0.1853 0.7575,-0.1196 0.2513,0.0633 0.449,0.2196 0.593,0.469 0.1441,0.2494 0.1813,0.4999 0.1116,0.7521 -0.0712,0.2494 -0.2323,0.4467 -0.4842,0.5921 -0.2515,0.1456 -0.5035,0.1864 -0.7549,0.1233 -0.253,-0.0658 -0.4515,-0.2235 -0.5953,-0.4726 -0.1116,-0.1932 -0.1577,-0.3947 -0.1389,-0.6046l0.1178 -1.7345 0.2894 -0.1671 -0.0885 1.3023c0.0574,-0.0527 0.1216,-0.0998 0.1925,-0.1404zm0.2986 1.5334c0.1762,0.0453 0.3548,0.0155 0.5353,-0.0891 0.1812,-0.1043 0.2947,-0.2433 0.3412,-0.4167 0.0491,-0.1749 0.022,-0.3516 -0.0813,-0.5298 -0.103,-0.1787 -0.2425,-0.2903 -0.4182,-0.3355 -0.1736,-0.0463 -0.3505,-0.0176 -0.5317,0.0868 -0.1806,0.1046 -0.2956,0.2442 -0.3447,0.4193 -0.0462,0.1732 -0.0182,0.3491 0.085,0.5279 0.103,0.178 0.2413,0.2907 0.4144,0.3371z"/>
    <path id="_230626272" class="fil3" d="M155.438 206.692c-0.2916,0.1681 -0.5883,0.2108 -0.8902,0.1288 -0.2996,-0.0836 -0.5306,-0.2653 -0.6927,-0.546 -0.1618,-0.2804 -0.2038,-0.5714 -0.1265,-0.8731 0.0796,-0.3024 0.2653,-0.5377 0.5569,-0.7061 0.1758,-0.1016 0.3614,-0.1524 0.557,-0.153 0.1968,-0.0011 0.3779,0.0457 0.5431,0.141l-0.1482 0.2577c-0.1164,-0.0744 -0.2473,-0.111 -0.3934,-0.11 -0.1453,-0.0013 -0.284,0.0358 -0.4158,0.112 -0.2219,0.1279 -0.3622,0.3042 -0.4204,0.5285 -0.0572,0.2238 -0.0234,0.4425 0.1004,0.6572 0.1227,0.2123 0.295,0.35 0.5171,0.4126 0.2234,0.0615 0.4461,0.0282 0.6683,-0.1 0.1316,-0.0762 0.2339,-0.1765 0.3059,-0.3013 0.0731,-0.128 0.1067,-0.2596 0.1015,-0.3957l0.2958 -0.0024c0.0016,0.1895 -0.0465,0.3703 -0.1451,0.5422 -0.1,0.1703 -0.2378,0.3059 -0.4137,0.4076zm3.0325 -1.7986l-0.4058 -0.3415 -0.8662 0.5001 0.0925 0.5224 -0.2721 0.1572 -0.3935 -2.3393 0.2886 -0.1665 1.8289 1.5103 -0.2724 0.1573zm-1.3219 -0.1315l0.6898 -0.3982 -0.8939 -0.7486 0.2041 1.1468zm3.6498 -1.2127l-0.8571 -0.4877 -0.4535 0.262 0.4253 0.737 -0.2559 0.1475 -1.1112 -1.9245 0.77 -0.4446c0.1649,-0.0954 0.3398,-0.1183 0.525,-0.0686 0.184,0.0478 0.3237,0.1542 0.4189,0.3193 0.072,0.1244 0.1,0.2599 0.0842,0.406 -0.014,0.1447 -0.0677,0.2724 -0.1607,0.3824l0.8985 0.5077 -0.2835 0.1635zm-1.8585 -1.1742l0.4145 0.7175 0.514 -0.2969c0.0954,-0.0549 0.1558,-0.1362 0.1818,-0.2442 0.0265,-0.1105 0.011,-0.2152 -0.0461,-0.3144 -0.0573,-0.0989 -0.1396,-0.1638 -0.2476,-0.1941 -0.1064,-0.0314 -0.2069,-0.0197 -0.3022,0.0352l-0.5144 0.2969zm2.7252 -1.8923c0.2622,-0.1514 0.5334,-0.1834 0.8138,-0.0958 0.2808,0.0847 0.4991,0.2616 0.6547,0.5311 0.1557,0.2694 0.2001,0.5478 0.1344,0.8355 -0.0659,0.2845 -0.2296,0.5025 -0.4917,0.6538l-0.7504 0.4333 -1.1114 -1.9247 0.7506 -0.4332zm0.9715 1.6827c0.1961,-0.1132 0.317,-0.2746 0.3621,-0.4842 0.0457,-0.2093 0.0089,-0.4166 -0.1097,-0.622 -0.1187,-0.2052 -0.2799,-0.3407 -0.4841,-0.4061 -0.2039,-0.0656 -0.404,-0.0419 -0.5999,0.0714l-0.4953 0.2857 0.832 1.4409 0.4949 -0.2857z"/>
    <path id="_230626656" class="fil1" d="M70.0227 130.21l67.8241 -39.1584c1.8976,-1.0958 4.3257,-0.4452 5.4214,1.4528l22.7542 39.4111c1.0958,1.898 0.445,4.3258 -1.4528,5.4215l-67.8243 39.1584c-1.8977,1.0956 -4.3254,0.4449 -5.4211,-1.4528l-22.7543 -39.4113c-1.0957,-1.8981 -0.4451,-4.3258 1.4529,-5.4217z"/>
    <path id="_231367680" class="fil8" d="M86.4422 153.169l0.2199 -0.1271 1.4818 2.5665 -0.2567 0.1482 -1.3187 -2.2841 -0.4762 0.5047 -0.1928 -0.1819 0.5427 -0.6263zm3.5159 1.392l-0.1335 -0.2311 0.3861 -1.4644c0.1118,-0.4163 0.1132,-0.7189 0.0045,-0.9071 -0.0945,-0.1636 -0.2191,-0.2608 -0.3741,-0.2923 -0.1539,-0.0348 -0.3016,-0.0116 -0.4435,0.0706 -0.264,0.1524 -0.386,0.3837 -0.3658,0.6948l-0.2905 -0.0034c-0.0111,-0.2052 0.0297,-0.3887 0.1223,-0.5497 0.0915,-0.1634 0.2219,-0.294 0.3901,-0.3912 0.2056,-0.1187 0.4253,-0.1525 0.6597,-0.1024 0.2353,0.0466 0.4214,0.1886 0.5585,0.4257 0.0858,0.1492 0.127,0.3161 0.123,0.5007 -0.0042,0.1851 -0.038,0.3969 -0.1023,0.6358l-0.3121 1.1531 1.2652 -0.7302 0.1438 0.2492 -1.6314 0.9419zm3.3417 -3.9285c0.2207,-0.0919 0.4352,-0.1096 0.6435,-0.054 0.2089,0.0521 0.3755,0.1856 0.5001,0.4006 0.1408,0.2444 0.1682,0.4864 0.0814,0.7255 -0.0858,0.2353 -0.2484,0.4219 -0.4881,0.5602 -0.1905,0.1099 -0.3859,0.1643 -0.5856,0.1622 -0.2,-0.0019 -0.3779,-0.067 -0.5335,-0.1957l0.1408 -0.2474c0.1147,0.1031 0.2451,0.1568 0.391,0.1607 0.1442,0.0015 0.2919,-0.0415 0.4434,-0.1292 0.1761,-0.1016 0.2936,-0.2312 0.3522,-0.3888 0.06,-0.1617 0.0403,-0.3283 -0.0584,-0.4993 -0.0987,-0.171 -0.2325,-0.2698 -0.4009,-0.2964 -0.1673,-0.0303 -0.339,0.005 -0.5152,0.1065l-0.0021 -0.0035 -0.0016 0.0057 -0.0698 0.0403 -0.2071 -0.105 0.134 -1.241 -1.2061 0.6962 -0.1396 -0.2415 1.5029 -0.8681 0.1398 0.2422 -0.1211 1.1698zm4.7301 -1.7388l0.1397 0.242 -0.3299 0.1905 0.2963 0.5133 -0.2565 0.1483 -0.2962 -0.5133 -1.3569 0.783 -0.1395 -0.242 -0.0928 -2.3615 0.2823 -0.1631 0.0927 2.3617 1.0744 -0.6202 -0.4529 -0.7845 0.2565 -0.1483 0.4528 0.7845 0.33 -0.1904zm6.5722 -4.8308c0.2397,-0.1384 0.4831,-0.1845 0.7315,-0.1386 0.2489,0.0417 0.4443,0.1847 0.585,0.4294 0.1412,0.2443 0.1685,0.4861 0.0815,0.7254 -0.0855,0.2352 -0.2483,0.4219 -0.4877,0.56 -0.1931,0.1117 -0.3924,0.1648 -0.5975,0.1596 -0.2065,-0.0081 -0.3875,-0.0844 -0.543,-0.2293l0.1447 -0.2495c0.1155,0.1156 0.2484,0.1791 0.3981,0.1901 0.1509,0.0074 0.302,-0.0323 0.4539,-0.1199 0.1759,-0.1018 0.2933,-0.2313 0.3519,-0.3887 0.0597,-0.162 0.0404,-0.3283 -0.0584,-0.4998 -0.0987,-0.1707 -0.2325,-0.2696 -0.4007,-0.2961 -0.1677,-0.0305 -0.3393,0.0049 -0.5152,0.1065l-0.6965 0.4024 -0.6495 -1.3359 1.375 -0.7939 0.1397 0.2418 -1.1474 0.6626 0.4022 0.8236 0.4324 -0.2497zm3.287 -2.0542c0.2516,-0.1451 0.5042,-0.185 0.7574,-0.1193 0.2516,0.0631 0.4492,0.2195 0.593,0.4688 0.1441,0.2492 0.1814,0.5 0.1118,0.752 -0.0712,0.2494 -0.2326,0.4468 -0.4842,0.5922 -0.2519,0.1454 -0.5035,0.1865 -0.7552,0.1232 -0.253,-0.0658 -0.4512,-0.2234 -0.5951,-0.4726 -0.1119,-0.1932 -0.1577,-0.3944 -0.1391,-0.6043l0.1181 -1.7349 0.2892 -0.1672 -0.0885 1.3028c0.0574,-0.0529 0.1218,-0.0999 0.1926,-0.1407zm0.2988 1.5336c0.176,0.0451 0.3543,0.0154 0.5351,-0.0889 0.1808,-0.1047 0.2946,-0.2434 0.3413,-0.417 0.0487,-0.1749 0.0218,-0.3516 -0.0814,-0.53 -0.1029,-0.1785 -0.2424,-0.2899 -0.4183,-0.3355 -0.1735,-0.0463 -0.3509,-0.0173 -0.5317,0.087 -0.1808,0.1045 -0.2956,0.2442 -0.3445,0.419 -0.0466,0.1737 -0.0184,0.3496 0.0848,0.5277 0.1029,0.1787 0.2411,0.2913 0.4147,0.3377zm1.4817 -3.7838l1.5766 -0.9101 0.1398 0.2421 0.374 2.8832 -0.2677 0.1544 -0.374 -2.8829 -1.309 0.7554 -0.1397 -0.2421zm5.1818 -1.3342c0.1648,-0.0141 0.3169,0.0125 0.4562,0.0787 0.1405,0.0623 0.2509,0.1632 0.3311,0.3022 0.1337,0.2324 0.1573,0.4617 0.0696,0.6883 -0.0889,0.224 -0.2556,0.4067 -0.4999,0.5477 -0.2443,0.1414 -0.4859,0.1941 -0.7247,0.1593 -0.2398,-0.0373 -0.4267,-0.1723 -0.5608,-0.4046 -0.0801,-0.139 -0.1138,-0.2844 -0.1,-0.4355 0.0147,-0.1551 0.0691,-0.3008 0.1633,-0.4368 -0.3018,0.0017 -0.5266,-0.1246 -0.673,-0.3787 -0.133,-0.2298 -0.1587,-0.4495 -0.0778,-0.6592 0.0835,-0.2113 0.2304,-0.3774 0.4403,-0.4988 0.2105,-0.1212 0.4266,-0.1646 0.6486,-0.1297 0.2247,0.033 0.4033,0.1646 0.5357,0.3946 0.1469,0.2539 0.1439,0.5114 -0.0086,0.7725zm-0.5992 -0.8861c-0.1418,-0.0193 -0.2855,0.0136 -0.4324,0.0981 -0.1465,0.0847 -0.2481,0.1939 -0.3046,0.3275 -0.054,0.1323 -0.0359,0.2764 0.0546,0.4329 0.0848,0.1467 0.2003,0.2315 0.3469,0.2542 0.1495,0.0213 0.295,-0.0088 0.4366,-0.0908 0.1415,-0.0818 0.2392,-0.1919 0.293,-0.3305 0.0562,-0.14 0.0418,-0.2832 -0.0428,-0.4297 -0.0904,-0.1565 -0.2075,-0.2436 -0.3513,-0.2617zm0.3039 2.381c0.158,0.0196 0.3275,-0.0227 0.5083,-0.1271 0.181,-0.1045 0.3024,-0.2301 0.3644,-0.3765 0.0604,-0.1492 0.0449,-0.3031 -0.0466,-0.4621 -0.0919,-0.1588 -0.2167,-0.248 -0.3748,-0.2674 -0.1591,-0.0222 -0.3293,0.0191 -0.5102,0.1235 -0.1807,0.1043 -0.3018,0.231 -0.3623,0.3802 -0.0621,0.1465 -0.0471,0.2991 0.0447,0.458 0.0917,0.1591 0.2171,0.2496 0.3765,0.2714zm8.4035 -6.7631c0.1113,0.1933 0.1578,0.3946 0.1386,0.6045l-0.1178 1.7347 -0.2897 0.1674 0.0888 -1.3024c-0.0576,0.0528 -0.1217,0.0996 -0.1925,0.1403 -0.2519,0.1456 -0.5033,0.1864 -0.7553,0.123 -0.2531,-0.0655 -0.4514,-0.2231 -0.5956,-0.4727 -0.1438,-0.2493 -0.1803,-0.4987 -0.1091,-0.7482 0.0697,-0.2518 0.2301,-0.4504 0.4823,-0.5956 0.2514,-0.1458 0.5037,-0.1854 0.7567,-0.1197 0.2518,0.0631 0.4497,0.2196 0.5936,0.4687zm-1.5513 0.3189c-0.0465,0.1736 -0.0181,0.3497 0.0846,0.5279 0.1033,0.1787 0.2412,0.2909 0.4149,0.3374 0.176,0.0451 0.3543,0.0154 0.5353,-0.089 0.1806,-0.1043 0.2942,-0.2434 0.3408,-0.4171 0.049,-0.1749 0.0219,-0.3512 -0.0808,-0.5299 -0.1034,-0.1783 -0.2427,-0.2901 -0.4188,-0.3351 -0.1732,-0.0463 -0.3505,-0.0175 -0.5312,0.087 -0.181,0.1043 -0.2958,0.2438 -0.3448,0.4188zm5.7427 -0.8077c-0.0304,0.3368 -0.1995,0.5939 -0.5073,0.7718 -0.3081,0.1776 -0.6166,0.1963 -0.9264,0.0558 -0.3079,-0.1447 -0.5787,-0.4186 -0.8114,-0.822 -0.2328,-0.4033 -0.3339,-0.7734 -0.3041,-1.1103 0.0318,-0.3408 0.2016,-0.6002 0.5093,-0.7778 0.3082,-0.1778 0.6163,-0.1944 0.9245,-0.05 0.3096,0.1411 0.5803,0.4131 0.8133,0.8162 0.2327,0.4035 0.3336,0.7755 0.3021,1.1163zm-1.3423 0.5449c0.2358,0.1149 0.466,0.1075 0.6909,-0.0225 0.2248,-0.1294 0.3454,-0.3245 0.3612,-0.585 0.0185,-0.2612 -0.071,-0.5632 -0.2686,-0.9057 -0.1974,-0.342 -0.4139,-0.5704 -0.6497,-0.6851 -0.2334,-0.1163 -0.4626,-0.1095 -0.6874,0.0202 -0.2251,0.1299 -0.3464,0.3257 -0.3648,0.5874 -0.0162,0.2598 0.0747,0.561 0.2722,0.903 0.1977,0.3424 0.4129,0.5717 0.6462,0.6877zm2.5187 -4.2255l0.22 -0.1271 1.482 2.5662 -0.2569 0.1481 -1.3187 -2.2838 -0.4762 0.5046 -0.1929 -0.1819 0.5427 -0.6261zm3.5155 1.3919l-0.1333 -0.2311 0.3865 -1.4644c0.1116,-0.4168 0.1131,-0.7187 0.0045,-0.9069 -0.0945,-0.1638 -0.2194,-0.2614 -0.3741,-0.2924 -0.154,-0.0353 -0.3017,-0.0117 -0.4436,0.0699 -0.2639,0.1526 -0.3858,0.3845 -0.366,0.6956l-0.2902 -0.0035c-0.0112,-0.2056 0.0295,-0.3887 0.1226,-0.5498 0.0912,-0.1635 0.221,-0.2939 0.3898,-0.3912 0.2055,-0.1187 0.4253,-0.1528 0.6595,-0.1023 0.2356,0.0466 0.4216,0.1884 0.5586,0.4254 0.0861,0.1491 0.1271,0.316 0.1228,0.501 -0.0041,0.1849 -0.038,0.3967 -0.1021,0.6357l-0.3119 1.1527 1.2646 -0.7301 0.1439 0.2495 -1.6316 0.9419zm7.9606 -6.5952c0.2209,-0.0915 0.4352,-0.1094 0.6435,-0.0538 0.2093,0.0519 0.3757,0.1856 0.5,0.4006 0.1412,0.2442 0.1681,0.486 0.0817,0.7252 -0.0861,0.2352 -0.2487,0.4221 -0.4881,0.5605 -0.1906,0.1101 -0.3858,0.1639 -0.5858,0.1621 -0.1997,-0.0018 -0.3776,-0.0671 -0.5335,-0.1955l0.1409 -0.2474c0.1148,0.1029 0.2451,0.1565 0.3908,0.1604 0.144,0.0014 0.292,-0.0416 0.4437,-0.129 0.1758,-0.1015 0.2933,-0.2315 0.3521,-0.389 0.0598,-0.1617 0.0404,-0.3281 -0.0585,-0.4992 -0.0986,-0.171 -0.2321,-0.27 -0.4009,-0.2966 -0.1673,-0.0303 -0.3391,0.0054 -0.5151,0.107l-0.0022 -0.0037 -0.0015 0.0058 -0.0695 0.0403 -0.2076 -0.1053 0.1344 -1.2407 -1.2063 0.6963 -0.1396 -0.242 1.503 -0.8679 0.14 0.2423 -0.1215 1.1696zm4.7301 -1.7385l0.1398 0.2417 -0.3298 0.1905 0.2961 0.5132 -0.2567 0.1482 -0.2963 -0.5131 -1.3565 0.783 -0.1396 -0.2417 -0.0923 -2.3615 0.2823 -0.163 0.0922 2.3614 1.0742 -0.6204 -0.4529 -0.7846 0.2568 -0.1481 0.4528 0.7848 0.3299 -0.1904zm1.9896 -2.1851c0.2396,-0.1384 0.4832,-0.1846 0.7315,-0.1388 0.2489,0.042 0.444,0.1849 0.5853,0.4296 0.1409,0.2443 0.168,0.4859 0.0812,0.7253 -0.0856,0.2351 -0.2484,0.4219 -0.4878,0.5601 -0.1931,0.1116 -0.3922,0.1649 -0.5974,0.1592 -0.2065,-0.0075 -0.3875,-0.084 -0.5427,-0.2291l0.1445 -0.2496c0.1155,0.1157 0.2481,0.1791 0.3981,0.1907 0.151,0.0072 0.3022,-0.033 0.4537,-0.1201 0.176,-0.1017 0.2935,-0.2317 0.3521,-0.3894 0.06,-0.1616 0.0403,-0.328 -0.0584,-0.499 -0.0988,-0.1711 -0.2323,-0.2698 -0.4009,-0.2965 -0.1673,-0.0303 -0.3393,0.0052 -0.515,0.1071l-0.6968 0.4019 -0.6492 -1.3362 1.375 -0.7936 0.1396 0.2419 -1.1474 0.6626 0.4022 0.8236 0.4324 -0.2497zm3.2871 -2.0543c0.2515,-0.145 0.5038,-0.1851 0.757,-0.1192 0.2518,0.0632 0.4495,0.2194 0.5933,0.4689 0.144,0.2492 0.1813,0.4997 0.1118,0.7518 -0.0712,0.2495 -0.2326,0.4469 -0.4844,0.5925 -0.2518,0.1452 -0.5034,0.1863 -0.7549,0.123 -0.2531,-0.0659 -0.4514,-0.2232 -0.5953,-0.4724 -0.1117,-0.1934 -0.1579,-0.3946 -0.1389,-0.6046l0.1179 -1.7347 0.2895 -0.1672 -0.0886 1.3027c0.0574,-0.0528 0.1216,-0.0998 0.1926,-0.1408zm0.2988 1.5338c0.1757,0.0448 0.354,0.0152 0.5352,-0.0894 0.1808,-0.1042 0.2946,-0.2432 0.3408,-0.4167 0.0493,-0.1748 0.0222,-0.3516 -0.0811,-0.5298 -0.1029,-0.1789 -0.2424,-0.2904 -0.4182,-0.3353 -0.1736,-0.0466 -0.3506,-0.0177 -0.5315,0.0869 -0.1811,0.1044 -0.2961,0.2441 -0.3447,0.4189 -0.0468,0.1734 -0.0185,0.3492 0.0849,0.5279 0.1027,0.1783 0.2409,0.2907 0.4146,0.3375z"/>
    <path id="_231367800" class="fil3" d="M97.4516 168.678c-0.2914,0.1683 -0.5878,0.211 -0.89,0.1288 -0.2996,-0.0837 -0.5306,-0.2653 -0.6926,-0.5456 -0.1619,-0.2807 -0.204,-0.5718 -0.1265,-0.8734 0.0797,-0.3023 0.2651,-0.5378 0.5565,-0.7062 0.176,-0.1015 0.3617,-0.1523 0.5571,-0.1529 0.1972,-0.0012 0.378,0.0459 0.5434,0.1413l-0.1482 0.2574c-0.1165,-0.0743 -0.2478,-0.1112 -0.3935,-0.11 -0.1452,-0.0014 -0.2839,0.0358 -0.4158,0.112 -0.222,0.128 -0.3621,0.3043 -0.4205,0.5287 -0.0568,0.2237 -0.0232,0.4422 0.1003,0.6569 0.1229,0.2123 0.2952,0.35 0.5174,0.4125 0.2234,0.0615 0.4462,0.0283 0.6677,-0.0998 0.1323,-0.0763 0.2344,-0.1766 0.3065,-0.3014 0.0727,-0.1275 0.1067,-0.2594 0.1013,-0.3957l0.2959 -0.0022c0.0018,0.1895 -0.0467,0.3702 -0.1451,0.5422 -0.0999,0.1701 -0.238,0.306 -0.4139,0.4074zm3.033 -1.7986l-0.406 -0.3414 -0.8662 0.5001 0.0926 0.5224 -0.2724 0.1569 -0.3937 -2.339 0.289 -0.1667 1.8288 1.5104 -0.2721 0.1573zm-1.3223 -0.1312l0.6901 -0.3986 -0.8942 -0.7483 0.2041 1.1469zm3.65 -1.2128l-0.8572 -0.4879 -0.4539 0.2621 0.4258 0.7369 -0.256 0.1476 -1.1111 -1.9247 0.7699 -0.4443c0.1651,-0.0952 0.34,-0.1182 0.5251,-0.0685 0.184,0.0474 0.3236,0.1539 0.4189,0.3189 0.072,0.1246 0.1002,0.2602 0.0842,0.4063 -0.0143,0.145 -0.0677,0.272 -0.1607,0.3823l0.8983 0.5077 -0.2833 0.1636zm-1.8584 -1.1743l0.4144 0.7176 0.5139 -0.2969c0.0952,-0.0552 0.1558,-0.1364 0.1818,-0.2444 0.0264,-0.1106 0.0113,-0.2152 -0.0461,-0.3142 -0.0571,-0.0988 -0.1396,-0.1638 -0.2476,-0.1943 -0.1063,-0.0313 -0.2072,-0.0198 -0.3023,0.0354l-0.5141 0.2968zm2.7252 -1.8923c0.2618,-0.1514 0.5331,-0.1835 0.8136,-0.0959 0.2808,0.0846 0.4991,0.262 0.6547,0.531 0.1558,0.2697 0.2001,0.5479 0.1343,0.8357 -0.0656,0.2846 -0.2296,0.5024 -0.4913,0.6537l-0.751 0.4334 -1.1111 -1.9246 0.7508 -0.4333zm0.9716 1.6828c0.196,-0.1133 0.3167,-0.2748 0.3618,-0.484 0.0454,-0.2096 0.0087,-0.4169 -0.1098,-0.6224 -0.1185,-0.2052 -0.2799,-0.3407 -0.4841,-0.406 -0.204,-0.0657 -0.4038,-0.0419 -0.5999,0.0714l-0.495 0.2859 0.8319 1.4406 0.4951 -0.2855z"/>
    <path id="_231369144" class="fil3" d="M131.977 104.216l-0.1 -0.1732 0.2898 -1.0983c0.0837,-0.3125 0.0847,-0.5393 0.0031,-0.6802 -0.0708,-0.1228 -0.1645,-0.1958 -0.2807,-0.2193 -0.1153,-0.0263 -0.2262,-0.0088 -0.3323,0.0526 -0.1981,0.1142 -0.2893,0.2883 -0.2744,0.5215l-0.2179 -0.0025c-0.0083,-0.154 0.022,-0.2914 0.0918,-0.4124 0.0684,-0.1228 0.1661,-0.2204 0.2926,-0.2933 0.1538,-0.089 0.3189,-0.1145 0.4946,-0.0768 0.1766,0.0349 0.3161,0.1413 0.4186,0.319 0.0646,0.112 0.0955,0.2371 0.0924,0.3755 -0.0027,0.139 -0.0284,0.298 -0.0767,0.4771l-0.2337 0.8646 0.9483 -0.5478 0.1081 0.1871 -1.2236 0.7064zm2.8029 -1.9335c-0.0228,0.2527 -0.1499,0.4459 -0.3808,0.5792 -0.231,0.1333 -0.4626,0.147 -0.6947,0.0417 -0.231,-0.1083 -0.4339,-0.3138 -0.6087,-0.6163 -0.1747,-0.3025 -0.2504,-0.58 -0.2277,-0.8327 0.0235,-0.2556 0.151,-0.4499 0.3817,-0.5833 0.231,-0.1335 0.4624,-0.1458 0.6936,-0.0374 0.2319,0.1056 0.4351,0.3097 0.6097,0.612 0.1747,0.3022 0.2504,0.5816 0.2269,0.8368zm-1.007 0.4091c0.1769,0.086 0.3497,0.0806 0.5182,-0.017 0.1688,-0.0973 0.2591,-0.2435 0.2708,-0.4385 0.0143,-0.1961 -0.053,-0.4224 -0.2013,-0.6793 -0.1481,-0.2566 -0.3103,-0.428 -0.4874,-0.514 -0.1751,-0.0875 -0.3469,-0.0822 -0.5155,0.0153 -0.1687,0.0973 -0.2598,0.2439 -0.2735,0.4403 -0.0124,0.1948 0.0561,0.4209 0.204,0.6775 0.1482,0.2568 0.3098,0.4287 0.4847,0.5157zm2.1084 -0.363l-0.1375 0.0795 -0.3288 -3.1098 0.1375 -0.0794 0.3288 3.1097zm1.3908 -1.1696l-0.0998 -0.1732 0.2897 -1.0985c0.0835,-0.3121 0.0846,-0.539 0.003,-0.6804 -0.0709,-0.1227 -0.1644,-0.1956 -0.2803,-0.2193 -0.1155,-0.026 -0.2261,-0.0083 -0.3327,0.0531 -0.1976,0.1141 -0.2895,0.2882 -0.2746,0.5213l-0.2177 -0.0026c-0.0083,-0.1543 0.0224,-0.2915 0.0919,-0.4124 0.0685,-0.1224 0.166,-0.2207 0.2925,-0.2934 0.1541,-0.0889 0.3189,-0.1145 0.4948,-0.0768 0.1765,0.0351 0.3162,0.1413 0.4188,0.3191 0.0646,0.1119 0.0954,0.2371 0.092,0.3758 -0.0029,0.1386 -0.0286,0.2976 -0.0764,0.4768l-0.2344 0.8648 0.9491 -0.5477 0.1081 0.1867 -1.224 0.7067zm2.709 -2.3195l0.1051 0.1815 -0.2474 0.143 0.2219 0.3849 -0.1924 0.1111 -0.2223 -0.3851 -1.0171 0.5874 -0.1048 -0.1813 -0.0696 -1.771 0.2119 -0.1224 0.069 1.7711 0.806 -0.4653 -0.3398 -0.5882 0.1924 -0.1112 0.3399 0.5881 0.2472 -0.1426z"/>
    <path id="_231369840" class="fil3" d="M123.758 107.434l-0.7493 -0.6366 0.1146 -0.0661 0.6188 0.5347 -0.1547 -0.8028 0.1156 -0.0666 0.1754 0.9679 -0.1204 0.0695zm1.4425 -0.8329l-0.1691 -0.1419 -0.3609 0.2079 0.0386 0.2178 -0.1136 0.0654 -0.164 -0.9744 0.1204 -0.0695 0.7621 0.6292 -0.1135 0.0655zm-0.5508 -0.0545l0.2876 -0.166 -0.3726 -0.3122 0.085 0.4782zm1.2655 -0.4925l0.3458 -0.1998 0.0584 0.1009 -0.4522 0.2612 -0.4633 -0.802 0.1063 -0.0614 0.405 0.7011zm0.5065 -1.2271l0.1065 -0.0615 0.463 0.802 -0.1067 0.0613 -0.4628 -0.8018zm1.0495 -0.6061c0.1091,-0.063 0.2222,-0.0763 0.3389,-0.0399 0.1171,0.0351 0.2081,0.1091 0.2733,0.2216 0.0645,0.1119 0.0829,0.2279 0.0553,0.3477 -0.027,0.1187 -0.0952,0.2096 -0.2045,0.2726l-0.3127 0.1808 -0.4631 -0.8024 0.3128 -0.1804zm0.4048 0.7013c0.0817,-0.0471 0.132,-0.1145 0.1508,-0.2017 0.0188,-0.0874 0.0036,-0.1739 -0.0459,-0.2594 -0.0491,-0.0853 -0.1162,-0.142 -0.2016,-0.1694 -0.0849,-0.0273 -0.1681,-0.017 -0.2501,0.0299l-0.206 0.1193 0.3467 0.6003 0.2061 -0.119zm-3.6859 3.0262c0.1092,-0.0629 0.2219,-0.0765 0.3388,-0.0399 0.1173,0.0352 0.2081,0.1089 0.2733,0.2212 0.0648,0.1123 0.0831,0.2282 0.0555,0.3481 -0.0272,0.1185 -0.0954,0.2095 -0.2048,0.2725l-0.3123 0.1807 -0.4635 -0.8023 0.313 -0.1803zm0.4049 0.7012c0.0815,-0.0472 0.1318,-0.1145 0.1507,-0.2016 0.0191,-0.0872 0.0038,-0.1739 -0.0459,-0.2594 -0.0491,-0.0855 -0.1163,-0.142 -0.2016,-0.1693 -0.085,-0.0272 -0.1682,-0.0172 -0.2499,0.0298l-0.2063 0.1191 0.3467 0.6004 0.2063 -0.119zm1.7998 -0.905l-0.169 -0.1422 -0.361 0.2086 0.0387 0.2175 -0.1136 0.0653 -0.1638 -0.9747 0.1203 -0.0693 0.7621 0.6295 -0.1137 0.0653zm-0.551 -0.0545l0.2879 -0.166 -0.3727 -0.3121 0.0848 0.4781zm1.4844 -1.5535l0.0583 0.1006 -0.2373 0.137 0.4051 0.7012 -0.1056 0.0609 -0.4049 -0.701 -0.236 0.1363 -0.0582 -0.1011 0.5786 -0.3339zm1.3501 0.1553l0.3724 -0.2149 0.0582 0.1009 -0.4789 0.2765 -0.463 -0.802 0.4731 -0.2734 0.0582 0.1009 -0.3669 0.2116 0.1424 0.2463 0.3381 -0.1949 0.0575 0.0997 -0.3378 0.1947 0.1467 0.2546z"/>
   </g>
  </g>
  <polygon class="fil9" points="0.0001,-0.05 162.719,-0.05 162.719,188.598 0.0001,188.598 "/>
 </g>
</svg>
