<svg width="870" height="533" viewBox="0 0 870 533" fill="none" xmlns="http://www.w3.org/2000/svg">
<path d="M6.23047 524.662H3.94531V531H3.0127V524.662H0.732422V523.891H6.23047V524.662ZM8.84766 531.098C8.13151 531.098 7.54883 530.863 7.09961 530.395C6.65039 529.923 6.42578 529.293 6.42578 528.505V528.339C6.42578 527.815 6.52507 527.348 6.72363 526.938C6.92546 526.524 7.2054 526.202 7.56348 525.971C7.9248 525.736 8.31543 525.619 8.73535 525.619C9.4222 525.619 9.95605 525.845 10.3369 526.298C10.7178 526.75 10.9082 527.398 10.9082 528.241V528.617H7.3291C7.34212 529.138 7.49349 529.56 7.7832 529.882C8.07617 530.201 8.44727 530.36 8.89648 530.36C9.21549 530.36 9.48568 530.295 9.70703 530.165C9.92839 530.035 10.1221 529.862 10.2881 529.647L10.8398 530.077C10.3971 530.757 9.73307 531.098 8.84766 531.098ZM8.73535 526.361C8.37077 526.361 8.06478 526.495 7.81738 526.762C7.56999 527.025 7.41699 527.396 7.3584 527.875H10.0049V527.807C9.97884 527.348 9.85514 526.993 9.63379 526.742C9.41243 526.488 9.11296 526.361 8.73535 526.361ZM13.7305 527.646L14.9023 525.717H15.957L14.2285 528.329L16.0107 531H14.9658L13.7451 529.022L12.5244 531H11.4746L13.2568 528.329L11.5283 525.717H12.5732L13.7305 527.646ZM18.1445 524.438V525.717H19.1309V526.415H18.1445V529.691C18.1445 529.903 18.1885 530.062 18.2764 530.17C18.3643 530.274 18.514 530.326 18.7256 530.326C18.8298 530.326 18.973 530.307 19.1553 530.268V531C18.9176 531.065 18.6865 531.098 18.4619 531.098C18.0583 531.098 17.7539 530.976 17.5488 530.731C17.3438 530.487 17.2412 530.141 17.2412 529.691V526.415H16.2793V525.717H17.2412V524.438H18.1445Z" fill="#A3A3A3"/>
<path d="M125.23 524.662H122.945V531H122.013V524.662H119.732V523.891H125.23V524.662ZM127.848 531.098C127.132 531.098 126.549 530.863 126.1 530.395C125.65 529.923 125.426 529.293 125.426 528.505V528.339C125.426 527.815 125.525 527.348 125.724 526.938C125.925 526.524 126.205 526.202 126.563 525.971C126.925 525.736 127.315 525.619 127.735 525.619C128.422 525.619 128.956 525.845 129.337 526.298C129.718 526.75 129.908 527.398 129.908 528.241V528.617H126.329C126.342 529.138 126.493 529.56 126.783 529.882C127.076 530.201 127.447 530.36 127.896 530.36C128.215 530.36 128.486 530.295 128.707 530.165C128.928 530.035 129.122 529.862 129.288 529.647L129.84 530.077C129.397 530.757 128.733 531.098 127.848 531.098ZM127.735 526.361C127.371 526.361 127.065 526.495 126.817 526.762C126.57 527.025 126.417 527.396 126.358 527.875H129.005V527.807C128.979 527.348 128.855 526.993 128.634 526.742C128.412 526.488 128.113 526.361 127.735 526.361ZM132.73 527.646L133.902 525.717H134.957L133.229 528.329L135.011 531H133.966L132.745 529.022L131.524 531H130.475L132.257 528.329L130.528 525.717H131.573L132.73 527.646ZM137.145 524.438V525.717H138.131V526.415H137.145V529.691C137.145 529.903 137.188 530.062 137.276 530.17C137.364 530.274 137.514 530.326 137.726 530.326C137.83 530.326 137.973 530.307 138.155 530.268V531C137.918 531.065 137.687 531.098 137.462 531.098C137.058 531.098 136.754 530.976 136.549 530.731C136.344 530.487 136.241 530.141 136.241 529.691V526.415H135.279V525.717H136.241V524.438H137.145Z" fill="#A3A3A3"/>
<path d="M244.23 524.662H241.945V531H241.013V524.662H238.732V523.891H244.23V524.662ZM246.848 531.098C246.132 531.098 245.549 530.863 245.1 530.395C244.65 529.923 244.426 529.293 244.426 528.505V528.339C244.426 527.815 244.525 527.348 244.724 526.938C244.925 526.524 245.205 526.202 245.563 525.971C245.925 525.736 246.315 525.619 246.735 525.619C247.422 525.619 247.956 525.845 248.337 526.298C248.718 526.75 248.908 527.398 248.908 528.241V528.617H245.329C245.342 529.138 245.493 529.56 245.783 529.882C246.076 530.201 246.447 530.36 246.896 530.36C247.215 530.36 247.486 530.295 247.707 530.165C247.928 530.035 248.122 529.862 248.288 529.647L248.84 530.077C248.397 530.757 247.733 531.098 246.848 531.098ZM246.735 526.361C246.371 526.361 246.065 526.495 245.817 526.762C245.57 527.025 245.417 527.396 245.358 527.875H248.005V527.807C247.979 527.348 247.855 526.993 247.634 526.742C247.412 526.488 247.113 526.361 246.735 526.361ZM251.73 527.646L252.902 525.717H253.957L252.229 528.329L254.011 531H252.966L251.745 529.022L250.524 531H249.475L251.257 528.329L249.528 525.717H250.573L251.73 527.646ZM256.145 524.438V525.717H257.131V526.415H256.145V529.691C256.145 529.903 256.188 530.062 256.276 530.17C256.364 530.274 256.514 530.326 256.726 530.326C256.83 530.326 256.973 530.307 257.155 530.268V531C256.918 531.065 256.687 531.098 256.462 531.098C256.058 531.098 255.754 530.976 255.549 530.731C255.344 530.487 255.241 530.141 255.241 529.691V526.415H254.279V525.717H255.241V524.438H256.145Z" fill="#A3A3A3"/>
<path d="M363.23 524.662H360.945V531H360.013V524.662H357.732V523.891H363.23V524.662ZM365.848 531.098C365.132 531.098 364.549 530.863 364.1 530.395C363.65 529.923 363.426 529.293 363.426 528.505V528.339C363.426 527.815 363.525 527.348 363.724 526.938C363.925 526.524 364.205 526.202 364.563 525.971C364.925 525.736 365.315 525.619 365.735 525.619C366.422 525.619 366.956 525.845 367.337 526.298C367.718 526.75 367.908 527.398 367.908 528.241V528.617H364.329C364.342 529.138 364.493 529.56 364.783 529.882C365.076 530.201 365.447 530.36 365.896 530.36C366.215 530.36 366.486 530.295 366.707 530.165C366.928 530.035 367.122 529.862 367.288 529.647L367.84 530.077C367.397 530.757 366.733 531.098 365.848 531.098ZM365.735 526.361C365.371 526.361 365.065 526.495 364.817 526.762C364.57 527.025 364.417 527.396 364.358 527.875H367.005V527.807C366.979 527.348 366.855 526.993 366.634 526.742C366.412 526.488 366.113 526.361 365.735 526.361ZM370.73 527.646L371.902 525.717H372.957L371.229 528.329L373.011 531H371.966L370.745 529.022L369.524 531H368.475L370.257 528.329L368.528 525.717H369.573L370.73 527.646ZM375.145 524.438V525.717H376.131V526.415H375.145V529.691C375.145 529.903 375.188 530.062 375.276 530.17C375.364 530.274 375.514 530.326 375.726 530.326C375.83 530.326 375.973 530.307 376.155 530.268V531C375.918 531.065 375.687 531.098 375.462 531.098C375.058 531.098 374.754 530.976 374.549 530.731C374.344 530.487 374.241 530.141 374.241 529.691V526.415H373.279V525.717H374.241V524.438H375.145Z" fill="#A3A3A3"/>
<path d="M482.23 524.662H479.945V531H479.013V524.662H476.732V523.891H482.23V524.662ZM484.848 531.098C484.132 531.098 483.549 530.863 483.1 530.395C482.65 529.923 482.426 529.293 482.426 528.505V528.339C482.426 527.815 482.525 527.348 482.724 526.938C482.925 526.524 483.205 526.202 483.563 525.971C483.925 525.736 484.315 525.619 484.735 525.619C485.422 525.619 485.956 525.845 486.337 526.298C486.718 526.75 486.908 527.398 486.908 528.241V528.617H483.329C483.342 529.138 483.493 529.56 483.783 529.882C484.076 530.201 484.447 530.36 484.896 530.36C485.215 530.36 485.486 530.295 485.707 530.165C485.928 530.035 486.122 529.862 486.288 529.647L486.84 530.077C486.397 530.757 485.733 531.098 484.848 531.098ZM484.735 526.361C484.371 526.361 484.065 526.495 483.817 526.762C483.57 527.025 483.417 527.396 483.358 527.875H486.005V527.807C485.979 527.348 485.855 526.993 485.634 526.742C485.412 526.488 485.113 526.361 484.735 526.361ZM489.73 527.646L490.902 525.717H491.957L490.229 528.329L492.011 531H490.966L489.745 529.022L488.524 531H487.475L489.257 528.329L487.528 525.717H488.573L489.73 527.646ZM494.145 524.438V525.717H495.131V526.415H494.145V529.691C494.145 529.903 494.188 530.062 494.276 530.17C494.364 530.274 494.514 530.326 494.726 530.326C494.83 530.326 494.973 530.307 495.155 530.268V531C494.918 531.065 494.687 531.098 494.462 531.098C494.058 531.098 493.754 530.976 493.549 530.731C493.344 530.487 493.241 530.141 493.241 529.691V526.415H492.279V525.717H493.241V524.438H494.145Z" fill="#A3A3A3"/>
<path d="M601.23 524.662H598.945V531H598.013V524.662H595.732V523.891H601.23V524.662ZM603.848 531.098C603.132 531.098 602.549 530.863 602.1 530.395C601.65 529.923 601.426 529.293 601.426 528.505V528.339C601.426 527.815 601.525 527.348 601.724 526.938C601.925 526.524 602.205 526.202 602.563 525.971C602.925 525.736 603.315 525.619 603.735 525.619C604.422 525.619 604.956 525.845 605.337 526.298C605.718 526.75 605.908 527.398 605.908 528.241V528.617H602.329C602.342 529.138 602.493 529.56 602.783 529.882C603.076 530.201 603.447 530.36 603.896 530.36C604.215 530.36 604.486 530.295 604.707 530.165C604.928 530.035 605.122 529.862 605.288 529.647L605.84 530.077C605.397 530.757 604.733 531.098 603.848 531.098ZM603.735 526.361C603.371 526.361 603.065 526.495 602.817 526.762C602.57 527.025 602.417 527.396 602.358 527.875H605.005V527.807C604.979 527.348 604.855 526.993 604.634 526.742C604.412 526.488 604.113 526.361 603.735 526.361ZM608.73 527.646L609.902 525.717H610.957L609.229 528.329L611.011 531H609.966L608.745 529.022L607.524 531H606.475L608.257 528.329L606.528 525.717H607.573L608.73 527.646ZM613.145 524.438V525.717H614.131V526.415H613.145V529.691C613.145 529.903 613.188 530.062 613.276 530.17C613.364 530.274 613.514 530.326 613.726 530.326C613.83 530.326 613.973 530.307 614.155 530.268V531C613.918 531.065 613.687 531.098 613.462 531.098C613.058 531.098 612.754 530.976 612.549 530.731C612.344 530.487 612.241 530.141 612.241 529.691V526.415H611.279V525.717H612.241V524.438H613.145Z" fill="#A3A3A3"/>
<path d="M720.23 524.662H717.945V531H717.013V524.662H714.732V523.891H720.23V524.662ZM722.848 531.098C722.132 531.098 721.549 530.863 721.1 530.395C720.65 529.923 720.426 529.293 720.426 528.505V528.339C720.426 527.815 720.525 527.348 720.724 526.938C720.925 526.524 721.205 526.202 721.563 525.971C721.925 525.736 722.315 525.619 722.735 525.619C723.422 525.619 723.956 525.845 724.337 526.298C724.718 526.75 724.908 527.398 724.908 528.241V528.617H721.329C721.342 529.138 721.493 529.56 721.783 529.882C722.076 530.201 722.447 530.36 722.896 530.36C723.215 530.36 723.486 530.295 723.707 530.165C723.928 530.035 724.122 529.862 724.288 529.647L724.84 530.077C724.397 530.757 723.733 531.098 722.848 531.098ZM722.735 526.361C722.371 526.361 722.065 526.495 721.817 526.762C721.57 527.025 721.417 527.396 721.358 527.875H724.005V527.807C723.979 527.348 723.855 526.993 723.634 526.742C723.412 526.488 723.113 526.361 722.735 526.361ZM727.73 527.646L728.902 525.717H729.957L728.229 528.329L730.011 531H728.966L727.745 529.022L726.524 531H725.475L727.257 528.329L725.528 525.717H726.573L727.73 527.646ZM732.145 524.438V525.717H733.131V526.415H732.145V529.691C732.145 529.903 732.188 530.062 732.276 530.17C732.364 530.274 732.514 530.326 732.726 530.326C732.83 530.326 732.973 530.307 733.155 530.268V531C732.918 531.065 732.687 531.098 732.462 531.098C732.058 531.098 731.754 530.976 731.549 530.731C731.344 530.487 731.241 530.141 731.241 529.691V526.415H730.279V525.717H731.241V524.438H732.145Z" fill="#A3A3A3"/>
<path d="M839.23 524.662H836.945V531H836.013V524.662H833.732V523.891H839.23V524.662ZM841.848 531.098C841.132 531.098 840.549 530.863 840.1 530.395C839.65 529.923 839.426 529.293 839.426 528.505V528.339C839.426 527.815 839.525 527.348 839.724 526.938C839.925 526.524 840.205 526.202 840.563 525.971C840.925 525.736 841.315 525.619 841.735 525.619C842.422 525.619 842.956 525.845 843.337 526.298C843.718 526.75 843.908 527.398 843.908 528.241V528.617H840.329C840.342 529.138 840.493 529.56 840.783 529.882C841.076 530.201 841.447 530.36 841.896 530.36C842.215 530.36 842.486 530.295 842.707 530.165C842.928 530.035 843.122 529.862 843.288 529.647L843.84 530.077C843.397 530.757 842.733 531.098 841.848 531.098ZM841.735 526.361C841.371 526.361 841.065 526.495 840.817 526.762C840.57 527.025 840.417 527.396 840.358 527.875H843.005V527.807C842.979 527.348 842.855 526.993 842.634 526.742C842.412 526.488 842.113 526.361 841.735 526.361ZM846.73 527.646L847.902 525.717H848.957L847.229 528.329L849.011 531H847.966L846.745 529.022L845.524 531H844.475L846.257 528.329L844.528 525.717H845.573L846.73 527.646ZM851.145 524.438V525.717H852.131V526.415H851.145V529.691C851.145 529.903 851.188 530.062 851.276 530.17C851.364 530.274 851.514 530.326 851.726 530.326C851.83 530.326 851.973 530.307 852.155 530.268V531C851.918 531.065 851.687 531.098 851.462 531.098C851.058 531.098 850.754 530.976 850.549 530.731C850.344 530.487 850.241 530.141 850.241 529.691V526.415H849.279V525.717H850.241V524.438H851.145Z" fill="#A3A3A3"/>
<path d="M858.049 512.968C858.049 514.026 857.868 514.812 857.507 515.326C857.146 515.84 856.581 516.098 855.812 516.098C855.054 516.098 854.493 515.847 854.128 515.346C853.763 514.841 853.575 514.089 853.562 513.09V511.884C853.562 510.839 853.742 510.062 854.104 509.555C854.465 509.047 855.031 508.793 855.803 508.793C856.568 508.793 857.131 509.039 857.492 509.53C857.854 510.019 858.039 510.774 858.049 511.796V512.968ZM857.146 511.732C857.146 510.967 857.038 510.411 856.823 510.062C856.608 509.711 856.268 509.535 855.803 509.535C855.34 509.535 855.004 509.709 854.792 510.058C854.58 510.406 854.471 510.941 854.465 511.664V513.109C854.465 513.878 854.576 514.446 854.797 514.813C855.021 515.178 855.36 515.36 855.812 515.36C856.258 515.36 856.589 515.188 856.804 514.843C857.022 514.498 857.136 513.954 857.146 513.212V511.732Z" fill="#A3A3A3"/>
<path d="M858.249 465H853.591V464.351L856.052 461.616C856.416 461.203 856.667 460.868 856.804 460.61C856.944 460.35 857.014 460.081 857.014 459.805C857.014 459.434 856.901 459.129 856.677 458.892C856.452 458.654 856.153 458.535 855.778 458.535C855.329 458.535 854.979 458.664 854.729 458.921C854.481 459.175 854.357 459.53 854.357 459.985H853.454C853.454 459.331 853.664 458.802 854.084 458.398C854.507 457.995 855.072 457.793 855.778 457.793C856.439 457.793 856.962 457.967 857.346 458.315C857.73 458.66 857.922 459.121 857.922 459.697C857.922 460.397 857.476 461.23 856.584 462.197L854.68 464.263H858.249V465ZM863.664 461.968C863.664 463.026 863.483 463.812 863.122 464.326C862.761 464.84 862.196 465.098 861.428 465.098C860.669 465.098 860.108 464.847 859.743 464.346C859.379 463.841 859.19 463.089 859.177 462.09V460.884C859.177 459.839 859.357 459.062 859.719 458.555C860.08 458.047 860.646 457.793 861.418 457.793C862.183 457.793 862.746 458.039 863.107 458.53C863.469 459.019 863.654 459.774 863.664 460.796V461.968ZM862.761 460.732C862.761 459.967 862.653 459.411 862.438 459.062C862.224 458.711 861.883 458.535 861.418 458.535C860.956 458.535 860.619 458.709 860.407 459.058C860.196 459.406 860.087 459.941 860.08 460.664V462.109C860.08 462.878 860.191 463.446 860.412 463.813C860.637 464.178 860.975 464.36 861.428 464.36C861.874 464.36 862.204 464.188 862.419 463.843C862.637 463.498 862.751 462.954 862.761 462.212V460.732Z" fill="#A3A3A3"/>
<path d="M857.404 411.612H858.391V412.35H857.404V414H856.496V412.35H853.259V411.817L856.442 406.891H857.404V411.612ZM854.284 411.612H856.496V408.126L856.389 408.321L854.284 411.612ZM863.664 410.968C863.664 412.026 863.483 412.812 863.122 413.326C862.761 413.84 862.196 414.098 861.428 414.098C860.669 414.098 860.108 413.847 859.743 413.346C859.379 412.841 859.19 412.089 859.177 411.09V409.884C859.177 408.839 859.357 408.062 859.719 407.555C860.08 407.047 860.646 406.793 861.418 406.793C862.183 406.793 862.746 407.039 863.107 407.53C863.469 408.019 863.654 408.774 863.664 409.796V410.968ZM862.761 409.732C862.761 408.967 862.653 408.411 862.438 408.062C862.224 407.711 861.883 407.535 861.418 407.535C860.956 407.535 860.619 407.709 860.407 408.058C860.196 408.406 860.087 408.941 860.08 409.664V411.109C860.08 411.878 860.191 412.446 860.412 412.813C860.637 413.178 860.975 413.36 861.428 413.36C861.874 413.36 862.204 413.188 862.419 412.843C862.637 412.498 862.751 411.954 862.761 411.212V409.732Z" fill="#A3A3A3"/>
<path d="M857.136 355.886V356.652H856.97C856.267 356.665 855.707 356.874 855.29 357.277C854.873 357.681 854.632 358.249 854.567 358.981C854.942 358.552 855.453 358.337 856.101 358.337C856.719 358.337 857.212 358.555 857.58 358.991C857.951 359.427 858.137 359.991 858.137 360.681C858.137 361.413 857.937 361.999 857.536 362.438C857.139 362.878 856.605 363.098 855.935 363.098C855.254 363.098 854.702 362.837 854.279 362.316C853.856 361.792 853.645 361.118 853.645 360.295V359.948C853.645 358.64 853.923 357.64 854.479 356.95C855.039 356.257 855.871 355.902 856.975 355.886H857.136ZM855.949 359.089C855.64 359.089 855.355 359.182 855.095 359.367C854.834 359.553 854.654 359.785 854.553 360.065V360.397C854.553 360.983 854.685 361.455 854.948 361.813C855.212 362.172 855.541 362.351 855.935 362.351C856.341 362.351 856.66 362.201 856.892 361.901C857.126 361.602 857.243 361.21 857.243 360.725C857.243 360.236 857.124 359.842 856.887 359.543C856.652 359.24 856.34 359.089 855.949 359.089ZM863.664 359.968C863.664 361.026 863.483 361.812 863.122 362.326C862.761 362.84 862.196 363.098 861.428 363.098C860.669 363.098 860.108 362.847 859.743 362.346C859.379 361.841 859.19 361.089 859.177 360.09V358.884C859.177 357.839 859.357 357.062 859.719 356.555C860.08 356.047 860.646 355.793 861.418 355.793C862.183 355.793 862.746 356.039 863.107 356.53C863.469 357.019 863.654 357.774 863.664 358.796V359.968ZM862.761 358.732C862.761 357.967 862.653 357.411 862.438 357.062C862.224 356.711 861.883 356.535 861.418 356.535C860.956 356.535 860.619 356.709 860.407 357.058C860.196 357.406 860.087 357.941 860.08 358.664V360.109C860.08 360.878 860.191 361.446 860.412 361.813C860.637 362.178 860.975 362.36 861.428 362.36C861.874 362.36 862.204 362.188 862.419 361.843C862.637 361.498 862.751 360.954 862.761 360.212V358.732Z" fill="#A3A3A3"/>
<path d="M857.902 306.746C857.902 307.101 857.808 307.417 857.619 307.693C857.434 307.97 857.181 308.187 856.862 308.343C857.233 308.502 857.526 308.735 857.741 309.041C857.959 309.347 858.068 309.694 858.068 310.081C858.068 310.696 857.86 311.186 857.443 311.551C857.03 311.915 856.485 312.098 855.808 312.098C855.124 312.098 854.576 311.915 854.162 311.551C853.752 311.183 853.547 310.693 853.547 310.081C853.547 309.697 853.651 309.35 853.859 309.041C854.071 308.732 854.362 308.497 854.733 308.338C854.418 308.182 854.169 307.965 853.986 307.688C853.804 307.412 853.713 307.098 853.713 306.746C853.713 306.147 853.905 305.672 854.289 305.32C854.673 304.969 855.179 304.793 855.808 304.793C856.433 304.793 856.937 304.969 857.321 305.32C857.709 305.672 857.902 306.147 857.902 306.746ZM857.165 310.062C857.165 309.664 857.038 309.34 856.784 309.09C856.534 308.839 856.205 308.714 855.798 308.714C855.391 308.714 855.064 308.838 854.816 309.085C854.572 309.332 854.45 309.658 854.45 310.062C854.45 310.465 854.569 310.783 854.807 311.014C855.048 311.245 855.381 311.36 855.808 311.36C856.231 311.36 856.563 311.245 856.804 311.014C857.045 310.779 857.165 310.462 857.165 310.062ZM855.808 305.535C855.453 305.535 855.165 305.646 854.943 305.867C854.725 306.085 854.616 306.383 854.616 306.761C854.616 307.122 854.724 307.415 854.938 307.64C855.157 307.861 855.446 307.972 855.808 307.972C856.169 307.972 856.457 307.861 856.672 307.64C856.89 307.415 856.999 307.122 856.999 306.761C856.999 306.399 856.887 306.105 856.662 305.877C856.438 305.649 856.153 305.535 855.808 305.535ZM863.664 308.968C863.664 310.026 863.483 310.812 863.122 311.326C862.761 311.84 862.196 312.098 861.428 312.098C860.669 312.098 860.108 311.847 859.743 311.346C859.379 310.841 859.19 310.089 859.177 309.09V307.884C859.177 306.839 859.357 306.062 859.719 305.555C860.08 305.047 860.646 304.793 861.418 304.793C862.183 304.793 862.746 305.039 863.107 305.53C863.469 306.019 863.654 306.774 863.664 307.796V308.968ZM862.761 307.732C862.761 306.967 862.653 306.411 862.438 306.062C862.224 305.711 861.883 305.535 861.418 305.535C860.956 305.535 860.619 305.709 860.407 306.058C860.196 306.406 860.087 306.941 860.08 307.664V309.109C860.08 309.878 860.191 310.446 860.412 310.813C860.637 311.178 860.975 311.36 861.428 311.36C861.874 311.36 862.204 311.188 862.419 310.843C862.637 310.498 862.751 309.954 862.761 309.212V307.732Z" fill="#A3A3A3"/>
<path d="M856.56 262H855.651V255.979L853.83 256.648V255.828L856.418 254.856H856.56V262ZM863.664 258.968C863.664 260.026 863.483 260.812 863.122 261.326C862.761 261.84 862.196 262.098 861.428 262.098C860.669 262.098 860.108 261.847 859.743 261.346C859.379 260.841 859.19 260.089 859.177 259.09V257.884C859.177 256.839 859.357 256.062 859.719 255.555C860.08 255.047 860.646 254.793 861.418 254.793C862.183 254.793 862.746 255.039 863.107 255.53C863.469 256.019 863.654 256.774 863.664 257.796V258.968ZM862.761 257.732C862.761 256.967 862.653 256.411 862.438 256.062C862.224 255.711 861.883 255.535 861.418 255.535C860.956 255.535 860.619 255.709 860.407 256.058C860.196 256.406 860.087 256.941 860.08 257.664V259.109C860.08 259.878 860.191 260.446 860.412 260.813C860.637 261.178 860.975 261.36 861.428 261.36C861.874 261.36 862.204 261.188 862.419 260.843C862.637 260.498 862.751 259.954 862.761 259.212V257.732ZM869.279 258.968C869.279 260.026 869.099 260.812 868.737 261.326C868.376 261.84 867.811 262.098 867.043 262.098C866.285 262.098 865.723 261.847 865.358 261.346C864.994 260.841 864.805 260.089 864.792 259.09V257.884C864.792 256.839 864.973 256.062 865.334 255.555C865.695 255.047 866.262 254.793 867.033 254.793C867.798 254.793 868.361 255.039 868.723 255.53C869.084 256.019 869.27 256.774 869.279 257.796V258.968ZM868.376 257.732C868.376 256.967 868.269 256.411 868.054 256.062C867.839 255.711 867.499 255.535 867.033 255.535C866.571 255.535 866.234 255.709 866.022 256.058C865.811 256.406 865.702 256.941 865.695 257.664V259.109C865.695 259.878 865.806 260.446 866.027 260.813C866.252 261.178 866.59 261.36 867.043 261.36C867.489 261.36 867.819 261.188 868.034 260.843C868.252 260.498 868.366 259.954 868.376 259.212V257.732Z" fill="#A3A3A3"/>
<path d="M856.56 211H855.651V204.979L853.83 205.648V204.828L856.418 203.856H856.56V211ZM863.864 211H859.206V210.351L861.667 207.616C862.032 207.203 862.282 206.868 862.419 206.61C862.559 206.35 862.629 206.081 862.629 205.805C862.629 205.434 862.517 205.129 862.292 204.892C862.067 204.654 861.768 204.535 861.394 204.535C860.944 204.535 860.594 204.664 860.344 204.921C860.096 205.175 859.973 205.53 859.973 205.985H859.069C859.069 205.331 859.279 204.802 859.699 204.398C860.122 203.995 860.687 203.793 861.394 203.793C862.054 203.793 862.577 203.967 862.961 204.315C863.345 204.66 863.537 205.121 863.537 205.697C863.537 206.397 863.091 207.23 862.199 208.197L860.295 210.263H863.864V211ZM869.279 207.968C869.279 209.026 869.099 209.812 868.737 210.326C868.376 210.84 867.811 211.098 867.043 211.098C866.285 211.098 865.723 210.847 865.358 210.346C864.994 209.841 864.805 209.089 864.792 208.09V206.884C864.792 205.839 864.973 205.062 865.334 204.555C865.695 204.047 866.262 203.793 867.033 203.793C867.798 203.793 868.361 204.039 868.723 204.53C869.084 205.019 869.27 205.774 869.279 206.796V207.968ZM868.376 206.732C868.376 205.967 868.269 205.411 868.054 205.062C867.839 204.711 867.499 204.535 867.033 204.535C866.571 204.535 866.234 204.709 866.022 205.058C865.811 205.406 865.702 205.941 865.695 206.664V208.109C865.695 208.878 865.806 209.446 866.027 209.813C866.252 210.178 866.59 210.36 867.043 210.36C867.489 210.36 867.819 210.188 868.034 209.843C868.252 209.498 868.366 208.954 868.376 208.212V206.732Z" fill="#A3A3A3"/>
<path d="M856.56 160H855.651V153.979L853.83 154.648V153.828L856.418 152.856H856.56V160ZM863.02 157.612H864.006V158.35H863.02V160H862.111V158.35H858.874V157.817L862.058 152.891H863.02V157.612ZM859.899 157.612H862.111V154.126L862.004 154.321L859.899 157.612ZM869.279 156.968C869.279 158.026 869.099 158.812 868.737 159.326C868.376 159.84 867.811 160.098 867.043 160.098C866.285 160.098 865.723 159.847 865.358 159.346C864.994 158.841 864.805 158.089 864.792 157.09V155.884C864.792 154.839 864.973 154.062 865.334 153.555C865.695 153.047 866.262 152.793 867.033 152.793C867.798 152.793 868.361 153.039 868.723 153.53C869.084 154.019 869.27 154.774 869.279 155.796V156.968ZM868.376 155.732C868.376 154.967 868.269 154.411 868.054 154.062C867.839 153.711 867.499 153.535 867.033 153.535C866.571 153.535 866.234 153.709 866.022 154.058C865.811 154.406 865.702 154.941 865.695 155.664V157.109C865.695 157.878 865.806 158.446 866.027 158.813C866.252 159.178 866.59 159.36 867.043 159.36C867.489 159.36 867.819 159.188 868.034 158.843C868.252 158.498 868.366 157.954 868.376 157.212V155.732Z" fill="#A3A3A3"/>
<path d="M856.56 109H855.651V102.979L853.83 103.648V102.828L856.418 101.856H856.56V109ZM862.751 101.886V102.652H862.585C861.882 102.665 861.322 102.874 860.905 103.277C860.489 103.681 860.248 104.249 860.183 104.981C860.557 104.552 861.068 104.337 861.716 104.337C862.334 104.337 862.827 104.555 863.195 104.991C863.566 105.427 863.752 105.991 863.752 106.681C863.752 107.413 863.552 107.999 863.151 108.438C862.754 108.878 862.22 109.098 861.55 109.098C860.869 109.098 860.318 108.837 859.895 108.316C859.471 107.792 859.26 107.118 859.26 106.295V105.948C859.26 104.64 859.538 103.64 860.095 102.95C860.655 102.257 861.486 101.902 862.59 101.886H862.751ZM861.564 105.089C861.255 105.089 860.97 105.182 860.71 105.367C860.45 105.553 860.269 105.785 860.168 106.065V106.397C860.168 106.983 860.3 107.455 860.563 107.813C860.827 108.172 861.156 108.351 861.55 108.351C861.957 108.351 862.276 108.201 862.507 107.901C862.741 107.602 862.858 107.21 862.858 106.725C862.858 106.236 862.74 105.842 862.502 105.543C862.268 105.24 861.955 105.089 861.564 105.089ZM869.279 105.968C869.279 107.026 869.099 107.812 868.737 108.326C868.376 108.84 867.811 109.098 867.043 109.098C866.285 109.098 865.723 108.847 865.358 108.346C864.994 107.841 864.805 107.089 864.792 106.09V104.884C864.792 103.839 864.973 103.062 865.334 102.555C865.695 102.047 866.262 101.793 867.033 101.793C867.798 101.793 868.361 102.039 868.723 102.53C869.084 103.019 869.27 103.774 869.279 104.796V105.968ZM868.376 104.732C868.376 103.967 868.269 103.411 868.054 103.062C867.839 102.711 867.499 102.535 867.033 102.535C866.571 102.535 866.234 102.709 866.022 103.058C865.811 103.406 865.702 103.941 865.695 104.664V106.109C865.695 106.878 865.806 107.446 866.027 107.813C866.252 108.178 866.59 108.36 867.043 108.36C867.489 108.36 867.819 108.188 868.034 107.843C868.252 107.498 868.366 106.954 868.376 106.212V104.732Z" fill="#A3A3A3"/>
<path d="M856.56 58H855.651V51.9795L853.83 52.6484V51.8281L856.418 50.8564H856.56V58ZM863.518 52.7461C863.518 53.1009 863.423 53.4167 863.234 53.6934C863.049 53.9701 862.797 54.1865 862.478 54.3428C862.849 54.5023 863.142 54.735 863.356 55.041C863.575 55.347 863.684 55.6937 863.684 56.0811C863.684 56.6963 863.475 57.1862 863.059 57.5508C862.645 57.9154 862.1 58.0977 861.423 58.0977C860.739 58.0977 860.191 57.9154 859.777 57.5508C859.367 57.1829 859.162 56.693 859.162 56.0811C859.162 55.6969 859.266 55.3503 859.475 55.041C859.686 54.7318 859.978 54.4974 860.349 54.3379C860.033 54.1816 859.784 53.9652 859.602 53.6885C859.419 53.4118 859.328 53.0977 859.328 52.7461C859.328 52.1471 859.52 51.6719 859.904 51.3203C860.288 50.9688 860.795 50.793 861.423 50.793C862.048 50.793 862.552 50.9688 862.937 51.3203C863.324 51.6719 863.518 52.1471 863.518 52.7461ZM862.78 56.0615C862.78 55.6644 862.653 55.3405 862.399 55.0898C862.149 54.8392 861.82 54.7139 861.413 54.7139C861.006 54.7139 860.679 54.8376 860.432 55.085C860.188 55.3324 860.065 55.6579 860.065 56.0615C860.065 56.4652 860.184 56.7826 860.422 57.0137C860.663 57.2448 860.996 57.3604 861.423 57.3604C861.846 57.3604 862.178 57.2448 862.419 57.0137C862.66 56.7793 862.78 56.4619 862.78 56.0615ZM861.423 51.5352C861.068 51.5352 860.78 51.6458 860.559 51.8672C860.34 52.0853 860.231 52.3831 860.231 52.7607C860.231 53.1221 860.339 53.415 860.554 53.6396C860.772 53.861 861.062 53.9717 861.423 53.9717C861.784 53.9717 862.072 53.861 862.287 53.6396C862.505 53.415 862.614 53.1221 862.614 52.7607C862.614 52.3994 862.502 52.1048 862.277 51.877C862.053 51.6491 861.768 51.5352 861.423 51.5352ZM869.279 54.9678C869.279 56.0257 869.099 56.8118 868.737 57.3262C868.376 57.8405 867.811 58.0977 867.043 58.0977C866.285 58.0977 865.723 57.847 865.358 57.3457C864.994 56.8411 864.805 56.0892 864.792 55.0898V53.8838C864.792 52.8389 864.973 52.0625 865.334 51.5547C865.695 51.0469 866.262 50.793 867.033 50.793C867.798 50.793 868.361 51.0387 868.723 51.5303C869.084 52.0186 869.27 52.7738 869.279 53.7959V54.9678ZM868.376 53.7324C868.376 52.9674 868.269 52.4108 868.054 52.0625C867.839 51.7109 867.499 51.5352 867.033 51.5352C866.571 51.5352 866.234 51.7093 866.022 52.0576C865.811 52.4059 865.702 52.9414 865.695 53.6641V55.1094C865.695 55.8776 865.806 56.4456 866.027 56.8135C866.252 57.1781 866.59 57.3604 867.043 57.3604C867.489 57.3604 867.819 57.1878 868.034 56.8428C868.252 56.4977 868.366 55.9541 868.376 55.2119V53.7324Z" fill="#A3A3A3"/>
<path d="M858.249 8H853.591V7.35059L856.052 4.61621C856.416 4.2028 856.667 3.86751 856.804 3.61035C856.944 3.34993 857.014 3.08138 857.014 2.80469C857.014 2.43359 856.901 2.12923 856.677 1.8916C856.452 1.65397 856.153 1.53516 855.778 1.53516C855.329 1.53516 854.979 1.66374 854.729 1.9209C854.481 2.1748 854.357 2.52962 854.357 2.98535H853.454C853.454 2.33105 853.664 1.80208 854.084 1.39844C854.507 0.994792 855.072 0.792969 855.778 0.792969C856.439 0.792969 856.962 0.967122 857.346 1.31543C857.73 1.66048 857.922 2.12109 857.922 2.69727C857.922 3.39714 857.476 4.23047 856.584 5.19727L854.68 7.2627H858.249V8ZM863.664 4.96777C863.664 6.02572 863.483 6.81185 863.122 7.32617C862.761 7.84049 862.196 8.09766 861.428 8.09766C860.669 8.09766 860.108 7.84701 859.743 7.3457C859.379 6.84115 859.19 6.08919 859.177 5.08984V3.88379C859.177 2.83887 859.357 2.0625 859.719 1.55469C860.08 1.04688 860.646 0.792969 861.418 0.792969C862.183 0.792969 862.746 1.03874 863.107 1.53027C863.469 2.01855 863.654 2.77376 863.664 3.7959V4.96777ZM862.761 3.73242C862.761 2.96745 862.653 2.41081 862.438 2.0625C862.224 1.71094 861.883 1.53516 861.418 1.53516C860.956 1.53516 860.619 1.70931 860.407 2.05762C860.196 2.40592 860.087 2.94141 860.08 3.66406V5.10938C860.08 5.8776 860.191 6.44564 860.412 6.81348C860.637 7.17806 860.975 7.36035 861.428 7.36035C861.874 7.36035 862.204 7.18783 862.419 6.84277C862.637 6.49772 862.751 5.9541 862.761 5.21191V3.73242ZM869.279 4.96777C869.279 6.02572 869.099 6.81185 868.737 7.32617C868.376 7.84049 867.811 8.09766 867.043 8.09766C866.285 8.09766 865.723 7.84701 865.358 7.3457C864.994 6.84115 864.805 6.08919 864.792 5.08984V3.88379C864.792 2.83887 864.973 2.0625 865.334 1.55469C865.695 1.04688 866.262 0.792969 867.033 0.792969C867.798 0.792969 868.361 1.03874 868.723 1.53027C869.084 2.01855 869.27 2.77376 869.279 3.7959V4.96777ZM868.376 3.73242C868.376 2.96745 868.269 2.41081 868.054 2.0625C867.839 1.71094 867.499 1.53516 867.033 1.53516C866.571 1.53516 866.234 1.70931 866.022 2.05762C865.811 2.40592 865.702 2.94141 865.695 3.66406V5.10938C865.695 5.8776 865.806 6.44564 866.027 6.81348C866.252 7.17806 866.59 7.36035 867.043 7.36035C867.489 7.36035 867.819 7.18783 868.034 6.84277C868.252 6.49772 868.366 5.9541 868.376 5.21191V3.73242Z" fill="#A3A3A3"/>
<path opacity="0.2" d="M10 5V513" stroke="#EBF0F8"/>
<path opacity="0.2" d="M129 5V513" stroke="#EBF0F8"/>
<path opacity="0.2" d="M248 5V513" stroke="#EBF0F8"/>
<path opacity="0.2" d="M367 5V513" stroke="#EBF0F8"/>
<path opacity="0.2" d="M486 5V513" stroke="#EBF0F8"/>
<path opacity="0.2" d="M605 5V513" stroke="#EBF0F8"/>
<path opacity="0.2" d="M724 5V513" stroke="#EBF0F8"/>
<path opacity="0.2" d="M843 5V513" stroke="#EBF0F8"/>
<path opacity="0.2" d="M10 513H842" stroke="#EBF0F8"/>
<path opacity="0.2" d="M10 462H842" stroke="#EBF0F8"/>
<path opacity="0.2" d="M10 411H842" stroke="#EBF0F8"/>
<path opacity="0.2" d="M10 360H842" stroke="#EBF0F8"/>
<path opacity="0.2" d="M10 309H842" stroke="#EBF0F8"/>
<path opacity="0.2" d="M10 259H842" stroke="#EBF0F8"/>
<path opacity="0.2" d="M10 208H842" stroke="#EBF0F8"/>
<path opacity="0.2" d="M10 157H842" stroke="#EBF0F8"/>
<path opacity="0.2" d="M10 106H842" stroke="#EBF0F8"/>
<path opacity="0.2" d="M10 55H842" stroke="#EBF0F8"/>
<path opacity="0.2" d="M10 5H842" stroke="#EBF0F8"/>
<path d="M10 332C10 332 69 45 128 45C188 45 188 281 247 281C307 281 307 172 366 172C426 172 426 60 485 60C544 60 544 380 604 380C663 380 663 76 723 76C782 76 842 129 842 129" stroke="#FFC75A" stroke-width="2"/>
<circle cx="10" cy="332" r="4" fill="#FFC75A"/>
<circle cx="128" cy="45" r="4" fill="#FFC75A"/>
<circle cx="247" cy="281" r="4" fill="#FFC75A"/>
<circle cx="366" cy="172" r="4" fill="#FFC75A"/>
<circle cx="485" cy="60" r="4" fill="#FFC75A"/>
<circle cx="604" cy="380" r="4" fill="#FFC75A"/>
<circle cx="723" cy="76" r="4" fill="#FFC75A"/>
<circle cx="842" cy="129" r="4" fill="#FFC75A"/>
</svg>
