<svg width="48" height="32" viewBox="0 0 48 32" fill="none" xmlns="http://www.w3.org/2000/svg">
<g id="visa-light-large">
<rect id="card_bg" width="48" height="32" rx="4" fill="#EBF0F8" fill-opacity="0.8"/>
<path id="visa-logo" fill-rule="evenodd" clip-rule="evenodd" d="M30.3499 17.6705C30.3561 16.1457 29.0985 15.4872 28.1227 14.9761C27.5049 14.6525 26.9999 14.3881 26.9999 14.0005C26.9999 13.6705 27.3199 13.3205 27.9999 13.2305C28.8092 13.1504 29.6251 13.2921 30.3599 13.6405L30.7799 11.6405C30.0636 11.3718 29.305 11.233 28.5399 11.2305C26.1799 11.2305 24.5399 12.4905 24.5399 14.2905C24.5399 15.6205 25.7299 16.3605 26.6299 16.8005C27.5299 17.2405 27.8799 17.5505 27.8699 17.9505C27.8699 18.5705 27.1299 18.8505 26.4399 18.8605C25.5888 18.8714 24.7489 18.6649 23.9999 18.2605L23.5699 20.2605C24.4174 20.5913 25.3202 20.7576 26.2299 20.7505C28.7399 20.7505 30.3899 19.5105 30.3999 17.5905L30.3499 17.6705ZM23.86 11.3906L21.86 20.6406H19.46L21.46 11.3906H23.86ZM33.92 17.3899L35.18 13.9199L35.91 17.3899H33.92ZM38.81 20.6699H36.59L36.3 19.2899H33.29L32.8 20.6699H30.28L33.87 12.0999C34.0355 11.6922 34.43 11.424 34.87 11.4199H36.87L38.81 20.6699ZM16.61 20.6094L20.49 11.3594H17.89L15.4 17.6494L14.4 12.2994C14.3115 11.7557 13.8408 11.3571 13.29 11.3594H9.22003L9.16003 11.6294C9.97637 11.7891 10.7693 12.0512 11.52 12.4094C11.8398 12.5597 12.0565 12.8676 12.09 13.2194L14 20.6094H16.61Z" fill="#2A2A6C"/>
</g>
</svg>
